<svg width="20" height="20" viewBox="0 0 20 20" fill="none" xmlns="http://www.w3.org/2000/svg">
<g clip-path="url(#clip0_46_4927)">
<path d="M19.9916 19.9995C15.4265 19.9995 10.8923 19.9995 6.34141 19.9995C6.34141 18.0085 6.34141 16.0204 6.34141 14.0085C6.65978 14.0085 6.9819 14.0085 7.31401 14.0085C7.31401 13.113 7.31401 12.2408 7.31401 11.3524C6.38808 11.3524 5.4609 11.3524 4.5033 11.3524C4.55331 13.5568 4.60331 15.7666 4.65374 17.9777C4.78292 18.0106 4.90501 18.0302 5.01836 18.0723C5.40173 18.2148 5.65217 18.5769 5.65592 18.9865C5.65884 19.3182 5.65634 19.6499 5.65634 19.9929C3.76614 19.9929 1.89387 19.9929 0.0199207 19.9929C0.0199207 19.582 -0.0330015 19.1611 0.0336721 18.7602C0.114931 18.2727 0.491637 18.0443 0.992939 17.9914C1.1042 13.1151 1.21588 8.23748 1.32756 3.34863C2.32724 3.34863 3.31026 3.34863 4.31912 3.34863C4.36537 5.33801 4.41163 7.32571 4.45788 9.32551C4.85542 9.32551 5.2413 9.32551 5.65759 9.32551C5.65759 8.9213 5.65426 8.515 5.65926 8.10829C5.66092 7.97786 5.66634 7.84285 5.70093 7.71825C5.81927 7.29321 6.20015 7.00943 6.64186 7.00401C6.8623 7.0011 7.08274 7.0036 7.3186 7.0036C7.3186 6.00099 7.3186 5.01756 7.3186 4.0187C9.98929 4.0187 12.6442 4.0187 15.324 4.0187C15.324 4.09371 15.324 4.16747 15.324 4.24164C15.324 5.13049 15.3269 6.01974 15.3203 6.90859C15.319 7.0486 15.3561 7.11736 15.4932 7.16195C15.8732 7.28571 16.2483 7.42572 16.6537 7.56949C16.6537 6.87317 16.6537 6.20518 16.6537 5.50469C16.875 5.59345 17.0663 5.67012 17.258 5.7468C17.7851 5.95724 18.3114 6.17143 18.841 6.3752C18.9569 6.41979 18.9952 6.47813 18.9936 6.60105C18.9869 7.14278 18.9973 7.6845 18.9865 8.22622C18.9836 8.37332 19.034 8.43041 19.1661 8.47042C19.3844 8.53667 19.5932 8.6346 19.8124 8.69711C19.962 8.73961 19.9941 8.81754 19.9941 8.96255C19.9895 11.1153 19.9912 13.2684 19.9912 15.4211C19.9912 16.8659 19.9912 18.3102 19.9912 19.7549C19.9916 19.8299 19.9916 19.9049 19.9916 19.9995ZM19.3265 19.3345C19.3265 19.2636 19.3265 19.2099 19.3265 19.1561C19.3265 15.9137 19.3248 12.6717 19.3307 9.42927C19.3311 9.26967 19.2678 9.21674 19.1348 9.16966C18.0901 8.80087 17.0475 8.42499 16.0041 8.05287C15.7853 7.97495 15.5649 7.90202 15.3357 7.82368C15.3357 11.6741 15.3357 15.4966 15.3357 19.3261C15.6682 19.3261 15.9899 19.3261 16.3337 19.3261C16.3337 16.7696 16.3337 14.2264 16.3337 11.682C16.5616 11.682 16.7671 11.682 16.995 11.682C16.995 12.0137 16.995 12.3358 16.995 12.6563C17.2288 12.6563 17.4392 12.6563 17.6655 12.6563C17.6655 12.3242 17.6655 12.0075 17.6655 11.6853C17.8922 11.6853 18.1022 11.6853 18.3347 11.6853C18.3347 14.2431 18.3347 16.7867 18.3347 19.3345C18.6685 19.3345 18.9802 19.3345 19.3265 19.3345ZM8.00033 9.33801C8.33412 9.33801 8.65207 9.33717 8.97044 9.33801C10.1131 9.34217 10.9869 10.2127 10.9902 11.3536C10.9927 12.1591 10.9906 12.9642 10.9906 13.7697C10.9906 13.8435 10.9906 13.9168 10.9906 13.9893C12.2274 13.9893 13.438 13.9893 14.6427 13.9893C14.6427 10.8748 14.6427 7.77576 14.6427 4.68002C12.4208 4.68002 10.2151 4.68002 8.00033 4.68002C8.00033 6.2306 8.00033 7.76909 8.00033 9.33801ZM14.6448 19.3299C14.6448 17.7693 14.6448 16.2258 14.6448 14.6861C12.087 14.6861 9.54383 14.6861 7.00731 14.6861C7.00731 16.245 7.00731 17.7885 7.00731 19.3274C7.56321 19.3274 8.10201 19.3274 8.66374 19.3274C8.66374 18.3277 8.66374 17.3397 8.66374 16.355C10.1189 16.355 11.5511 16.355 12.9984 16.355C12.9984 17.3547 12.9984 18.3377 12.9984 19.3299C13.5522 19.3299 14.091 19.3299 14.6448 19.3299ZM3.90283 14.6852C3.1715 14.6852 2.46143 14.6852 1.74468 14.6852C1.7201 15.7983 1.69551 16.8967 1.67134 17.9935C2.45351 17.9935 3.20734 17.9935 3.97783 17.9935C3.95241 16.8875 3.92783 15.7941 3.90283 14.6852ZM9.33922 17.013C9.33922 17.796 9.33922 18.5619 9.33922 19.322C10.3427 19.322 11.3307 19.322 12.3141 19.322C12.3141 18.544 12.3141 17.7831 12.3141 17.013C11.3198 17.013 10.3368 17.013 9.33922 17.013ZM1.76344 13.9872C2.48393 13.9872 3.17817 13.9872 3.88491 13.9872C3.86115 12.8763 3.83782 11.7837 3.81448 10.6819C3.1465 10.6819 2.49893 10.6819 1.83386 10.6819C1.81011 11.7862 1.78677 12.8788 1.76344 13.9872ZM1.9247 6.68023C1.90053 7.78785 1.87678 8.88588 1.85303 9.98974C2.51268 9.98974 3.14566 9.98974 3.79531 9.98974C3.77073 8.87671 3.74656 7.77868 3.72239 6.68023C3.10899 6.68023 2.52893 6.68023 1.9247 6.68023ZM10.3256 14.001C10.3256 13.9156 10.3256 13.8481 10.3256 13.7806C10.3256 13.0034 10.3264 12.2262 10.3252 11.4491C10.3239 10.5669 9.7626 10.0047 8.88209 10.0039C7.49445 10.0031 6.10681 10.0035 4.71874 10.0035C4.64457 10.0035 4.57039 10.0035 4.49914 10.0035C4.49914 10.2398 4.49914 10.4498 4.49914 10.6715C4.58623 10.6715 4.65457 10.6715 4.72333 10.6715C6.02763 10.6715 7.33235 10.6706 8.63665 10.6723C9.23046 10.6731 9.65509 11.1003 9.65676 11.697C9.65842 12.3908 9.65718 13.0846 9.65718 13.7785C9.65718 13.8514 9.65718 13.9239 9.65718 14.001C9.89095 14.001 10.0918 14.001 10.3256 14.001ZM3.67405 4.01662C3.08816 4.01662 2.54477 4.01662 1.97387 4.01662C1.97387 4.68419 1.97387 5.33759 1.97387 5.99057C2.54602 5.99057 3.11733 5.99057 3.67405 5.99057C3.67405 5.32801 3.67405 4.67919 3.67405 4.01662ZM0.656237 19.3249C2.11514 19.3249 3.54862 19.3249 4.98502 19.3249C4.98752 19.2765 4.99044 19.2424 4.99127 19.2078C4.99794 18.7669 4.90293 18.6711 4.45913 18.6711C3.95908 18.6711 3.45903 18.6711 2.95939 18.6711C2.33433 18.6711 1.70926 18.6698 1.08461 18.6715C0.779583 18.6723 0.659571 18.7961 0.656654 19.1036C0.65582 19.1728 0.656237 19.2415 0.656237 19.3249ZM8.9896 14.0002C8.9896 13.2084 8.99377 12.4329 8.98627 11.6578C8.9846 11.4878 8.87126 11.3624 8.70166 11.3478C8.47038 11.3278 8.23619 11.3428 8.00659 11.3428C8.00659 12.2416 8.00659 13.1184 8.00659 13.9997C8.33412 14.0002 8.64582 14.0002 8.9896 14.0002ZM7.30901 9.32967C7.30901 8.76545 7.30901 8.22164 7.30901 7.67075C7.08482 7.67075 6.87688 7.6645 6.66936 7.67242C6.47851 7.67992 6.33891 7.78701 6.33224 7.97578C6.31641 8.42374 6.32724 8.87296 6.32724 9.32967C6.66478 9.32967 6.98148 9.32967 7.30901 9.32967ZM18.326 8.16705C18.326 7.75659 18.3281 7.3828 18.3231 7.00943C18.3227 6.96443 18.2935 6.894 18.2589 6.879C17.956 6.74982 17.6488 6.63064 17.3251 6.50146C17.3251 6.91734 17.3213 7.30529 17.3292 7.69283C17.3305 7.74451 17.3792 7.82285 17.4247 7.84077C17.713 7.9537 18.0064 8.05329 18.326 8.16705ZM17.6434 14.331C17.6434 13.9872 17.6434 13.666 17.6434 13.3484C17.4213 13.3484 17.2159 13.3484 17.0042 13.3484C17.0042 13.681 17.0042 14.0022 17.0042 14.331C17.2221 14.331 17.4276 14.331 17.6434 14.331ZM17.6505 15.0153C17.4209 15.0153 17.2155 15.0153 17.0042 15.0153C17.0042 15.3478 17.0042 15.6691 17.0042 15.9904C17.2275 15.9904 17.438 15.9904 17.6505 15.9904C17.6505 15.6591 17.6505 15.3428 17.6505 15.0153ZM17.0067 16.6796C17.0067 17.0196 17.0067 17.3409 17.0067 17.6547C17.233 17.6547 17.4434 17.6547 17.6484 17.6547C17.6484 17.3209 17.6484 17.0046 17.6484 16.6796C17.4313 16.6796 17.2259 16.6796 17.0067 16.6796ZM17.6451 19.3295C17.6451 18.9911 17.6451 18.6698 17.6451 18.3544C17.4197 18.3544 17.2092 18.3544 17.0025 18.3544C17.0025 18.6877 17.0025 19.004 17.0025 19.3295C17.2188 19.3295 17.4238 19.3295 17.6451 19.3295Z" fill="#EF3C51"/>
<path d="M3.32339 2.6603C3.09586 2.6603 2.89042 2.6603 2.69457 2.6603C2.69457 2.11191 2.63665 1.55977 2.70999 1.02555C2.79333 0.4134 3.36006 0.00585787 3.97762 0.00669129C4.20514 0.007108 4.43975 0.00169076 4.65936 0.051696C5.23483 0.182543 5.63321 0.692596 5.65696 1.28516C5.67488 1.73729 5.94532 1.99982 6.39829 2.0044C6.47455 2.00523 6.55122 2.00607 6.62748 2.00357C7.0321 1.99065 7.30172 1.72729 7.32464 1.32475C7.37006 0.525495 7.91803 0.00252418 8.71478 0.00544116C8.90813 0.00627458 9.10649 0.00252418 9.29317 0.0437785C9.8974 0.177542 10.2995 0.677178 10.3237 1.29266C10.3408 1.73145 10.6129 1.99773 11.0521 2.0044C11.1354 2.00565 11.2188 2.0069 11.3021 2.00398C11.6934 1.99065 11.9893 1.72604 11.9868 1.3385C11.9826 0.618838 12.6064 -0.0487311 13.4094 0.00460774C13.5957 0.017109 13.787 0.00502444 13.967 0.045862C14.5687 0.182543 14.9671 0.681345 14.9909 1.29974C15.0071 1.72562 15.2817 1.9969 15.7047 2.0044C15.7951 2.00607 15.8855 2.0069 15.9755 2.00357C16.3647 1.9894 16.6548 1.72145 16.6548 1.33183C16.6548 0.584668 17.3107 -0.0449808 18.0624 0.00252418C18.2491 0.0141921 18.437 0.00419103 18.6412 0.00419103C18.6412 0.220464 18.6412 0.430902 18.6412 0.669677C18.4537 0.669677 18.262 0.66801 18.0703 0.670094C17.612 0.674677 17.3432 0.932621 17.3244 1.38433C17.2944 2.10649 16.7235 2.66113 16.0035 2.6703C15.6418 2.67489 15.2821 2.68614 14.9588 2.4732C14.5654 2.21442 14.3474 1.85855 14.3266 1.38725C14.3066 0.937205 14.0366 0.674261 13.5828 0.669677C13.5065 0.668844 13.4299 0.66801 13.3536 0.670094C12.9531 0.681345 12.6781 0.950956 12.6577 1.35058C12.6169 2.14525 12.066 2.6703 11.2663 2.66822C11.0729 2.6678 10.8746 2.67114 10.6879 2.62946C10.0845 2.49487 9.68196 1.99398 9.65863 1.37975C9.64196 0.941372 9.36777 0.674261 8.92897 0.669677C8.84563 0.668844 8.76229 0.667593 8.67894 0.670094C8.28932 0.681762 7.99304 0.950123 7.99471 1.33641C7.99762 2.05774 7.37256 2.6953 6.57081 2.67905C6.02408 2.6678 5.53778 2.57238 5.23275 2.08774C5.10565 1.88564 5.0269 1.63103 5.00106 1.39184C4.95189 0.940122 4.70603 0.674261 4.25473 0.66926C4.18514 0.668427 4.11597 0.668427 4.04638 0.66926C3.61133 0.676344 3.32839 0.953873 3.32422 1.38642C3.32005 1.80313 3.32339 2.21984 3.32339 2.6603Z" fill="#EF3C51"/>
<path d="M19.9744 0.664729C19.7573 0.664729 19.5577 0.664729 19.3418 0.664729C19.3418 0.451373 19.3418 0.241768 19.3418 0.0175781C19.5481 0.0175781 19.7573 0.0175781 19.9744 0.0175781C19.9744 0.234684 19.9744 0.448873 19.9744 0.664729Z" fill="#EF3C51"/>
<path d="M10.9807 5.68555C10.9807 6.68357 10.9807 7.66575 10.9807 8.65919C10.2111 8.65919 9.45099 8.65919 8.67383 8.65919C8.67383 7.67492 8.67383 6.68773 8.67383 5.68555C9.43432 5.68555 10.1994 5.68555 10.9807 5.68555ZM10.3107 7.99454C10.3107 7.43615 10.3107 6.89234 10.3107 6.35228C9.9748 6.35228 9.6531 6.35228 9.33348 6.35228C9.33348 6.90734 9.33348 7.44573 9.33348 7.99454C9.6606 7.99454 9.9773 7.99454 10.3107 7.99454Z" fill="#EF3C51"/>
<path d="M13.976 8.6617C13.2017 8.6617 12.4413 8.6617 11.6699 8.6617C11.6699 7.67035 11.6699 6.68816 11.6699 5.68848C12.4304 5.68848 13.1955 5.68848 13.976 5.68848C13.976 6.669 13.976 7.65618 13.976 8.6617ZM12.3383 6.34688C12.3383 6.90485 12.3383 7.44824 12.3383 7.98872C12.6742 7.98872 12.9955 7.98872 13.3155 7.98872C13.3155 7.43408 13.3155 6.89527 13.3155 6.34688C12.9888 6.34688 12.6721 6.34688 12.3383 6.34688Z" fill="#EF3C51"/>
<path d="M11.668 12.3228C11.668 11.3252 11.668 10.343 11.668 9.34961C12.4376 9.34961 13.1977 9.34961 13.9749 9.34961C13.9749 10.3335 13.9749 11.3206 13.9749 12.3228C13.2148 12.3228 12.4497 12.3228 11.668 12.3228ZM13.3177 10.0201C12.9752 10.0201 12.6535 10.0201 12.3347 10.0201C12.3347 10.5752 12.3347 11.114 12.3347 11.6599C12.6668 11.6599 12.9885 11.6599 13.3177 11.6599C13.3177 11.1081 13.3177 10.5697 13.3177 10.0201Z" fill="#EF3C51"/>
</g>
<defs>
<clipPath id="clip0_46_4927">
<rect width="19.9946" height="20" fill="white"/>
</clipPath>
</defs>
</svg>
