<svg width="39" height="16" viewBox="0 0 39 16" fill="none" xmlns="http://www.w3.org/2000/svg">
<g id="Frame" clip-path="url(#clip0_387_4380)">
<g id="Group">
<path id="Vector" d="M36.2379 12.0872C36.0838 13.8192 35.2756 15.0364 33.71 15.6569C31.7956 16.4156 29.6596 15.4848 28.8285 13.5601C28.7075 13.2797 28.5755 13.1705 28.2733 13.1936C27.7537 13.2336 27.2307 13.2592 26.7102 13.249C25.8106 13.2311 24.9118 13.1782 24.0131 13.1458C23.3089 13.1203 22.6048 13.0845 21.9015 13.0828C18.447 13.0759 14.9924 13.0793 11.5386 13.0793C11.399 13.0793 11.2602 13.0793 11.2365 13.0793C10.8607 13.6786 10.6009 14.2616 10.1964 14.7125C8.22789 16.9099 4.69797 16.1777 3.72388 13.3828C3.61725 13.0759 3.47169 12.9711 3.16363 12.9532C2.589 12.9208 2.00759 12.8893 1.44565 12.7742C0.755913 12.6327 0.388619 12.1946 0.193124 11.4624C-0.293498 9.63573 0.202434 8.01451 1.05212 6.4521C1.40418 5.80514 2.0059 5.42243 2.73625 5.28519C5.33608 4.79678 7.94015 4.32541 10.5357 3.81654C10.9369 3.73813 11.338 3.54549 11.6859 3.32131C13.359 2.24305 15.0169 1.12985 16.894 0.43942C17.5676 0.191378 18.3107 0.0405067 19.0267 0.0226068C22.8206 -0.0711549 26.6078 0.112959 30.3899 0.414701C32.1858 0.557901 33.9808 0.712181 35.7766 0.8622C36.3072 0.906523 36.6212 1.22787 36.4317 1.60036C36.3225 1.81431 36.0254 1.93023 35.7935 2.10582C36.3157 2.46467 36.925 2.88575 37.5378 3.30341C38.0794 3.67334 38.4171 4.1754 38.511 4.83087C38.5652 5.20933 38.6066 5.59034 38.6498 5.97136C38.7573 6.91579 38.8436 7.86193 38.9722 8.80381C39.117 9.86502 38.709 10.7276 38.043 11.4811C37.5809 12.0028 36.925 12.1 36.2379 12.0872ZM28.4857 12.1162C28.5509 10.7174 29.0477 9.68688 30.0396 8.92996C32.0791 7.37352 34.9557 8.18754 35.9374 10.5989C36.0398 10.8512 36.1583 10.9365 36.4249 10.9313C37.195 10.9152 37.9719 10.0807 37.8949 9.23853C37.7663 7.82613 37.6063 6.41545 37.4057 5.01158C37.366 4.73029 37.14 4.4081 36.9047 4.23591C36.039 3.6026 35.1021 3.0656 34.2524 2.41268C33.5432 1.86715 32.7799 1.61826 31.9099 1.61911C31.7271 1.61911 31.5434 1.60974 31.3606 1.59525C27.2975 1.25685 23.2294 1.05569 19.1511 1.09405C18.3725 1.10172 17.6201 1.20741 16.9456 1.57905C15.4164 2.42376 13.8981 3.28977 12.4061 4.19926C11.9017 4.50697 11.3947 4.7499 10.8235 4.85815C8.26512 5.3423 5.70676 5.82645 3.14586 6.29611C2.65755 6.38561 2.23778 6.59189 2.00928 7.01978C1.29501 8.35972 0.876087 9.76444 1.32463 11.2962C1.3644 11.4325 1.50235 11.6201 1.61829 11.6397C2.23524 11.7428 2.85981 11.7999 3.47846 11.8724C3.82459 9.33655 5.71861 8.26852 7.23095 8.23272C8.04255 8.21397 8.79237 8.42365 9.46941 8.87626C10.5476 9.59738 11.0977 10.6415 11.2348 11.9355C14.1359 11.9355 16.9972 11.9116 19.8586 11.9423C22.7275 11.9721 25.5948 12.0556 28.4857 12.1162ZM32.366 9.36979C30.9189 9.36979 29.679 10.5657 29.6917 11.9951C29.7061 13.5848 30.8799 14.6886 32.3499 14.7244C33.7904 14.7585 35.0293 13.5047 35.0251 12.0539C35.0217 10.5776 33.8251 9.37064 32.366 9.36979ZM4.70898 12.0778C4.70728 13.572 5.8701 14.7509 7.34858 14.7534C8.82284 14.756 10.0187 13.5695 10.0263 12.0965C10.0347 10.6296 8.83807 9.42349 7.36635 9.41752C5.88702 9.41156 4.71067 10.5887 4.70898 12.0778Z" fill="#F7941D"/>
<path id="Vector_2" d="M24.1028 3.90477C27.1858 3.74623 30.2681 3.58684 33.3511 3.42744C33.4214 3.42403 33.4925 3.42062 33.5627 3.42233C33.919 3.43 34.1627 3.59792 34.2186 3.95847C34.266 4.26107 33.9723 4.55173 33.5966 4.57815C32.9779 4.62162 32.3576 4.64208 31.7389 4.67277C28.4587 4.83728 25.1793 5.00264 21.899 5.16629C19.4778 5.28733 17.0565 5.41519 14.6344 5.51066C14.4118 5.51918 14.1173 5.36746 13.976 5.19187C13.8888 5.08361 13.9658 4.74096 14.0826 4.59435C14.1926 4.45626 14.4473 4.38381 14.6437 4.37273C16.3888 4.27215 18.1347 4.18947 19.8806 4.10423C21.2871 4.03519 22.6954 3.97041 24.1028 3.90477Z" fill="#F7941D"/>
</g>
</g>
<defs>
<clipPath id="clip0_387_4380">
<rect width="39" height="16" fill="white"/>
</clipPath>
</defs>
</svg>
