<?xml version="1.0" encoding="utf-8"?>
<!-- Generator: Adobe Illustrator 23.0.5, SVG Export Plug-In . SVG Version: 6.00 Build 0)  -->
<svg version="1.1" id="Layer_1" xmlns="http://www.w3.org/2000/svg" xmlns:xlink="http://www.w3.org/1999/xlink" x="0px" y="0px"
	 viewBox="0 0 20 20" style="enable-background:new 0 0 20 20;" xml:space="preserve">
<style type="text/css">
	.st0{fill:#F7C6D0;}
	.st1{fill:#EF3C51;}
</style>
<g>
	<polygon class="st0" points="7.8,4.3 7.7,7.1 6.3,7.4 5.9,9 5.7,9.6 4.3,9.6 4.3,11 7.6,11 7.6,14.3 15,14.3 15,4.3 	"/>
	<polygon class="st0" points="19.8,19.7 14.9,19.7 14.9,7.5 19.8,9.1 	"/>
	<rect x="6.6" y="14.2" class="st0" width="8.5" height="5.4"/>
	<path class="st0" d="M1.5,3.7L1.3,18c0,0-1.3,0.7-1.1,1.2s0,0.6,1,0.6c1-0.1,4.1-0.2,4.1-0.2s0.3-1.3-0.8-1.2L4.1,8.5L4,3.7H1.5z"
		/>
	<polygon class="st0" points="18.6,8.5 17.2,7.8 17.1,6.2 18.6,6.6 	"/>
</g>
<g>
	<path class="st1" d="M20,20c-4.6,0-9.1,0-13.7,0c0-2,0-4,0-6c0.3,0,0.6,0,1,0c0-0.9,0-1.8,0-2.7c-0.9,0-1.9,0-2.8,0
		c0.1,2.2,0.1,4.4,0.2,6.6C4.8,18,4.9,18,5,18.1c0.4,0.1,0.6,0.5,0.6,0.9c0,0.3,0,0.7,0,1c-1.9,0-3.8,0-5.6,0c0-0.4-0.1-0.8,0-1.2
		C0.1,18.3,0.5,18,1,18c0.1-4.9,0.2-9.8,0.3-14.6c1,0,2,0,3,0c0,2,0.1,4,0.1,6c0.4,0,0.8,0,1.2,0c0-0.4,0-0.8,0-1.2
		c0-0.1,0-0.3,0-0.4C5.8,7.3,6.2,7,6.6,7C6.8,7,7,7,7.3,7c0-1,0-2,0-3c2.7,0,5.3,0,8,0c0,0.1,0,0.1,0,0.2c0,0.9,0,1.8,0,2.7
		c0,0.1,0,0.2,0.2,0.3c0.4,0.1,0.8,0.3,1.2,0.4c0-0.7,0-1.4,0-2.1c0.2,0.1,0.4,0.2,0.6,0.2c0.5,0.2,1.1,0.4,1.6,0.6
		C19,6.4,19,6.5,19,6.6c0,0.5,0,1.1,0,1.6c0,0.1,0,0.2,0.2,0.2c0.2,0.1,0.4,0.2,0.6,0.2C20,8.7,20,8.8,20,9c0,2.2,0,4.3,0,6.5
		c0,1.4,0,2.9,0,4.3C20,19.8,20,19.9,20,20z M19.3,19.3c0-0.1,0-0.1,0-0.2c0-3.2,0-6.5,0-9.7c0-0.2-0.1-0.2-0.2-0.3
		C18.1,8.7,17,8.4,16,8c-0.2-0.1-0.4-0.2-0.7-0.2c0,3.9,0,7.7,0,11.5c0.3,0,0.7,0,1,0c0-2.6,0-5.1,0-7.6c0.2,0,0.4,0,0.7,0
		c0,0.3,0,0.7,0,1c0.2,0,0.4,0,0.7,0c0-0.3,0-0.6,0-1c0.2,0,0.4,0,0.7,0c0,2.6,0,5.1,0,7.6C18.7,19.3,19,19.3,19.3,19.3z M8,9.3
		c0.3,0,0.7,0,1,0c1.1,0,2,0.9,2,2c0,0.8,0,1.6,0,2.4c0,0.1,0,0.1,0,0.2c1.2,0,2.4,0,3.7,0c0-3.1,0-6.2,0-9.3c-2.2,0-4.4,0-6.6,0
		C8,6.2,8,7.8,8,9.3z M14.6,19.3c0-1.6,0-3.1,0-4.6c-2.6,0-5.1,0-7.6,0c0,1.6,0,3.1,0,4.6c0.6,0,1.1,0,1.7,0c0-1,0-2,0-3
		c1.5,0,2.9,0,4.3,0c0,1,0,2,0,3C13.6,19.3,14.1,19.3,14.6,19.3z M3.9,14.7c-0.7,0-1.4,0-2.2,0c0,1.1,0,2.2-0.1,3.3
		c0.8,0,1.5,0,2.3,0C4,16.9,3.9,15.8,3.9,14.7z M9.3,17c0,0.8,0,1.5,0,2.3c1,0,2,0,3,0c0-0.8,0-1.5,0-2.3C11.3,17,10.3,17,9.3,17z
		 M1.8,14c0.7,0,1.4,0,2.1,0c0-1.1,0-2.2-0.1-3.3c-0.7,0-1.3,0-2,0C1.8,11.8,1.8,12.9,1.8,14z M1.9,6.7c0,1.1,0,2.2-0.1,3.3
		c0.7,0,1.3,0,1.9,0c0-1.1,0-2.2-0.1-3.3C3.1,6.7,2.5,6.7,1.9,6.7z M10.3,14c0-0.1,0-0.2,0-0.2c0-0.8,0-1.6,0-2.3
		c0-0.9-0.6-1.4-1.4-1.4c-1.4,0-2.8,0-4.2,0c-0.1,0-0.1,0-0.2,0c0,0.2,0,0.4,0,0.7c0.1,0,0.2,0,0.2,0c1.3,0,2.6,0,3.9,0
		c0.6,0,1,0.4,1,1c0,0.7,0,1.4,0,2.1c0,0.1,0,0.1,0,0.2C9.9,14,10.1,14,10.3,14z M3.7,4C3.1,4,2.5,4,2,4c0,0.7,0,1.3,0,2
		c0.6,0,1.1,0,1.7,0C3.7,5.3,3.7,4.7,3.7,4z M0.7,19.3c1.5,0,2.9,0,4.3,0v-0.1c0-0.4-0.1-0.5-0.5-0.5c-0.5,0-1,0-1.5,0
		c-0.6,0-1.3,0-1.9,0c-0.3,0-0.4,0.1-0.4,0.4C0.7,19.2,0.7,19.2,0.7,19.3z M9,14c0-0.8,0-1.6,0-2.3c0-0.2-0.1-0.3-0.3-0.3
		s-0.5,0-0.7,0c0,0.9,0,1.8,0,2.7C8.3,14,8.6,14,9,14z M7.3,9.3c0-0.6,0-1.1,0-1.7c-0.2,0-0.4,0-0.6,0C6.5,7.7,6.3,7.8,6.3,8
		c0,0.4,0,0.9,0,1.4C6.7,9.3,7,9.3,7.3,9.3z M18.3,8.2c0-0.4,0-0.8,0-1.2c0,0,0-0.1-0.1-0.1c-0.3-0.1-0.6-0.2-0.9-0.4
		c0,0.4,0,0.8,0,1.2c0,0.1,0,0.1,0.1,0.1C17.7,8,18,8.1,18.3,8.2z M17.6,14.3c0-0.3,0-0.7,0-1c-0.2,0-0.4,0-0.6,0c0,0.3,0,0.7,0,1
		C17.2,14.3,17.4,14.3,17.6,14.3z M17.7,15c-0.2,0-0.4,0-0.6,0c0,0.3,0,0.7,0,1c0.2,0,0.4,0,0.6,0C17.7,15.7,17.7,15.3,17.7,15z
		 M17,16.7c0,0.3,0,0.7,0,1c0.2,0,0.4,0,0.6,0c0-0.3,0-0.7,0-1C17.4,16.7,17.2,16.7,17,16.7z M17.6,19.3c0-0.3,0-0.7,0-1
		c-0.2,0-0.4,0-0.6,0c0,0.3,0,0.6,0,1C17.2,19.3,17.4,19.3,17.6,19.3z"/>
	<path class="st1" d="M3.3,2.7c-0.2,0-0.4,0-0.6,0c0-0.5-0.1-1.1,0-1.6C2.8,0.4,3.4,0,4,0c0.2,0,0.5,0,0.7,0c0.6,0.1,1,0.6,1,1.2
		C5.7,1.7,5.9,2,6.4,2c0.1,0,0.2,0,0.2,0C7,2,7.3,1.7,7.3,1.3C7.4,0.5,7.9,0,8.7,0c0.2,0,0.4,0,0.6,0c0.6,0.1,1,0.6,1,1.2
		c0,0.4,0.3,0.7,0.7,0.7c0.1,0,0.2,0,0.3,0C11.7,2,12,1.7,12,1.3C12,0.6,12.6,0,13.4,0c0.2,0,0.4,0,0.6,0c0.6,0.1,1,0.6,1,1.3
		C15,1.7,15.3,2,15.7,2c0.1,0,0.2,0,0.3,0c0.4,0,0.7-0.3,0.7-0.7c0-0.7,0.7-1.4,1.4-1.3c0.2,0,0.4,0,0.6,0c0,0.2,0,0.4,0,0.7
		c-0.2,0-0.4,0-0.6,0c-0.5,0-0.7,0.3-0.7,0.7c0,0.7-0.6,1.3-1.3,1.3c-0.4,0-0.7,0-1-0.2c-0.4-0.3-0.6-0.6-0.6-1.1s-0.3-0.7-0.7-0.7
		c-0.1,0-0.2,0-0.2,0c-0.4,0-0.7,0.3-0.7,0.7c0,0.8-0.6,1.3-1.4,1.3c-0.2,0-0.4,0-0.6,0c-0.6-0.1-1-0.6-1-1.2c0-0.4-0.3-0.7-0.7-0.7
		c-0.1,0-0.2,0-0.3,0C8.3,0.7,8,1,8,1.3C8,2,7.4,2.7,6.6,2.6c-0.5,0-1-0.1-1.3-0.6C5.1,1.9,5,1.6,5,1.4c0-0.5-0.3-0.7-0.7-0.7
		c-0.1,0-0.1,0-0.2,0C3.6,0.7,3.3,1,3.3,1.4S3.3,2.2,3.3,2.7z"/>
	<path class="st1" d="M20,0.7c-0.2,0-0.4,0-0.6,0c0-0.2,0-0.4,0-0.6c0.2,0,0.4,0,0.6,0C20,0.2,20,0.4,20,0.7z"/>
	<path class="st1" d="M11,5.7c0,1,0,2,0,3c-0.8,0-1.5,0-2.3,0c0-1,0-2,0-3C9.4,5.7,10.2,5.7,11,5.7z M10.3,8c0-0.6,0-1.1,0-1.6
		c-0.3,0-0.7,0-1,0c0,0.6,0,1.1,0,1.6C9.7,8,10,8,10.3,8z"/>
	<path class="st1" d="M14,8.7c-0.8,0-1.5,0-2.3,0c0-1,0-2,0-3c0.8,0,1.5,0,2.3,0C14,6.7,14,7.7,14,8.7z M12.3,6.3c0,0.6,0,1.1,0,1.6
		c0.3,0,0.7,0,1,0c0-0.6,0-1.1,0-1.6C13,6.3,12.7,6.3,12.3,6.3z"/>
	<path class="st1" d="M11.7,12.3c0-1,0-2,0-3c0.8,0,1.5,0,2.3,0c0,1,0,2,0,3C13.2,12.3,12.4,12.3,11.7,12.3z M13.3,10
		c-0.3,0-0.7,0-1,0c0,0.6,0,1.1,0,1.6c0.3,0,0.7,0,1,0C13.3,11.1,13.3,10.6,13.3,10z"/>
</g>
</svg>
