<?xml version="1.0" encoding="utf-8"?>
<!-- Generator: Adobe Illustrator 23.0.5, SVG Export Plug-In . SVG Version: 6.00 Build 0)  -->
<svg version="1.1" id="Layer_1" xmlns="http://www.w3.org/2000/svg" xmlns:xlink="http://www.w3.org/1999/xlink" x="0px" y="0px"
	 viewBox="0 0 39 16" style="enable-background:new 0 0 39 16;" xml:space="preserve">
<style type="text/css">
	.st0{fill:#F4D0AE;}
	.st1{fill:#F7941D;}
	.st2{clip-path:url(#SVGID_2_);fill:#F7941D;}
</style>
<path class="st0" d="M3.8,12.4l-2.2-0.3l-1.1-1.9l1-3.4l1.4-0.9c0,0,2.7-0.6,3-0.7c0.3-0.1,3.7-0.5,3.7-0.5l3.3-1.4L16.9,1l4.5-0.7
	L28,0.8l6.4,0.7c0,0,1.6,1.3,1.8,1.4c0.1,0.1,1.4,1.4,1.4,1.4l0.7,2.9v1.9L37.6,11l-1.9,0.9l-1.5,2.6l-2.4,1L29.3,13l-3.1-0.5
	l-15-0.2l-0.8,1.1l-2.2,2.1l-3.1-0.9L3.8,12.4z"/>
<g>
	<g>
		<path id="Vector" class="st1" d="M36.2,12.1c-0.2,1.7-1,2.9-2.5,3.6c-1.9,0.8-4.1-0.2-4.9-2.1c-0.1-0.3-0.3-0.4-0.6-0.4
			c-0.5,0-1,0.1-1.6,0.1c-0.9,0-1.8-0.1-2.7-0.1c-0.7,0-1.4-0.1-2.1-0.1c-3.5,0-6.9,0-10.4,0c-0.1,0-0.3,0-0.3,0
			c-0.4,0.6-0.6,1.2-1,1.6c-2,2.2-5.5,1.5-6.5-1.3c0-0.3-0.1-0.4-0.4-0.4c-0.6,0-1.2-0.1-1.7-0.2c-0.7-0.1-1.1-0.6-1.3-1.3
			c-0.5-1.8,0-3.4,0.9-5c0.4-0.6,1-1,1.7-1.2c2.6-0.5,5.2-1,7.8-1.5c0.4-0.1,0.8-0.3,1.2-0.5c1.7-1.1,3.3-2.2,5.2-2.9
			C17.6,0.2,18.3,0,19,0c3.8-0.1,7.6,0.1,11.4,0.4c1.8,0.1,3.6,0.3,5.4,0.4c0.5,0,0.8,0.4,0.7,0.7c-0.1,0.2-0.4,0.3-0.6,0.5
			c0.5,0.4,1.1,0.8,1.7,1.2c0.5,0.4,0.9,0.9,1,1.5c0.1,0.4,0.1,0.8,0.1,1.1c0.1,0.9,0.2,1.9,0.3,2.8c0.1,1.1-0.3,1.9-0.9,2.7
			C37.6,12,36.9,12.1,36.2,12.1z M28.5,12.1c0.1-1.4,0.6-2.4,1.6-3.2c2-1.6,4.9-0.7,5.9,1.7c0.1,0.3,0.2,0.3,0.5,0.3
			c0.8,0,1.5-0.9,1.5-1.7c-0.1-1.4-0.3-2.8-0.5-4.2c0-0.3-0.3-0.6-0.5-0.8c-0.9-0.6-1.8-1.2-2.7-1.8c-0.7-0.5-1.5-0.8-2.3-0.8
			c-0.2,0-0.4,0-0.5,0c-4.1-0.3-8.1-0.5-12.2-0.5c-0.8,0-1.5,0.1-2.2,0.5c-1.5,0.8-3,1.7-4.5,2.6c-0.5,0.3-1,0.6-1.6,0.7
			c-2.6,0.5-5.1,1-7.7,1.4C2.7,6.4,2.2,6.6,2,7c-0.7,1.3-1.1,2.7-0.7,4.3c0,0.1,0.2,0.3,0.3,0.3c0.6,0.1,1.2,0.2,1.9,0.2
			c0.3-2.5,2.2-3.6,3.8-3.6c0.8,0,1.6,0.2,2.2,0.6c1.1,0.7,1.6,1.8,1.8,3.1c2.9,0,5.8,0,8.6,0C22.7,12,25.6,12.1,28.5,12.1z
			 M32.4,9.4c-1.4,0-2.7,1.2-2.7,2.6c0,1.6,1.2,2.7,2.7,2.7c1.4,0,2.7-1.2,2.7-2.7C35,10.6,33.8,9.4,32.4,9.4z M4.7,12.1
			c0,1.5,1.2,2.7,2.6,2.7c1.5,0,2.7-1.2,2.7-2.7S8.8,9.4,7.3,9.4C5.9,9.4,4.7,10.6,4.7,12.1z"/>
	</g>
	<g>
		<defs>
			<rect id="SVGID_1_" y="0" width="39" height="16"/>
		</defs>
		<clipPath id="SVGID_2_">
			<use xlink:href="#SVGID_1_"  style="overflow:visible;"/>
		</clipPath>
		<path id="Vector_2" class="st2" d="M24.1,3.9c3.1-0.2,6.2-0.3,9.2-0.5c0.1,0,0.1,0,0.2,0c0.4,0,0.6,0.2,0.7,0.5
			c0,0.3-0.2,0.6-0.6,0.6c-0.6,0-1.2,0.1-1.9,0.1c-3.3,0.2-6.6,0.3-9.8,0.5c-2.4,0.1-4.8,0.2-7.3,0.3c-0.2,0-0.5-0.1-0.7-0.3
			c-0.1-0.1,0-0.5,0.1-0.6s0.4-0.2,0.6-0.2c1.7-0.1,3.5-0.2,5.2-0.3C21.3,4,22.7,4,24.1,3.9z"/>
	</g>
</g>
</svg>
