<?xml version="1.0" encoding="utf-8"?>
<!-- Generator: Adobe Illustrator 23.0.5, SVG Export Plug-In . SVG Version: 6.00 Build 0)  -->
<svg version="1.1" id="Layer_1" xmlns="http://www.w3.org/2000/svg" xmlns:xlink="http://www.w3.org/1999/xlink" x="0px" y="0px"
	 viewBox="0 0 24 21.3" style="enable-background:new 0 0 24 21.3;" xml:space="preserve">
<style type="text/css">
	.st0{fill:#FCDEDE;}
	.st1{fill:none;}
	.st2{fill:#D17171;}
</style>
<path class="st0" d="M0.6,3c0,0,0.5-2.5,4-2.3s6.5,0.2,6.9,2.1C11.8,4.7,12,4.4,12,4.4s-0.2-3.2,3.4-3.5s7.6-0.1,7.7,2
	s0,12.1,0,12.1s-0.5,2.9-3.4,2.7s-6.1-0.2-6.8,0.8s-0.8,1.6-0.8,1.6s-1.2-2.6-3.9-2.7s-5.5,0-5.5,0s-2-0.2-2-4.1S0.6,3,0.6,3z"/>
<rect y="0.3" class="st1" width="24" height="20.9"/>
<g id="Frame">
	<g id="Group">
		<path id="Vector" class="st2" d="M12,1.7c0.5-0.4,1-0.8,1.6-1c0.3-0.3,0.8-0.4,1.3-0.4c2.1,0,4.3,0,6.4,0C22.8,0.3,24,1.5,24,3
			c0,4.1,0,8.3,0,12.4c0,1.5-1.2,2.7-2.7,2.7c-2,0-4.1,0-6.1,0c-1.2,0-2.1,0.7-2.3,1.9c0,0.1,0,0.3,0,0.4c0,0.4-0.4,0.8-0.8,0.8
			c-0.4,0-0.8-0.3-0.8-0.8c0-1.1-0.9-2.3-2.5-2.3c-1.9,0-3.8,0-5.7,0c-1.6,0-3-1.1-3-3c0-4,0-8,0-12c0-1.4,0.9-2.6,2.2-2.9
			c0.2,0,0.3,0,0.5,0c2.2,0,4.3,0,6.5,0c0.9,0,1.7,0.4,2.3,1C11.7,1.4,11.9,1.6,12,1.7z M12.8,17.3c0.1,0,0.2,0,0.2-0.1
			c0.7-0.4,1.4-0.6,2.2-0.6c1.9,0,3.9,0,5.8,0c0.9,0,1.5-0.5,1.5-1.5c0-4,0-8,0-11.9c0-0.9-0.5-1.4-1.4-1.4c-2,0-3.9,0-5.9,0
			c-1.4,0-2.4,1-2.4,2.4c0,4.3,0,8.5,0,12.8C12.8,17.1,12.8,17.2,12.8,17.3z M11.2,17.2c0-0.1,0-0.2,0-0.3c0-4.3,0-8.5,0-12.8
			c0-1.3-1-2.4-2.3-2.4c-2,0-3.9,0-5.9,0c-0.2,0-0.5,0.1-0.7,0.2C1.7,2.2,1.6,2.7,1.6,3.3c0,3.9,0,7.9,0,11.8c0,1.1,0.5,1.6,1.6,1.6
			c1.9,0,3.9,0,5.8,0c0.2,0,0.5,0,0.7,0.1C10.2,16.9,10.7,17,11.2,17.2z"/>
		<path id="Vector_2" class="st2" d="M17.6,8.5c0.8,0,1.6,0,2.4,0c0.3,0,0.7,0.1,0.8,0.4c0.2,0.5,0,1-0.5,1.1
			c-0.2,0-0.4,0.1-0.7,0.1c-1.4,0-2.8,0-4.1,0c-0.2,0-0.3,0-0.5,0c-0.5-0.1-0.7-0.3-0.7-0.8c0-0.4,0.3-0.7,0.8-0.7
			c0.4,0,0.8,0,1.3,0C16.8,8.5,17.2,8.5,17.6,8.5z"/>
		<path id="Vector_3" class="st2" d="M17.6,5.9c-0.8,0-1.6,0-2.4,0c-0.5,0-0.8-0.3-0.8-0.7c0-0.5,0.3-0.8,0.8-0.8c1.7,0,3.3,0,5,0
			c0.4,0,0.7,0.2,0.8,0.5c0.1,0.3,0,0.6-0.3,0.8c-0.1,0.1-0.3,0.1-0.5,0.1C19.3,5.9,18.5,5.9,17.6,5.9z"/>
		<path id="Vector_4" class="st2" d="M17.6,14.1c-0.8,0-1.6,0-2.4,0c-0.5,0-0.8-0.3-0.8-0.7s0.3-0.7,0.7-0.7c1.7,0,3.5,0,5.2,0
			c0.4,0,0.6,0.2,0.7,0.6c0,0.3-0.1,0.7-0.5,0.8c-0.1,0-0.3,0.1-0.5,0.1C19.2,14.1,18.4,14.1,17.6,14.1L17.6,14.1z"/>
		<path id="Vector_5" class="st2" d="M6.4,8.5c0.7,0,1.5,0,2.2,0c0.2,0,0.3,0,0.5,0.1C9.5,8.7,9.7,9,9.7,9.3c0,0.4-0.2,0.6-0.6,0.7
			c-0.2,0-0.4,0-0.6,0c-1.4,0-2.8,0-4.1,0c-0.2,0-0.5,0-0.7-0.1c-0.4,0-0.6-0.3-0.6-0.6c0-0.4,0.2-0.7,0.5-0.7
			c0.2,0,0.3-0.1,0.5-0.1C4.9,8.4,5.7,8.5,6.4,8.5z"/>
		<path id="Vector_6" class="st2" d="M6.4,5.9c-0.8,0-1.7,0-2.5,0c-0.5,0-0.8-0.3-0.8-0.7c0-0.4,0.3-0.7,0.8-0.8c1.7,0,3.3,0,5,0
			c0.5,0,0.8,0.3,0.8,0.7c0,0.5-0.3,0.7-0.8,0.7C8.1,5.9,7.2,5.9,6.4,5.9z"/>
		<path id="Vector_7" class="st2" d="M6.4,12.6c0.8,0,1.6,0,2.4,0c0.5,0,0.8,0.2,0.8,0.7c0,0.4-0.3,0.8-0.8,0.8c-1.7,0-3.3,0-5,0
			c-0.3,0-0.6-0.1-0.7-0.5C3,13.3,3,13,3.2,12.8c0.2-0.1,0.4-0.2,0.6-0.3C4.7,12.6,5.6,12.6,6.4,12.6z"/>
	</g>
</g>
</svg>
