<svg width="24" height="21" viewBox="0 0 24 21" fill="none" xmlns="http://www.w3.org/2000/svg">
<g id="Frame" clip-path="url(#clip0_387_4384)">
<g id="Group">
<path id="Vector" d="M11.9753 1.39859C12.5012 1.0366 12.9835 0.62615 13.534 0.352117C13.9474 0.146294 14.4464 0.0296202 14.9101 0.0224403C17.0431 -0.0110659 19.1768 0.000302295 21.3098 0.00987549C22.7787 0.0164571 23.9915 1.23225 23.9939 2.70653C24.001 6.85351 24.001 11.0005 23.9933 15.1475C23.9903 16.6068 22.7643 17.8298 21.2984 17.8388C19.2551 17.8513 17.2113 17.8382 15.1674 17.8453C13.9953 17.8495 13.0643 18.5944 12.8369 19.6954C12.807 19.8402 12.81 19.9921 12.7998 20.1405C12.7705 20.5869 12.4241 20.9291 12.01 20.9201C11.6044 20.9112 11.2412 20.5761 11.2549 20.1459C11.2908 19.0198 10.3407 17.828 8.79462 17.8394C6.88058 17.8537 4.96534 17.8029 3.0531 17.8549C1.44301 17.8986 0.0148055 16.7797 0.00882225 14.8848C-0.00434089 10.8976 -0.00434089 6.90976 0.00942058 2.92192C0.0148055 1.47338 0.892548 0.365879 2.21903 0.0613314C2.38238 0.023637 2.55469 0.0128671 2.72282 0.0128671C4.89594 0.00987549 7.06965 -0.00209101 9.24217 0.018252C10.1373 0.0266286 10.8947 0.422121 11.5553 1.01087C11.7109 1.14968 11.8622 1.29388 11.9753 1.39859ZM12.8196 17.0358C12.9261 16.9832 12.9721 16.9646 13.0128 16.9389C13.6901 16.5135 14.4225 16.3262 15.2266 16.3334C17.1598 16.3513 19.0936 16.3423 21.0274 16.3376C21.9709 16.3352 22.4927 15.8098 22.4933 14.8711C22.4945 10.894 22.4945 6.91753 22.4933 2.94047C22.4933 2.05196 21.9667 1.51347 21.0878 1.51107C19.1145 1.50688 17.1407 1.50329 15.1674 1.51227C13.7811 1.51825 12.8028 2.51207 12.8016 3.90138C12.7992 8.15726 12.8004 12.4131 12.801 16.669C12.8016 16.7749 12.8112 16.8802 12.8196 17.0358ZM11.246 16.9467C11.246 16.8689 11.246 16.754 11.246 16.6391C11.246 12.3832 11.2466 8.12675 11.2454 3.87086C11.2454 2.52583 10.2623 1.51885 8.9107 1.50988C6.93742 1.49731 4.96355 1.5015 2.99027 1.51347C2.74795 1.51466 2.48768 1.56672 2.26869 1.66783C1.72362 1.91973 1.5507 2.40497 1.5507 2.97278C1.5507 6.90018 1.5507 10.827 1.5507 14.7544C1.5507 15.8523 2.03834 16.3388 3.14105 16.3394C5.07484 16.34 7.00862 16.3382 8.94241 16.3417C9.17037 16.3423 9.4103 16.331 9.6245 16.3938C10.1534 16.5506 10.6704 16.7474 11.246 16.9467Z" fill="#E29292"/>
<path id="Vector_2" d="M17.6317 8.15393C18.4293 8.15453 19.2275 8.14914 20.025 8.15692C20.3655 8.15991 20.6814 8.23171 20.8537 8.58053C21.0793 9.03646 20.8357 9.54683 20.3361 9.63478C20.1213 9.67248 19.9006 9.69402 19.6828 9.69461C18.3066 9.7 16.9305 9.6988 15.5543 9.69521C15.3856 9.69461 15.2157 9.67906 15.0488 9.65453C14.5557 9.58093 14.3469 9.344 14.3589 8.88628C14.3703 8.47762 14.6604 8.18504 15.1188 8.1623C15.5364 8.14136 15.9564 8.15453 16.3752 8.15393C16.7941 8.15273 17.2129 8.15333 17.6317 8.15393Z" fill="#E29292"/>
<path id="Vector_3" d="M17.6257 5.57322C16.8095 5.57322 15.9934 5.57562 15.1773 5.57262C14.6454 5.57023 14.363 5.31235 14.3594 4.83668C14.3564 4.38435 14.6687 4.08638 15.1761 4.08519C16.8281 4.0804 18.4807 4.0816 20.1326 4.08519C20.5221 4.08638 20.7986 4.29101 20.9039 4.62847C20.9954 4.92224 20.8925 5.25551 20.6071 5.4374C20.4743 5.52236 20.293 5.56544 20.1332 5.56784C19.298 5.5798 18.4615 5.57322 17.6257 5.57322Z" fill="#E29292"/>
<path id="Vector_4" d="M17.6351 13.7664C16.819 13.7664 16.0023 13.7742 15.1862 13.7634C14.677 13.7569 14.3575 13.4547 14.3599 13.0149C14.3617 12.5829 14.6249 12.2838 15.0557 12.2814C16.7879 12.273 18.52 12.2736 20.2522 12.282C20.6357 12.2838 20.875 12.5297 20.9265 12.912C20.9732 13.2531 20.7877 13.5821 20.4616 13.6928C20.3144 13.7425 20.1505 13.7622 19.9937 13.7634C19.2075 13.77 18.4207 13.7664 17.6345 13.7664C17.6351 13.767 17.6351 13.7664 17.6351 13.7664Z" fill="#E29292"/>
<path id="Vector_5" d="M6.41316 8.15332C7.16047 8.15332 7.90778 8.15033 8.65508 8.15571C8.81304 8.15691 8.97459 8.17067 9.12776 8.20717C9.51009 8.29752 9.70215 8.55958 9.68779 8.94251C9.67343 9.33681 9.45205 9.5881 9.05417 9.64674C8.86749 9.67426 8.67842 9.6946 8.48995 9.6952C7.115 9.69939 5.73945 9.70059 4.3645 9.6946C4.13654 9.69341 3.90618 9.66947 3.68241 9.62879C3.33777 9.56596 3.12597 9.3027 3.1134 8.95687C3.10024 8.59967 3.30187 8.30171 3.63873 8.21615C3.80088 8.17486 3.97259 8.15751 4.14013 8.15631C4.8988 8.14973 5.65628 8.15332 6.41316 8.15332Z" fill="#E29292"/>
<path id="Vector_6" d="M6.39527 5.57403C5.56898 5.57403 4.7427 5.57702 3.91701 5.57283C3.44553 5.57104 3.11884 5.2653 3.11525 4.8369C3.11226 4.41328 3.44493 4.08779 3.91342 4.086C5.57557 4.08061 7.23771 4.08061 8.89986 4.0866C9.3851 4.08839 9.69084 4.39234 9.68905 4.8351C9.68666 5.30179 9.40843 5.56924 8.90345 5.57283C8.06759 5.57762 7.23173 5.57403 6.39527 5.57403Z" fill="#E29292"/>
<path id="Vector_7" d="M6.43323 12.2765C7.23977 12.2765 8.04571 12.2741 8.85225 12.2771C9.39613 12.2789 9.67854 12.5242 9.68931 12.9939C9.69948 13.4397 9.38716 13.7598 8.88516 13.7628C7.23259 13.773 5.58061 13.7694 3.92804 13.7646C3.59777 13.7634 3.32553 13.6353 3.18253 13.3128C3.05867 13.0322 3.06765 12.7402 3.29441 12.5398C3.44998 12.4022 3.68931 12.2957 3.89513 12.2891C4.74057 12.261 5.58719 12.2771 6.43323 12.2765Z" fill="#E29292"/>
</g>
</g>
<defs>
<clipPath id="clip0_387_4384">
<rect width="24" height="20.9216" fill="white"/>
</clipPath>
</defs>
</svg>
