<svg width="27" height="14" viewBox="0 0 27 14" fill="none" xmlns="http://www.w3.org/2000/svg">
<g id="Frame" clip-path="url(#clip0_1225_834)">
<g id="Group">
<path id="Vector" d="M0.996094 7.26242C1.7749 6.53152 2.52097 5.79385 3.31287 5.10355C4.99482 3.63497 6.83384 2.40326 8.90191 1.58438C12.1742 0.284996 15.4399 0.291763 18.6991 1.61145C21.7358 2.84316 24.2096 4.90052 26.5002 7.26919C26.4675 7.32333 26.4479 7.37747 26.4151 7.41131C24.4518 9.4416 22.3313 11.2418 19.8051 12.487C15.237 14.7407 10.7867 14.382 6.45425 11.7832C4.60869 10.6868 2.2461 8.72423 0.996094 7.26242ZM13.7253 3.20861C11.5263 3.24922 9.78543 5.08325 9.81161 7.3301C9.83779 9.61079 11.6375 11.4313 13.8234 11.3839C16.0224 11.3365 17.7567 9.48897 17.7174 7.24212C17.6782 4.97496 15.8915 3.16801 13.7253 3.20861ZM17.2789 11.7629C19.9818 10.8966 22.2135 9.26564 24.2947 7.30303C22.2004 5.33365 19.9753 3.70265 17.2789 2.84316C18.5551 4.0478 19.275 5.50284 19.275 7.30303C19.275 9.10322 18.5551 10.5583 17.2789 11.7629ZM10.237 2.84316C7.55374 3.70942 5.32204 5.33365 3.24088 7.30303C5.32859 9.26564 7.55374 10.8966 10.237 11.7629C7.56028 9.38069 7.60609 5.15092 10.237 2.84316Z" fill="white"/>
<path id="Vector_2" d="M16.0813 5.73315C16.8601 6.68061 16.6965 8.37929 15.7344 9.3606C14.7069 10.4096 13.0642 10.4773 11.9582 9.50948C10.8456 8.53495 10.6428 6.8295 11.5001 5.60456C12.3182 4.42699 13.9412 4.04124 15.0341 4.7383C14.7985 4.88042 14.4844 4.97517 14.3142 5.1985C14.1506 5.4083 14.0721 5.75345 14.0917 6.03092C14.1179 6.52496 14.5695 6.87688 15.0407 6.88364C15.5904 6.88364 15.898 6.55203 16.0813 5.73315Z" fill="white"/>
</g>
</g>
<defs>
<clipPath id="clip0_1225_834">
<rect width="25.5041" height="13.3593" fill="white" transform="translate(0.996094 0.623047)"/>
</clipPath>
</defs>
</svg>
