<?xml version="1.0" encoding="utf-8"?>
<!-- Generator: Adobe Illustrator 23.0.5, SVG Export Plug-In . SVG Version: 6.00 Build 0)  -->
<svg version="1.1" id="Layer_1" xmlns="http://www.w3.org/2000/svg" xmlns:xlink="http://www.w3.org/1999/xlink" x="0px" y="0px"
	 viewBox="0 0 25 20" style="enable-background:new 0 0 25 20;" xml:space="preserve">
<style type="text/css">
	.st0{fill:#B4EFD9;}
	.st1{clip-path:url(#SVGID_2_);}
	.st2{fill:#3DC29A;}
</style>
<g id="Frame_1_">
	<g id="Group_1_">
		<path id="Vector_2_1_" class="st0" d="M3.2,10.2C2.7,9.7,2.3,9.2,2,8.5C0.9,6.1,1.7,3.1,3.8,1.4C5,0.4,6.4,0,8,0
			c1.3,0.1,2.4,0.6,3.4,1.4c0.5,0.4,1,0.9,1.5,1.3C13,2.8,13,2.9,13.1,2.9c0.4-0.4,0.8-0.8,1.2-1.1c0.8-0.7,1.8-1.3,2.9-1.6
			c1.8-0.5,3.5-0.1,5.1,1c2.3,1.6,3.2,4.7,2.1,7.2c-0.4,0.9-1,1.7-1.8,2.4c-3,3-6,6-9.1,9c-0.2,0.2-0.4,0.3-0.7,0
			C10.4,17.4,8,15,5.6,12.6c0,0,0,0-0.1-0.1L3.2,10.2z"/>
	</g>
</g>
<g>
	<g>
		<defs>
			<rect id="SVGID_1_" y="0" width="24.8" height="20"/>
		</defs>
		<clipPath id="SVGID_2_">
			<use xlink:href="#SVGID_1_"  style="overflow:visible;"/>
		</clipPath>
		<g id="Frame" class="st1">
			<g id="Group">
				<path id="Vector" class="st2" d="M0,11.9c0.2,0,0.5,0,0.8,0c0,0.3,0,0.5,0,0.8c-0.2,0-0.5,0-0.8,0C0,12.4,0,12.2,0,11.9z"/>
				<path id="Vector_2" class="st2" d="M5.6,12.6c0.2-0.2,0.3-0.4,0.5-0.5c1.2,1.2,2.4,2.3,3.5,3.5c1.2,1.2,2.3,2.3,3.5,3.5
					c0.1-0.1,0.1-0.1,0.2-0.1c2.9-2.9,5.7-5.7,8.6-8.6c0.5-0.5,1-1.1,1.4-1.7c1.1-1.7,0.9-4-0.4-5.7c-1.1-1.5-2.6-2.2-4.5-2.2
					c-1.2,0-2.2,0.5-3.1,1.2c-0.6,0.5-1.2,1.1-1.8,1.6c-0.3,0.3-0.5,0.3-0.8,0c-0.7-0.7-1.4-1.4-2.2-1.9C7.2-0.6,3,1.7,2.4,5.2
					c-0.3,1.6,0.1,3,1.1,4.2c0.1,0.1,0.2,0.2,0.2,0.3C3.5,9.9,3.3,10,3.1,10.2C2.7,9.7,2.3,9.2,2,8.5C0.9,6.1,1.7,3.1,3.8,1.4
					C5,0.4,6.4,0,8,0c1.3,0.1,2.4,0.6,3.4,1.4c0.5,0.4,1,0.9,1.5,1.3C13,2.8,13,2.9,13.1,2.9c0.4-0.4,0.8-0.8,1.2-1.1
					c0.8-0.7,1.8-1.3,2.9-1.6c1.8-0.5,3.5-0.1,5.1,1c2.3,1.6,3.2,4.7,2.1,7.2c-0.4,0.9-1,1.7-1.8,2.4c-3,3-6,6-9.1,9
					c-0.2,0.2-0.4,0.3-0.7,0C10.4,17.4,8,15.1,5.6,12.6L5.6,12.6z"/>
				<path id="Vector_3" class="st2" d="M16.2,10.8c0.5-0.9,1.1-1.8,1.6-2.7c0.4-0.7,0.8-1.3,1.1-2c0.1-0.2,0.3-0.3,0.5-0.3
					c0.7,0,1.3,0,2,0c0.1,0,0.1,0,0.2,0c0,0.3,0,0.5,0,0.8c-0.5,0-1.1,0-1.6,0c-0.4,0-0.6,0.1-0.8,0.4c-0.9,1.5-1.8,3-2.6,4.6
					c-0.3,0.5-0.6,0.5-0.9,0c-0.8-1.3-1.7-2.5-2.5-3.7c0-0.1-0.1-0.1-0.2-0.2c0.1,0,0,0.1,0,0.2c-0.8,1.3-1.7,2.5-2.5,3.8
					c-0.3,0.4-0.5,0.4-0.8,0C8.8,10.4,8,9.1,7.1,7.9C7.1,7.8,7,7.8,7,7.7C6.6,8.3,6.3,8.9,6,9.5c-0.6,1-1.1,1.9-1.7,2.9
					c-0.1,0.2-0.3,0.3-0.5,0.3c-0.6,0-1.3,0-1.9,0c-0.1,0-0.2,0-0.2,0c0-0.3,0-0.5,0-0.8c0.5,0,1.1,0,1.6,0c0.4,0,0.6-0.1,0.8-0.5
					C5,9.9,5.9,8.3,6.7,6.8c0.3-0.4,0.5-0.5,0.8,0C8.2,8.1,9,9.3,9.9,10.6c0,0.1,0.1,0.1,0.2,0.2c0.1-0.1,0.1-0.1,0.2-0.2
					c0.8-1.3,1.7-2.5,2.5-3.8c0.3-0.4,0.5-0.4,0.8,0c0.8,1.2,1.7,2.5,2.5,3.7C16.1,10.6,16.1,10.7,16.2,10.8z"/>
				<path id="Vector_4" class="st2" d="M7.7,3.1c-1.6,0.1-3,1.2-3.1,3.1c-0.2,0-0.5,0-0.7,0C3.8,4.4,5.4,2.3,7.7,2.3
					C7.7,2.6,7.7,2.8,7.7,3.1z"/>
				<path id="Vector_5" class="st2" d="M22.4,6.5c0-0.3,0-0.5,0-0.7c0.2,0,0.5,0,0.7,0c0,0.2,0,0.5,0,0.7
					C22.9,6.5,22.7,6.5,22.4,6.5z"/>
			</g>
		</g>
	</g>
</g>
</svg>
