<svg width="25" height="20" viewBox="0 0 25 20" fill="none" xmlns="http://www.w3.org/2000/svg">
<g id="Frame" clip-path="url(#clip0_387_4364)">
<g id="Group">
<path id="Vector" d="M0 11.9199C0.247527 11.9199 0.494571 11.9199 0.756118 11.9199C0.756118 12.1775 0.756118 12.4135 0.756118 12.6888C0.506174 12.6888 0.252845 12.6888 0 12.6888C0 12.4322 0 12.1761 0 11.9199Z" fill="#3DC29A"/>
<path id="Vector_2" d="M5.5525 12.586C5.7338 12.3986 5.89962 12.2265 6.08285 12.0367C7.26344 13.2112 8.43532 14.3775 9.60721 15.5434C10.7796 16.7102 11.9519 17.8765 13.1374 19.0558C13.2007 19.001 13.2563 18.9587 13.3051 18.9097C16.1763 16.0556 19.0548 13.2088 21.9111 10.3398C22.423 9.82565 22.9045 9.25859 23.2903 8.64779C24.3549 6.96246 24.1881 4.63126 22.9181 2.96131C21.7931 1.48214 20.2789 0.744 18.4138 0.778601C17.2428 0.800226 16.2213 1.28127 15.3269 1.99634C14.6951 2.50141 14.1217 3.07953 13.529 3.63265C13.2229 3.91811 13.0702 3.92724 12.7762 3.6341C12.0767 2.9368 11.3771 2.24383 10.5509 1.68446C7.20445 -0.580427 2.99408 1.68013 2.40426 5.22716C2.14272 6.801 2.48017 8.21336 3.52055 9.44456C3.59839 9.53635 3.67284 9.63054 3.7676 9.74636C3.58195 9.90831 3.39727 10.0698 3.19422 10.2471C2.72189 9.72857 2.32353 9.17305 2.03539 8.54351C0.932638 6.13157 1.70664 3.06511 3.84737 1.36873C5.0821 0.390307 6.49233 -0.0743957 8.06742 0.0154693C9.3476 0.0880341 10.4624 0.616651 11.4564 1.39132C11.9684 1.79018 12.433 2.24912 12.9135 2.68691C12.9885 2.75515 13.0334 2.85655 13.0953 2.94689C13.5357 2.53409 13.9046 2.16646 14.2967 1.82478C15.1408 1.09 16.0685 0.485458 17.1665 0.200966C19.0074 -0.276231 20.6947 0.106776 22.2209 1.19669C24.4927 2.81906 25.3808 5.90475 24.3099 8.38685C23.9063 9.32298 23.2618 10.0924 22.5487 10.8036C19.5349 13.8105 16.5133 16.8096 13.4937 19.8108C13.2486 20.0544 13.0605 20.0621 12.8284 19.8314C10.4233 17.443 8.01955 15.0527 5.61632 12.6624C5.59456 12.6408 5.57667 12.6148 5.5525 12.586Z" fill="#3DC29A"/>
<path id="Vector_3" d="M16.2183 10.7977C16.7535 9.86738 17.2722 8.96536 17.791 8.06335C18.1744 7.39681 18.5626 6.73316 18.9382 6.06277C19.0533 5.85757 19.2002 5.76482 19.44 5.76867C20.1004 5.77924 20.7608 5.77251 21.4217 5.77251C21.4918 5.77251 21.5619 5.77251 21.6441 5.77251C21.6441 6.03298 21.6441 6.26941 21.6441 6.53565C21.1171 6.53565 20.594 6.56592 20.0767 6.52603C19.6847 6.49576 19.4865 6.63176 19.2969 6.97199C18.4446 8.50499 17.5435 10.0106 16.6926 11.5441C16.4272 12.0227 16.0704 12.0097 15.7958 11.5839C14.9884 10.3311 14.1429 9.1028 13.3118 7.86488C13.2639 7.79327 13.2122 7.72455 13.1474 7.63325C13.0831 7.72263 13.0314 7.78991 12.9845 7.86007C12.1443 9.11145 11.305 10.3628 10.4648 11.6137C10.181 12.0361 9.92136 12.0352 9.63806 11.6128C8.80314 10.3681 7.9687 9.12299 7.13378 7.87833C7.08979 7.81298 7.04193 7.75002 6.98053 7.664C6.62519 8.282 6.28194 8.8779 5.93917 9.47428C5.37982 10.4465 4.8166 11.4157 4.26498 12.3918C4.14315 12.6071 3.98845 12.695 3.74092 12.6902C3.09696 12.6787 2.45204 12.6863 1.8076 12.6863C1.72879 12.6863 1.65047 12.6863 1.56104 12.6863C1.56104 12.4259 1.56104 12.1894 1.56104 11.9232C2.088 11.9232 2.61158 11.8915 3.12887 11.9333C3.52578 11.9655 3.7182 11.818 3.90578 11.4811C4.76632 9.93514 5.65974 8.40647 6.54155 6.87204C6.79778 6.42656 7.0864 6.41743 7.37309 6.84465C8.20753 8.08978 9.04196 9.3354 9.8764 10.58C9.92523 10.6531 9.97648 10.7242 10.0475 10.8266C10.1065 10.7458 10.1578 10.6805 10.2042 10.6118C11.0488 9.35414 11.8924 8.09555 12.7375 6.83792C13.013 6.42752 13.2775 6.4256 13.5506 6.83215C14.3865 8.07632 15.2214 9.32146 16.0568 10.5661C16.1008 10.6324 16.1477 10.6968 16.2183 10.7977Z" fill="#3DC29A"/>
<path id="Vector_4" d="M7.71546 3.06559C6.15488 3.12326 4.73353 4.2247 4.61557 6.1383C4.37819 6.1383 4.14034 6.1383 3.90248 6.1383C3.76228 4.39338 5.38377 2.28996 7.71594 2.32264C7.71546 2.56533 7.71546 2.80801 7.71546 3.06559Z" fill="#3DC29A"/>
<path id="Vector_5" d="M22.4458 6.52136C22.4458 6.26859 22.4458 6.03311 22.4458 5.78418C22.6938 5.78418 22.9307 5.78418 23.1855 5.78418C23.1855 6.02542 23.1855 6.26618 23.1855 6.52136C22.9442 6.52136 22.7073 6.52136 22.4458 6.52136Z" fill="#3DC29A"/>
</g>
</g>
<defs>
<clipPath id="clip0_387_4364">
<rect width="24.7619" height="20" fill="white"/>
</clipPath>
</defs>
</svg>
