<svg width="105" height="84" viewBox="0 0 105 84" fill="none" xmlns="http://www.w3.org/2000/svg">
<g id="Frame" clip-path="url(#clip0_387_4168)">
<g id="Group">
<path id="Vector" fill-rule="evenodd" clip-rule="evenodd" d="M34.4897 39.6912C34.2517 18.0552 16.0591 21.1961 16.0591 21.1961C16.0591 41.4669 32.3039 57.9177 52.437 58.1788C42.4819 57.9252 34.6012 49.7482 34.4897 39.6912Z" fill="#DE5552"/>
<path id="Vector_2" fill-rule="evenodd" clip-rule="evenodd" d="M40.3854 26.1348C56.0279 11.2433 41.3593 0 41.3593 0C26.5494 13.7799 25.5829 36.923 39.0843 51.9115C32.4972 44.4135 33.1143 33.0509 40.3854 26.1348Z" fill="#738CC6"/>
<path id="Vector_3" fill-rule="evenodd" clip-rule="evenodd" d="M45.0989 56.4328C31.1961 50.121 23.0625 36.1844 23.4566 21.7256C25.5308 22.315 27.7315 23.3968 29.6199 25.2918C32.341 28.0299 34.4153 32.4839 34.4896 39.6909C34.4971 40.3624 34.5417 41.0264 34.616 41.683C34.4822 40.3549 34.4896 39.012 34.6383 37.684C34.4004 39.8924 34.564 42.0933 35.0844 44.1897C35.1141 44.3017 35.1364 44.421 35.1736 44.5329C35.1959 44.615 35.2182 44.7045 35.2405 44.7866C35.2777 44.9284 35.3223 45.0626 35.3669 45.1969C36.839 49.9942 40.2292 54.1498 45.0989 56.4328Z" fill="#CE2644"/>
<path id="Vector_4" fill-rule="evenodd" clip-rule="evenodd" d="M39.0917 51.9118C32.2815 44.3615 29.1515 34.7447 29.6199 25.292C32.341 28.0301 34.4153 32.4841 34.4896 39.6911C34.4971 40.3626 34.5417 41.0341 34.616 41.6831V41.6906C34.9952 45.3613 36.4747 48.9424 39.0917 51.9118Z" fill="#80344F"/>
<path id="Vector_5" fill-rule="evenodd" clip-rule="evenodd" d="M26.5419 7.92285C26.5419 7.92285 29.9322 8.76591 33.077 11.3548C31.0102 15.764 29.8504 20.5091 29.6199 25.2914C27.7315 23.3963 25.5308 22.322 23.4565 21.7251C23.5829 17.0995 24.5792 12.4217 26.5419 7.92285Z" fill="#D65C81"/>
<path id="Vector_6" fill-rule="evenodd" clip-rule="evenodd" d="M36.0361 32.2746C35.3298 33.9458 34.8763 35.6692 34.6681 37.3851C34.6607 37.4523 34.6532 37.5194 34.6458 37.5866C34.6384 37.6164 34.6384 37.6463 34.6309 37.6836C34.6161 37.8402 34.5938 38.0044 34.5789 38.1611L34.5715 38.2282C34.564 38.3103 34.5566 38.3849 34.5566 38.4669C34.5492 38.5565 34.5417 38.6385 34.5417 38.7281C34.5343 38.8176 34.5268 38.8997 34.5268 38.9892C34.5194 39.1235 34.5194 39.2578 34.512 39.3846C34.512 39.504 34.512 39.6308 34.512 39.7502C34.512 39.9591 34.512 40.1605 34.5194 40.362C34.5194 40.4589 34.5268 40.5485 34.5268 40.6455C34.5343 40.7275 34.5343 40.8096 34.5417 40.8917C34.5492 40.9439 34.5492 40.9961 34.5566 41.0483C34.564 41.1453 34.5715 41.2423 34.5789 41.3319C34.5863 41.4438 34.6012 41.5482 34.6086 41.6601C34.5938 41.5333 34.5789 41.399 34.5715 41.2722C34.564 41.2274 34.564 41.1901 34.5566 41.1453C34.5492 41.0633 34.5417 40.9887 34.5343 40.9066C34.5268 40.8171 34.5194 40.7201 34.512 40.6305C34.5045 40.4813 34.4971 40.3321 34.4897 40.1904C34.4822 40.0188 34.4822 39.8546 34.4748 39.6905C34.4748 39.4667 34.4674 39.2429 34.4599 39.019C34.4599 38.922 34.4525 38.8251 34.4525 38.7355C34.4451 38.5415 34.4376 38.3476 34.4228 38.1611C34.4153 38.0342 34.4079 37.9149 34.4005 37.7955C34.3633 37.2508 34.3187 36.7211 34.2592 36.2138C34.2518 36.1168 34.2369 36.0198 34.222 35.9228C34.2072 35.8259 34.1997 35.7289 34.1849 35.6319C34.17 35.5125 34.1551 35.4006 34.1328 35.2812C34.1105 35.1171 34.0808 34.9455 34.0585 34.7814C34.0362 34.6471 34.0139 34.5128 33.9916 34.3785C33.9767 34.2964 33.9618 34.2143 33.9469 34.1323C33.9023 33.901 33.8503 33.6697 33.7982 33.4459C33.7611 33.2743 33.7165 33.1027 33.6793 32.9386C33.6421 32.8043 33.6124 32.6774 33.5752 32.5431C33.5529 32.4685 33.538 32.3939 33.5157 32.3193C33.5009 32.282 33.4934 32.2373 33.4786 32.1925C33.4563 32.1104 33.434 32.0358 33.4042 31.9538C33.3373 31.715 33.263 31.4837 33.1812 31.2524C33.1589 31.1778 33.1291 31.1032 33.1068 31.0286C33.0845 30.954 33.0548 30.8794 33.025 30.8048C32.921 30.5288 32.8169 30.2602 32.7054 29.9991L32.6756 29.9319C32.6236 29.8125 32.5715 29.7006 32.5195 29.5887C32.3931 29.2977 32.2518 29.0217 32.118 28.7531C32.0511 28.6263 31.9842 28.4995 31.9173 28.3801C31.8504 28.2682 31.7909 28.1488 31.724 28.0443C31.6496 27.9175 31.5753 27.7907 31.5009 27.6713C31.4415 27.5743 31.3745 27.4699 31.3076 27.3729C31.1515 27.1341 30.9879 26.9029 30.8169 26.679C30.7575 26.597 30.698 26.5224 30.6311 26.4403C30.4749 26.2389 30.3114 26.0449 30.1478 25.8584C30.1106 25.8136 30.0735 25.7763 30.0363 25.7315C29.895 25.5749 29.7463 25.4182 29.5977 25.269C29.6274 24.6721 29.672 24.0753 29.7315 23.4784C29.7464 23.3292 29.7612 23.18 29.7761 23.0308C29.8058 22.7249 29.843 22.419 29.8876 22.1131C29.9099 21.9713 29.9248 21.8296 29.9471 21.6953C29.9694 21.5535 29.9917 21.4043 30.014 21.2626V21.2402C30.0363 21.1208 30.0512 20.994 30.0735 20.8672C30.1181 20.606 30.1627 20.3374 30.2147 20.0763C30.237 19.9644 30.2593 19.8525 30.2816 19.7406C30.2965 19.6511 30.3188 19.5615 30.3337 19.4795C30.3634 19.3303 30.3932 19.1885 30.4303 19.0393C30.4601 18.905 30.4898 18.7707 30.5196 18.6439C30.5642 18.4574 30.6088 18.2708 30.6534 18.0918C30.6831 17.9724 30.7129 17.853 30.75 17.7262C30.7723 17.6143 30.8021 17.5098 30.8318 17.4054C30.8616 17.2935 30.8913 17.1816 30.921 17.0697C30.9879 16.8309 31.0549 16.5922 31.1292 16.3609C31.1664 16.2341 31.2035 16.1147 31.2407 15.9879C31.2928 15.8237 31.3448 15.667 31.3968 15.5029C31.434 15.3761 31.4786 15.2567 31.5232 15.1299C31.5753 14.9881 31.6199 14.8464 31.6719 14.7046C31.776 14.4211 31.8727 14.1451 31.9768 13.8616C31.9991 13.7944 32.0288 13.7198 32.0585 13.6452C32.1403 13.4288 32.2295 13.2125 32.3113 13.0036C32.5418 12.444 32.7871 11.8845 33.0473 11.3398C37.1513 14.7121 40.7943 21.0238 36.0361 32.2746Z" fill="#804380"/>
<path id="Vector_7" fill-rule="evenodd" clip-rule="evenodd" d="M65.8267 39.6912C66.0646 18.0552 84.2573 21.1961 84.2573 21.1961C84.2573 41.4669 68.0125 57.9177 47.8794 58.1788C57.8344 57.9252 65.7152 49.7482 65.8267 39.6912Z" fill="#EA6A26"/>
<path id="Vector_8" fill-rule="evenodd" clip-rule="evenodd" d="M59.931 26.1348C44.2884 11.2433 58.9496 0 58.9496 0C73.7595 13.7799 74.726 36.923 61.2246 51.9115C67.8117 44.4135 67.2021 33.0509 59.931 26.1348Z" fill="#F3D30F"/>
<path id="Vector_9" fill-rule="evenodd" clip-rule="evenodd" d="M55.2173 56.4328C69.1127 50.121 77.2537 36.1844 76.8596 21.7256C74.7854 22.315 72.5847 23.3968 70.6963 25.2918C67.9678 28.0299 65.9084 32.4839 65.8266 39.6909C65.8191 40.3624 65.7745 41.0264 65.7002 41.683C65.8414 40.3549 65.834 39.012 65.6779 37.684C65.9158 39.8924 65.7448 42.0933 65.2318 44.1897C65.2021 44.3017 65.1798 44.421 65.1426 44.5329C65.1203 44.615 65.098 44.7045 65.0682 44.7866C65.0311 44.9284 64.9865 45.0626 64.9493 45.1969C63.4772 49.9942 60.087 54.1498 55.2173 56.4328Z" fill="#E65526"/>
<path id="Vector_10" fill-rule="evenodd" clip-rule="evenodd" d="M61.2246 51.9118C68.0273 44.3615 71.1573 34.7372 70.6964 25.292C67.9753 28.0301 65.9085 32.4841 65.8267 39.6911C65.8192 40.3626 65.7746 41.0341 65.7003 41.6831V41.6906C65.3137 45.3613 63.8342 48.9424 61.2246 51.9118Z" fill="#D33F27"/>
<path id="Vector_11" fill-rule="evenodd" clip-rule="evenodd" d="M73.7743 7.92285C73.7743 7.92285 70.3767 8.76591 67.2393 11.3548C69.3061 15.764 70.4659 20.5091 70.6964 25.2914C72.5848 23.3963 74.7855 22.322 76.8597 21.7251C76.7333 17.0995 75.7371 12.4217 73.7743 7.92285Z" fill="#EF9523"/>
<path id="Vector_12" fill-rule="evenodd" clip-rule="evenodd" d="M64.2803 32.2746C64.9866 33.9458 65.4401 35.6692 65.6483 37.3851C65.6557 37.4523 65.6631 37.5194 65.6706 37.5866C65.678 37.6164 65.678 37.6463 65.6854 37.6836C65.7003 37.8402 65.7226 38.0044 65.7301 38.1611L65.7375 38.2282C65.7449 38.3103 65.7524 38.3849 65.7524 38.4669C65.7598 38.5565 65.7672 38.6385 65.7672 38.7281C65.7747 38.8176 65.7747 38.8997 65.7821 38.9892C65.7895 39.1235 65.7895 39.2578 65.797 39.3846C65.797 39.504 65.8044 39.6308 65.8044 39.7502C65.8044 39.9591 65.797 40.1605 65.7895 40.362C65.7895 40.4589 65.7821 40.5485 65.7821 40.6455C65.7821 40.7275 65.7747 40.8096 65.7672 40.8917C65.7672 40.9439 65.7598 40.9961 65.7598 41.0483C65.7523 41.1453 65.7449 41.2423 65.7375 41.3319C65.73 41.4363 65.7226 41.5482 65.7077 41.6601C65.7226 41.5333 65.7375 41.399 65.7449 41.2722C65.7524 41.2274 65.7523 41.1901 65.7598 41.1453C65.7672 41.0633 65.7747 40.9887 65.7747 40.9066C65.7821 40.8171 65.7895 40.7201 65.797 40.6305C65.8044 40.4813 65.8118 40.3321 65.8193 40.1904C65.8267 40.0188 65.8267 39.8546 65.8341 39.6905C65.8341 39.4667 65.8416 39.2429 65.849 39.019C65.849 38.922 65.8564 38.8251 65.8564 38.7355C65.8639 38.5415 65.8713 38.3476 65.8862 38.1611C65.8936 38.0342 65.901 37.9149 65.9085 37.7955C65.9457 37.2508 65.9903 36.7211 66.0497 36.2138C66.0572 36.1168 66.072 36.0198 66.0869 35.9228C66.1018 35.8259 66.1092 35.7289 66.1241 35.6319C66.139 35.5125 66.1538 35.4006 66.1761 35.2812C66.1984 35.1171 66.2282 34.9455 66.2505 34.7814C66.2728 34.6471 66.2951 34.5128 66.3248 34.3785C66.3397 34.2964 66.3546 34.2143 66.3694 34.1323C66.414 33.901 66.4661 33.6697 66.5181 33.4459C66.5553 33.2743 66.5925 33.1027 66.6371 32.9386C66.6668 32.8043 66.704 32.6774 66.7412 32.5431C66.7635 32.4685 66.7858 32.3939 66.8006 32.3193C66.8155 32.282 66.8229 32.2373 66.8378 32.1925C66.8601 32.1104 66.8824 32.0358 66.9047 31.9538C66.9791 31.715 67.046 31.4837 67.1278 31.2524C67.1501 31.1778 67.1798 31.1032 67.2021 31.0286C67.2319 30.954 67.2542 30.8794 67.2839 30.8048C67.388 30.5288 67.4921 30.2602 67.6036 29.9991L67.6333 29.9319C67.6854 29.8125 67.7374 29.7006 67.7895 29.5887C67.9158 29.2977 68.0571 29.0217 68.1909 28.7531C68.2578 28.6263 68.3247 28.4995 68.3917 28.3801C68.4586 28.2682 68.5255 28.1488 68.585 28.0443C68.6593 27.9175 68.7337 27.7907 68.808 27.6713C68.8675 27.5743 68.9344 27.4699 69.0013 27.3729C69.1574 27.1341 69.321 26.9029 69.492 26.679C69.5515 26.597 69.611 26.5224 69.6779 26.4403C69.834 26.2389 69.9976 26.0449 70.1611 25.8584C70.1983 25.8136 70.2355 25.7763 70.2726 25.7315C70.4139 25.5749 70.5626 25.4182 70.7113 25.269C70.6815 24.6721 70.6369 24.0753 70.5775 23.4784C70.5626 23.3292 70.5477 23.18 70.5329 23.0308C70.5031 22.7249 70.4659 22.419 70.4213 22.1131C70.399 21.9713 70.3842 21.8296 70.3619 21.6953C70.3396 21.5535 70.3172 21.4043 70.2949 21.2626L70.2875 21.2402C70.2652 21.1208 70.2503 20.994 70.228 20.8672C70.1834 20.606 70.1388 20.3374 70.0868 20.0763C70.0645 19.9644 70.0422 19.8525 70.0199 19.7406C70.005 19.6511 69.9827 19.5615 69.9678 19.4795C69.9381 19.3303 69.9083 19.1885 69.8712 19.0393C69.8414 18.905 69.8117 18.7707 69.7819 18.6439C69.7373 18.4574 69.6927 18.2708 69.6481 18.0918C69.6184 17.9724 69.5886 17.853 69.5589 17.7262C69.5292 17.6143 69.4994 17.5098 69.4697 17.4054C69.44 17.2935 69.4102 17.1816 69.3805 17.0697C69.3136 16.8309 69.2467 16.5922 69.1723 16.3609C69.1351 16.2341 69.098 16.1147 69.0608 15.9879C69.0087 15.8237 68.9567 15.667 68.9047 15.5029C68.8675 15.3761 68.8229 15.2567 68.7783 15.1299C68.7262 14.9881 68.6816 14.8464 68.6296 14.7046C68.5255 14.4211 68.4288 14.1451 68.3173 13.869C68.295 13.7944 68.2653 13.7273 68.2355 13.6527C68.1538 13.4363 68.0645 13.2199 67.9828 13.011C67.7523 12.4515 67.5069 11.8919 67.2467 11.3398C63.1651 14.7121 59.5221 21.0238 64.2803 32.2746Z" fill="#EB8B23"/>
<path id="Vector_13" fill-rule="evenodd" clip-rule="evenodd" d="M0 52.1126V52.6945C1.73972 52.6498 2.61701 53.5301 2.61701 55.3505V69.9884C2.62444 71.7566 1.75458 72.6444 0 72.6444V73.2264H8.92162V72.6444C7.16703 72.6444 6.28974 71.7566 6.30461 69.9884V64.1542H11.4048C13.1148 64.1542 14.5645 63.5648 15.769 62.3934C16.9734 61.2221 17.5756 59.8046 17.5756 58.1483C17.5756 56.4771 16.9734 55.0521 15.769 53.8733C14.5645 52.702 13.1073 52.1126 11.4048 52.1126H0ZM6.30461 52.7915H8.72832C10.1186 52.7915 11.2933 53.2988 12.2598 54.3135C13.2486 55.358 13.7319 56.6189 13.7319 58.111C13.7319 59.6181 13.2412 60.8938 12.2598 61.9309C11.2784 62.9679 10.1037 63.4902 8.72832 63.4902H6.30461V52.7915ZM23.4713 58.2751L18.4454 59.0883V59.5807C19.7465 59.3793 20.3933 60.1105 20.3933 61.7667V69.6079C20.3933 71.6298 19.7465 72.6668 18.4454 72.719V73.2114H25.8504V72.719C24.527 72.6967 23.8728 71.6522 23.8728 69.6079V63.7587C23.8728 62.5725 24.1553 61.5205 24.7203 60.6103C25.3151 59.7001 25.9024 59.2152 26.4898 59.148C26.9061 59.0883 27.2778 59.1779 27.6124 59.439C27.8875 59.6106 28.1477 59.9612 28.4005 60.4835C28.5938 60.9088 28.8168 61.2221 29.0696 61.4161C29.3298 61.6175 29.6495 61.7145 30.0361 61.7145C30.4227 61.7145 30.7275 61.5877 30.9357 61.3265C31.1439 61.0654 31.248 60.7745 31.248 60.4536C31.248 59.8419 30.906 59.342 30.2368 58.954C29.4562 58.5064 28.5715 58.2826 27.5901 58.2677C25.9693 58.2677 24.7277 58.9615 23.8728 60.3417C23.8653 59.2972 23.7315 58.6034 23.4713 58.2751ZM37.0991 58.1931C40.1547 58.1931 42.0654 58.969 42.8386 60.5133C43.2401 61.3042 43.4408 62.3487 43.4334 63.6394V70.921C43.4334 71.8238 43.6787 72.3385 44.1546 72.4878C44.7047 72.6071 45.3664 72.4131 46.1396 71.9058L46.3701 72.3535C45.2846 73.0846 44.2289 73.4427 43.2029 73.4427C41.255 73.4427 40.2291 72.719 40.1101 71.2791C39.7384 71.8909 39.1362 72.4281 38.3183 72.8906C37.5303 73.3383 36.5712 73.5546 35.456 73.5472C34.2144 73.5024 33.1735 73.1145 32.3334 72.3908C31.5156 71.6596 31.1067 70.6599 31.1067 69.4139C31.1067 67.3996 32.2293 66.0119 34.4597 65.2434C38.1845 63.9229 40.0358 62.4382 40.0135 60.7894C39.9911 59.5285 39.0246 58.9018 37.1065 58.9018C36.3259 58.9018 35.7608 59.066 35.4263 59.3793C35.3147 59.4763 35.1066 59.9165 34.7869 60.7148C34.6233 61.1251 34.43 61.4459 34.1921 61.6847C33.9765 61.9234 33.7237 62.0801 33.4263 62.1323C33.1066 62.2069 32.7869 62.1398 32.4673 61.9309C32.1996 61.7294 32.036 61.4385 31.9766 61.058C31.9245 60.5133 32.2145 59.9911 32.839 59.4763C33.8798 58.6407 35.2999 58.208 37.0991 58.1931ZM40.006 63.423C39.4633 64.0348 38.3406 64.7734 36.6232 65.6314C35.9095 65.9671 35.3816 66.4595 35.0471 67.0937C34.7051 67.7204 34.5415 68.4366 34.5564 69.2349C34.5861 70.0257 34.7943 70.7345 35.1958 71.3388C35.6121 71.9506 36.2143 72.249 37.0024 72.2416C37.9689 72.2416 38.7049 71.7641 39.2179 70.8166C39.7458 69.8541 40.0135 68.6455 40.0135 67.1757V63.423H40.006ZM52.3476 51.2695L46.7939 52.1126V52.6274C48.1693 52.3737 48.8607 53.0899 48.8607 54.7611V69.6378C48.8607 71.6745 48.1693 72.7041 46.7939 72.7265V73.2189H54.4442V72.7265C53.0539 72.7041 52.355 71.6745 52.3476 69.6378V67.3921L54.2732 65.5269L57.1653 70.0108C57.7823 70.9882 57.9682 71.6671 57.708 72.055C57.4775 72.443 57.0984 72.6668 56.5631 72.719V73.2114H64.4289V72.719C63.3286 72.816 62.2803 72.055 61.3064 70.4286L56.7935 63.0425L58.5779 61.2594C59.9458 59.812 61.6781 59.0809 63.7747 59.0809V58.5885H57.2693V59.0809C57.9236 59.0585 58.3251 59.2301 58.4663 59.6031C58.6076 59.9687 58.2953 60.5432 57.5147 61.3191L52.3402 66.4371V51.2695H52.3476ZM70.3321 58.2751L65.3062 59.0883V59.5807C66.6073 59.3793 67.2541 60.1105 67.2541 61.7667V69.6079C67.2541 71.6298 66.6073 72.6668 65.3062 72.719V73.2114H72.7112V72.719C71.3878 72.6967 70.7336 71.6522 70.7336 69.6079V63.7587C70.7336 62.5725 71.0161 61.5205 71.5811 60.6103C72.1759 59.7001 72.7632 59.2152 73.3506 59.148C73.7669 59.0883 74.1386 59.1779 74.4732 59.439C74.7408 59.6106 75.0085 59.9612 75.2613 60.4835C75.4546 60.9088 75.6776 61.2221 75.9304 61.4161C76.1906 61.6175 76.5103 61.7145 76.8969 61.7145C77.2909 61.7145 77.5883 61.5877 77.7965 61.3265C78.0047 61.0654 78.1088 60.7745 78.1088 60.4536C78.1088 59.8419 77.7668 59.342 77.0976 58.954C76.317 58.5064 75.4323 58.2826 74.4509 58.2677C72.8301 58.2677 71.5885 58.9615 70.7336 60.3417C70.7261 59.2972 70.5923 58.6034 70.3321 58.2751ZM78.6738 59.5957C80.0195 59.3569 80.6886 60.0284 80.6812 61.625V69.7497C80.6886 71.6596 80.0195 72.6444 78.6738 72.7041V73.2114H86.22V72.7041C84.8966 72.6295 84.2201 71.6447 84.2126 69.7497V58.2751L78.6738 59.0883V59.5957ZM83.7963 52.3289C83.4246 51.9111 82.9562 51.7023 82.3837 51.7023C81.8187 51.7023 81.3354 51.9037 80.9339 52.2916C80.5325 52.6871 80.3243 53.172 80.3243 53.7614C80.3243 54.3508 80.525 54.8432 80.9339 55.2386C81.3354 55.634 81.8261 55.8355 82.3837 55.8355C82.9487 55.8355 83.4246 55.634 83.8112 55.2386C84.2052 54.8432 84.3985 54.3433 84.3985 53.7614C84.3985 53.172 84.1978 52.6945 83.7963 52.3289ZM92.2049 53.2466C91.7886 54.5522 91.0971 55.7459 90.1381 56.8277C89.1864 57.9021 88.1679 58.5736 87.0899 58.8496V59.2972H89.1418V69.7422C89.1418 73.2413 91.0897 74.3156 94.9929 72.9578C95.7066 72.7041 96.2345 72.4728 96.5839 72.2789L96.3535 71.4731C95.6992 71.7641 95.2457 71.9506 94.9929 72.0252C94.2271 72.249 93.6472 72.1446 93.2606 71.7193C92.8666 71.2642 92.6659 70.4958 92.6659 69.4139V59.2898H95.6546V58.5959H92.6659V53.2466H92.2049ZM97.4538 59.5957C98.7995 59.3569 99.476 60.0284 99.4612 61.625V69.7497C99.4686 71.6596 98.7995 72.6444 97.4538 72.7041V73.2114H105V72.7041C103.669 72.6295 103 71.6447 102.993 69.7497V58.2751L97.4538 59.0883V59.5957ZM102.576 52.3289C102.197 51.9111 101.729 51.7023 101.164 51.7023C100.599 51.7023 100.115 51.9037 99.7139 52.2916C99.3125 52.6871 99.1043 53.172 99.1043 53.7614C99.1043 54.3508 99.305 54.8432 99.7139 55.2386C100.115 55.634 100.606 55.8355 101.164 55.8355C101.729 55.8355 102.205 55.634 102.591 55.2386C102.985 54.8432 103.179 54.3433 103.179 53.7614C103.179 53.172 102.978 52.6945 102.576 52.3289Z" fill="black"/>
<path id="Vector_14" fill-rule="evenodd" clip-rule="evenodd" d="M18.4676 79.889C18.7873 79.71 19.0327 79.4638 19.1888 79.1355L19.33 78.8072H19.4639V79.8368H20.3263V80.1725H19.4639V82.8136L19.4713 83.0001C19.4787 83.321 19.62 83.4851 19.8802 83.4702C20.0363 83.4702 20.185 83.4105 20.3189 83.2837L20.4304 83.1792L20.5493 83.2986L20.4676 83.4179C20.1999 83.8134 19.8579 84.0073 19.4639 83.9999C18.9881 84.0073 18.7353 83.694 18.7204 83.0524L18.713 82.7912V80.1725H18.2148V80.0159L18.4676 79.889ZM20.5568 83.7164C20.8021 83.7089 20.9657 83.6343 21.0475 83.5C21.1144 83.3956 21.1515 83.209 21.1515 82.9405V78.949L21.1441 78.7699C21.1367 78.576 21.0028 78.4715 20.7352 78.464L20.5493 78.4715V78.2999L21.9024 77.8821V80.3814L22.1478 80.1576C22.4824 79.8741 22.8169 79.7324 23.1589 79.7324C23.6719 79.7324 23.999 79.9636 24.1254 80.4187C24.17 80.568 24.1923 80.7246 24.2072 80.9037L24.2221 81.1872V82.8659C24.2221 83.1717 24.2444 83.3732 24.289 83.4776C24.3708 83.6418 24.5418 83.7313 24.8168 83.7313V83.9029H22.869V83.7313C23.1515 83.7238 23.3225 83.6418 23.3894 83.4851C23.4414 83.3508 23.4637 83.1494 23.4637 82.8659V81.1797C23.4637 81.0678 23.4489 80.9485 23.434 80.8216C23.3671 80.4262 23.1589 80.2322 22.802 80.2248C22.579 80.2322 22.3708 80.3068 22.1775 80.4635L21.9099 80.7097V82.9479C21.9173 83.2314 21.9471 83.4179 22.0065 83.5075C22.1032 83.6343 22.2667 83.7089 22.5047 83.7238V83.8954H20.5568V83.7164ZM28.4524 82.5749L28.3632 82.7763C27.9543 83.5821 27.3967 83.9924 26.6681 83.9999C26.1402 83.9999 25.7239 83.7835 25.4116 83.3508C25.1514 82.9852 25.025 82.5152 25.025 81.9482C25.025 81.5901 25.0771 81.2469 25.196 80.9111C25.315 80.553 25.5083 80.2695 25.7833 80.0532C26.0733 79.8294 26.4004 79.7174 26.7722 79.7249C27.2331 79.7324 27.6123 79.8816 27.9022 80.18C28.1773 80.4635 28.3334 80.8365 28.3632 81.3066L28.3706 81.3961H25.7313L25.7239 81.5229C25.7239 81.8587 25.7536 82.1347 25.828 82.3585C26.0064 82.9554 26.3856 83.2538 26.9729 83.2613C27.4487 83.2687 27.8428 83.0673 28.1699 82.6644L28.2963 82.4928L28.4524 82.5749ZM27.4562 81.0529L27.4338 80.8589C27.3744 80.4784 27.2405 80.2173 27.0249 80.0905C26.906 80.0233 26.787 79.986 26.6458 79.986C26.393 79.986 26.1923 80.0905 26.0361 80.3068C25.8874 80.5008 25.7908 80.7172 25.7536 80.9485L25.7387 81.0529H27.4562ZM33.9318 81.0827V80.8589C33.9318 80.7321 33.9169 80.6202 33.902 80.5083C33.85 80.1725 33.6567 79.9935 33.3072 79.986C32.9429 79.9786 32.7496 80.1203 32.7348 80.3964L32.7496 80.6799C32.7422 80.9708 32.6158 81.1126 32.3556 81.1126C32.2218 81.1201 32.1251 81.0753 32.0582 80.9858C31.9913 80.8888 31.9616 80.7918 31.969 80.6724C31.969 80.4859 32.0582 80.3068 32.2292 80.1352C32.3705 79.9935 32.5415 79.889 32.7571 79.8144C32.9429 79.7547 33.1437 79.7174 33.3593 79.7174C33.5526 79.7174 33.7385 79.7473 33.9169 79.7995C34.2812 79.9114 34.5191 80.1203 34.6232 80.4262C34.6752 80.5605 34.6975 80.7023 34.6975 80.844L34.705 81.1574V82.7838V83.1344C34.7273 83.3508 34.8091 83.4627 34.9503 83.4552C35.0544 83.4552 35.1734 83.403 35.3146 83.2986V83.5672L35.2403 83.6418C35.1362 83.7462 35.0172 83.8357 34.8908 83.8954C34.7793 83.9551 34.6604 83.9775 34.5414 83.9775C34.2663 83.985 34.0879 83.8432 33.9987 83.5597L33.9541 83.3881L33.7385 83.5597C33.3816 83.8357 33.047 83.9775 32.7273 83.9775C32.4448 83.97 32.2218 83.888 32.0508 83.7164C31.8872 83.5448 31.798 83.321 31.798 83.0449C31.798 82.8435 31.8426 82.657 31.9467 82.4928C32.0434 82.3287 32.1846 82.1869 32.3556 82.0601C32.6084 81.8736 32.9801 81.6796 33.4559 81.4856L33.9466 81.2916V81.0827H33.9318ZM33.9318 81.6647L33.4931 81.8437C32.876 82.1049 32.5712 82.4331 32.5861 82.836C32.5786 83.0076 32.6307 83.1568 32.7273 83.2762C32.8389 83.4105 32.9727 83.4776 33.1362 83.4702C33.3742 83.4776 33.5972 83.3806 33.7979 83.1941L33.9243 83.0748V81.6647H33.9318ZM36.9428 80.1203C37.2105 79.8517 37.5376 79.7174 37.9167 79.7174C38.1026 79.7174 38.2736 79.7547 38.4297 79.8219C38.5933 79.8965 38.7346 79.9935 38.861 80.1203C39.0468 80.3143 39.1806 80.5232 39.2699 80.7694C39.3739 81.0604 39.426 81.3737 39.4334 81.702C39.426 82.1944 39.3219 82.6196 39.1063 82.9703C38.861 83.3806 38.5413 83.6716 38.1398 83.8432C37.8944 83.9477 37.6491 83.9999 37.3889 83.9999C37.151 83.9999 36.9131 83.9626 36.6752 83.8954C36.4596 83.8357 36.2886 83.7686 36.177 83.6716L35.9689 83.4926V78.9341L35.9614 78.755C35.9391 78.5536 35.8053 78.4491 35.5525 78.4491L35.3741 78.4566V78.285L36.7272 77.8672V80.3665L36.9428 80.1203ZM36.7198 83.3433L36.7867 83.4254C36.9577 83.6268 37.1807 83.7313 37.4707 83.7313C37.7755 83.7313 38.0208 83.6268 38.2216 83.4179C38.348 83.2911 38.4372 83.1419 38.4892 82.9852C38.5784 82.7092 38.623 82.4033 38.623 82.0526C38.623 81.6125 38.5487 81.2394 38.4074 80.9335C38.2067 80.5008 37.9167 80.2919 37.545 80.2919C37.1435 80.2994 36.8833 80.471 36.7718 80.8142C36.7346 80.9186 36.7198 81.0305 36.7198 81.1424V83.3433ZM39.9167 81.9034C39.9092 81.3066 40.0802 80.7992 40.4297 80.3814C40.794 79.9413 41.2772 79.7249 41.8794 79.7249C42.266 79.7249 42.608 79.8219 42.898 80.0084C43.2177 80.2098 43.4482 80.4859 43.582 80.8216C43.6935 81.1201 43.753 81.4259 43.7604 81.7542C43.753 82.3585 43.582 82.8733 43.2474 83.2911C42.8757 83.7611 42.4073 83.9924 41.8274 83.9999C41.5523 83.9999 41.307 83.9551 41.0765 83.8507C40.7048 83.6865 40.4148 83.4254 40.2066 83.0598C40.0133 82.7166 39.9167 82.3361 39.9167 81.9034ZM40.7196 81.4782C40.7196 81.9706 40.794 82.4331 40.9501 82.8584C41.1657 83.4478 41.4928 83.7462 41.924 83.7388C42.043 83.7388 42.1545 83.7164 42.266 83.6641C42.7196 83.4776 42.95 82.9628 42.95 82.1272C42.95 81.6423 42.8608 81.2021 42.7047 80.8067C42.4816 80.2695 42.1545 80.0009 41.7233 80.0009C41.3813 80.0084 41.1211 80.18 40.9204 80.5232C40.7865 80.747 40.7122 81.0678 40.7196 81.4782ZM47.0019 83.5075L46.8532 83.6418C46.5633 83.8805 46.2362 83.9999 45.8867 83.9999C45.5001 84.0073 45.1507 83.8507 44.8459 83.5299C44.6749 83.3583 44.5485 83.1643 44.4667 82.9554C44.3552 82.6719 44.2957 82.366 44.2957 82.0303C44.2957 81.4409 44.4518 80.9261 44.7567 80.4934C45.121 79.9786 45.5745 79.7174 46.1172 79.7174C46.422 79.7174 46.6897 79.807 46.9053 79.9711L47.0019 80.0532V78.9341L46.9945 78.755C46.9722 78.561 46.8384 78.4566 46.593 78.4491L46.4072 78.4566V78.285L47.7603 77.8672V82.9703C47.7603 83.1717 47.79 83.2986 47.8495 83.3433L47.9164 83.3881C47.9759 83.4179 48.0428 83.4254 48.132 83.4254L48.355 83.4105V83.5821L47.0019 83.9999V83.5075ZM47.0019 83.0822V81.0977C47.0019 80.8888 46.9796 80.7172 46.9276 80.5754C46.883 80.4262 46.7789 80.2919 46.6153 80.1651C46.4666 80.0532 46.3105 79.9935 46.1395 80.0009C45.8793 80.0009 45.6637 80.0979 45.5001 80.2845C45.3812 80.4113 45.292 80.5605 45.2325 80.7246C45.1358 81.0007 45.0912 81.2916 45.0912 81.605C45.0912 81.9482 45.1433 82.2765 45.2622 82.5749C45.4629 83.1344 45.8049 83.4254 46.2882 83.4329C46.6005 83.4179 46.8309 83.306 47.0019 83.0822ZM51.946 82.5749L51.8568 82.7763C51.4553 83.5821 50.8903 83.9924 50.1617 83.9999C49.6338 83.9999 49.2175 83.7835 48.9052 83.3508C48.645 82.9852 48.5186 82.5152 48.5186 81.9482C48.5186 81.5901 48.5706 81.2469 48.6896 80.9111C48.8086 80.553 49.0019 80.2695 49.2769 80.0532C49.5595 79.8294 49.894 79.7174 50.2658 79.7249C50.7267 79.7324 51.1059 79.8816 51.3958 80.18C51.6709 80.4635 51.827 80.8365 51.8568 81.3066V81.3961H49.2175L49.21 81.5229C49.2026 81.8587 49.2398 82.1347 49.3141 82.3585C49.4925 82.9554 49.8717 83.2538 50.4591 83.2613C50.9349 83.2687 51.3289 83.0673 51.6486 82.6644L51.775 82.4928L51.946 82.5749ZM50.9423 81.0529L50.92 80.8589C50.8605 80.4784 50.7267 80.2173 50.5111 80.0905C50.3921 80.0233 50.2732 79.986 50.1319 79.986C49.8792 79.986 49.6784 80.0905 49.5149 80.3068C49.3662 80.5008 49.2695 80.7172 49.2323 80.9485L49.2175 81.0529H50.9423ZM55.2544 81.9034C55.247 81.3066 55.418 80.7992 55.7674 80.3814C56.1317 79.9413 56.615 79.7249 57.2172 79.7249C57.6038 79.7249 57.9458 79.8219 58.2357 80.0084C58.5554 80.2098 58.7859 80.4859 58.9197 80.8216C59.0312 81.1201 59.0907 81.4259 59.0982 81.7542C59.0907 82.3585 58.9197 82.8733 58.5852 83.2911C58.2209 83.7611 57.745 83.9924 57.1651 83.9999C56.8901 83.9999 56.6447 83.9551 56.4142 83.8507C56.0425 83.6865 55.7451 83.4254 55.5444 83.0598C55.3585 82.7166 55.2619 82.3361 55.2544 81.9034ZM56.0574 81.4782C56.0574 81.9706 56.1317 82.4331 56.2878 82.8584C56.5035 83.4478 56.8231 83.7462 57.2618 83.7388C57.3807 83.7388 57.4923 83.7164 57.6038 83.6641C58.0647 83.4776 58.2878 82.9628 58.2878 82.1272C58.2878 81.6423 58.206 81.2021 58.0424 80.8067C57.8194 80.2695 57.4923 80.0009 57.0611 80.0009C56.7191 80.0084 56.4588 80.18 56.2581 80.5232C56.1243 80.747 56.0574 81.0678 56.0574 81.4782ZM60.31 79.8368L60.3323 79.4339C60.3621 78.9863 60.5033 78.6207 60.7561 78.3297C61.0163 78.0313 61.3732 77.8746 61.8192 77.8672C62.4363 77.8746 62.7486 78.0612 62.7709 78.4267C62.7709 78.6655 62.6445 78.7923 62.3992 78.7923C62.243 78.7849 62.0943 78.6729 61.9605 78.4417C61.8415 78.2402 61.7077 78.1358 61.5516 78.1358C61.2393 78.1283 61.0832 78.3521 61.0832 78.8072L61.0758 79.0907L61.0683 79.3742V79.8293H62.1092V80.1651H61.0683V82.8136C61.0683 83.0748 61.0906 83.2762 61.1278 83.4254C61.1724 83.6045 61.336 83.694 61.6185 83.7089L61.8044 83.7164V83.888H59.7152V83.7164C59.9903 83.7238 60.1687 83.6343 60.2431 83.4552C60.2877 83.3583 60.31 83.1494 60.31 82.8136V80.1725H59.626V79.8368H60.31ZM65.1723 83.7164C65.4102 83.7089 65.5738 83.6418 65.6704 83.5075C65.7373 83.4179 65.7671 83.2314 65.7745 82.9554V81.1872V80.8365C65.7671 80.6575 65.7448 80.5307 65.7002 80.456C65.6407 80.3591 65.5217 80.3143 65.3582 80.3143H65.1872V80.1427L66.5403 79.7249V80.374L66.7856 80.1502C67.1202 79.8667 67.4547 79.7249 67.8042 79.7249C68.1833 79.7249 68.4659 79.8667 68.6443 80.1427C68.7038 80.2322 68.7484 80.3218 68.7707 80.4113C68.8078 80.553 68.8302 80.7097 68.8525 80.8962L68.8673 81.1797V82.8659C68.8673 83.1792 68.8896 83.3806 68.9342 83.4776C69.0086 83.6343 69.187 83.7238 69.4621 83.7238V83.8954H67.5142V83.7238C67.7967 83.7164 67.9677 83.6343 68.0272 83.4776C68.0793 83.3433 68.109 83.1344 68.109 82.8584V81.1648C68.109 81.0977 68.0941 80.9783 68.0718 80.8067C68.0198 80.4113 67.8042 80.2173 67.4399 80.2098C67.2094 80.2173 67.0012 80.2919 66.8154 80.4486C66.7336 80.5083 66.6444 80.5903 66.5477 80.6948V82.9479C66.5477 83.209 66.5774 83.3956 66.6444 83.5C66.7261 83.6194 66.8897 83.694 67.1425 83.7089V83.8805H65.1946V83.7164H65.1723ZM71.804 81.0827V80.8589C71.804 80.7321 71.7892 80.6202 71.7743 80.5083C71.7222 80.1725 71.5289 79.9935 71.1795 79.986C70.8078 79.9786 70.6219 80.1203 70.5996 80.3964L70.6145 80.6799C70.607 80.9708 70.4732 81.1126 70.213 81.1126C70.0792 81.1201 69.9825 81.0753 69.9156 80.9858C69.8487 80.8888 69.819 80.7918 69.8264 80.6724C69.8264 80.4859 69.9156 80.3068 70.0866 80.1352C70.2279 79.9935 70.3989 79.889 70.6145 79.8144C70.8003 79.7547 71.0011 79.7174 71.2092 79.7174C71.4025 79.7174 71.5884 79.7473 71.7668 79.7995C72.1311 79.9114 72.3691 80.1203 72.4731 80.4262C72.5252 80.5605 72.5475 80.7023 72.5475 80.844L72.5549 81.1574V82.7838V83.1344C72.5772 83.3508 72.659 83.4627 72.8003 83.4552C72.9044 83.4552 73.0233 83.403 73.1646 83.2986V83.5672L73.0902 83.6418C72.9861 83.7462 72.8672 83.8357 72.7408 83.8954C72.6293 83.9551 72.5103 83.9775 72.3914 83.9775C72.1163 83.985 71.9378 83.8432 71.8486 83.5597L71.804 83.3881L71.5884 83.5597C71.2316 83.8357 70.897 83.9775 70.5773 83.9775C70.2948 83.97 70.0643 83.888 69.9007 83.7164C69.7372 83.5448 69.648 83.321 69.648 83.0449C69.648 82.8435 69.6926 82.657 69.7892 82.4928C69.8859 82.3287 70.0271 82.1869 70.1981 82.0601C70.4509 81.8736 70.8226 81.6796 71.2985 81.4856L71.7892 81.2916V81.0827H71.804ZM71.804 81.6647L71.3728 81.8437C70.7557 82.1049 70.4509 82.4331 70.4658 82.836C70.4583 83.0076 70.5104 83.1568 70.607 83.2762C70.7186 83.4105 70.8524 83.4776 71.0159 83.4702C71.2539 83.4776 71.4769 83.3806 71.6776 83.1941L71.804 83.0748V81.6647ZM73.6032 79.889C73.9229 79.71 74.1683 79.4638 74.3244 79.1355L74.4656 78.8072H74.5995V79.8368H75.4619V80.1725H74.5995V82.8136L74.6069 83.0001C74.6143 83.321 74.7482 83.4851 75.0158 83.4702C75.1719 83.4702 75.3206 83.4105 75.4545 83.2837L75.566 83.1792L75.6849 83.2986L75.6031 83.4179C75.3355 83.8134 74.9935 84.0073 74.592 83.9999C74.1162 84.0073 73.8709 83.694 73.8486 83.0524L73.8411 82.7912V80.1725H73.343V80.0159L73.6032 79.889ZM75.5957 79.8368V80.0084L75.8336 80.0457C76.079 80.0905 76.1979 80.2471 76.1905 80.5157V82.5525C76.2128 83.5224 76.5771 84.0073 77.2983 83.9999C77.6328 83.9924 77.9451 83.8581 78.2425 83.5895L78.5175 83.3284V83.9924L79.8707 83.5746V83.403L79.6104 83.3881C79.3948 83.3806 79.2833 83.2463 79.2759 82.9778L79.2684 82.7465V79.8219H77.9153V79.9935L78.1384 80.0308L78.2871 80.0681C78.4283 80.1203 78.5027 80.3068 78.5101 80.6276V82.9554L78.3019 83.1121C78.0269 83.3135 77.7815 83.4105 77.5733 83.4105C77.3949 83.4105 77.2536 83.3433 77.1421 83.2165C77.038 83.0897 76.9711 82.9405 76.9637 82.7689C76.9488 82.6644 76.9414 82.5525 76.9488 82.4257V79.8219H75.5957V79.8368ZM80.1606 83.7164C80.4729 83.7015 80.6513 83.5895 80.7033 83.3806C80.7331 83.224 80.7554 82.9852 80.7554 82.6719V81.217L80.7479 80.8515C80.7479 80.4859 80.6141 80.3068 80.3465 80.3068H80.1606V80.1352L81.5137 79.7174V80.4784C81.6327 80.3143 81.7442 80.1725 81.8557 80.0532C82.0639 79.8219 82.2869 79.71 82.5174 79.71C82.8668 79.71 83.0453 79.8816 83.0527 80.2173C83.0378 80.4859 82.9114 80.6276 82.681 80.6202C82.6141 80.6276 82.5471 80.6053 82.4951 80.568L82.3092 80.4411C82.2051 80.3665 82.1234 80.3292 82.0713 80.3292C81.9524 80.3292 81.8111 80.4411 81.655 80.6724L81.5212 80.9111V83.03C81.5212 83.2837 81.5658 83.4553 81.6475 83.5448C81.7442 83.6492 81.9078 83.694 82.1457 83.694H82.2497V83.8656H80.1606V83.7164ZM86.7849 82.5749L86.6957 82.7763C86.2942 83.5821 85.7292 83.9924 85.0006 83.9999C84.4727 83.9999 84.0489 83.7835 83.7441 83.3508C83.4839 82.9852 83.3575 82.5152 83.3575 81.9482C83.3575 81.5901 83.4096 81.2469 83.5285 80.9111C83.6475 80.553 83.8408 80.2695 84.1159 80.0532C84.4058 79.8294 84.7329 79.7174 85.1047 79.7249C85.5656 79.7324 85.9448 79.8816 86.2347 80.18C86.5098 80.4635 86.666 80.8365 86.6957 81.3066V81.3961H84.0564L84.049 81.5229C84.049 81.8587 84.0787 82.1347 84.153 82.3585C84.3315 82.9554 84.7106 83.2538 85.298 83.2613C85.7738 83.2687 86.1678 83.0673 86.4949 82.6644L86.6213 82.4928L86.7849 82.5749ZM85.7887 81.0529L85.7664 80.8589C85.7069 80.4784 85.5731 80.2173 85.3574 80.0905C85.2459 80.0233 85.1195 79.986 84.9783 79.986C84.7255 79.986 84.5248 80.0905 84.3612 80.3068C84.2125 80.5008 84.1159 80.7172 84.0787 80.9485L84.0638 81.0529H85.7887Z" fill="black"/>
<path id="Vector_15" d="M46.3106 47.0622C46.2437 47.4278 46.0578 48.2858 45.9909 48.5245H41.8052V48.2186C42.5561 48.1589 42.6379 48.0992 42.6379 47.3756V44.0705C42.6379 43.3319 42.5486 43.2796 41.8944 43.22V42.9141H44.5263V43.22C43.8646 43.2796 43.7902 43.3319 43.7902 44.0705V47.4352C43.7902 47.8381 43.8274 47.9948 44.0058 48.0769C44.1545 48.1366 44.385 48.1515 44.6527 48.1515C45.017 48.1515 45.3218 48.0918 45.53 47.8605C45.6935 47.6814 45.8496 47.4054 46.0132 46.9727L46.3106 47.0622Z" fill="black"/>
<path id="Vector_16" d="M51.1876 48.5245V48.2261C51.8344 48.1589 51.8865 48.0992 51.8716 47.301L51.8567 43.9809H51.8121L49.9088 48.4648H49.6709L47.9163 44.063H47.8792L47.7751 46.3161C47.7379 47.0324 47.7379 47.4352 47.7751 47.7038C47.8123 48.0918 47.9833 48.1664 48.5483 48.2186V48.517H46.4814V48.2186C46.9647 48.1739 47.1283 48.0172 47.1803 47.7188C47.2323 47.4427 47.2993 46.9951 47.3587 46.0849L47.5 44.3838C47.5669 43.399 47.5074 43.2796 46.7714 43.2125V42.9141H48.5557L50.2137 46.6966L51.9013 42.9141H53.6336V43.2125C52.9422 43.2796 52.9124 43.3542 52.9273 44.0705L53.0017 47.2935C53.0165 48.0843 53.0611 48.1515 53.7303 48.2186V48.517H51.1876V48.5245Z" fill="black"/>
<path id="Vector_17" d="M58.6895 47.0622C58.6226 47.4278 58.4367 48.2858 58.3698 48.5245H54.1841V48.2186C54.9276 48.1589 55.0168 48.0992 55.0168 47.3756V44.0705C55.0168 43.3319 54.9276 43.2796 54.2733 43.22V42.9141H56.9052V43.22C56.2435 43.2796 56.1691 43.3319 56.1691 44.0705V47.4352C56.1691 47.8381 56.2063 47.9948 56.3847 48.0769C56.5334 48.1366 56.7639 48.1515 57.0316 48.1515C57.3959 48.1515 57.7007 48.0918 57.9089 47.8605C58.0724 47.6814 58.2286 47.4054 58.3921 46.9727L58.6895 47.0622Z" fill="black"/>
</g>
</g>
<defs>
<clipPath id="clip0_387_4168">
<rect width="105" height="84" fill="white"/>
</clipPath>
</defs>
</svg>
