<svg width="48" height="56" viewBox="0 0 48 56" fill="none" xmlns="http://www.w3.org/2000/svg">
<g id="Frame" clip-path="url(#clip0_387_4268)">
<g id="Group">
<path id="Vector" d="M4.1399 6.31935C4.1399 5.35642 4.16476 4.5278 4.13312 3.70146C4.10148 2.86602 4.35912 2.45171 5.2925 2.49951C6.63946 2.57008 7.99319 2.51772 9.52999 2.51772C9.52999 1.85528 9.47349 1.25886 9.55711 0.682927C9.59101 0.434797 9.90967 0.227642 10.1018 0C10.26 0.223089 10.5266 0.43252 10.556 0.671545C10.6238 1.22927 10.5786 1.80065 10.5786 2.47447C12.3188 2.47447 13.998 2.47447 15.815 2.47447C15.815 3.7652 15.815 4.95577 15.815 6.33301C16.9902 6.33301 18.0321 6.35805 19.0717 6.3239C19.8446 6.29886 20.152 6.61301 20.1361 7.39837C20.1045 9.13301 20.1271 10.8699 20.1271 12.7593C20.83 12.7593 21.4221 12.7593 22.0119 12.7593C26.0777 12.7593 30.1456 12.7776 34.2114 12.7411C35.0385 12.7343 35.3346 12.9597 35.3097 13.827C35.251 15.9122 35.2487 17.9997 35.321 20.0826C35.3369 20.5584 35.6329 21.1707 35.999 21.4667C39.7077 24.4442 43.448 27.3785 47.2041 30.2946C47.7691 30.734 47.9928 31.1802 47.9906 31.9063C47.9612 39.4527 47.9431 47.0013 47.9996 54.5476C48.0086 55.745 47.6154 56.0023 46.5216 56C32.2158 55.9681 17.9078 55.975 3.60203 55.9727C2.77487 55.9727 1.94545 55.9522 1.11829 55.9863C0.302434 56.0182 0.0108954 55.695 0.0176753 54.8481C0.0515752 50.1837 0.0334953 45.5171 0.0334953 40.8527C0.0312353 29.8143 0.0538352 18.7782 -0.000404609 7.73984C-0.00718459 6.52195 0.397354 6.22374 1.47537 6.30569C2.32739 6.37171 3.18845 6.31935 4.1399 6.31935ZM8.69153 13.7473C8.69153 27.5174 8.69153 41.1828 8.69153 54.8527C17.2637 54.8527 25.7567 54.8527 34.2747 54.8527C34.2747 41.1213 34.2747 27.4559 34.2747 13.7473C25.7251 13.7473 17.2592 13.7473 8.69153 13.7473ZM1.08891 7.39154C1.08891 23.2468 1.08891 39.0384 1.08891 54.8436C1.59289 54.8436 2.02455 54.8436 2.53305 54.8436C2.53305 54.5158 2.53305 54.2563 2.53305 53.999C2.53305 39.8898 2.52627 25.7782 2.55339 11.6689C2.55339 11.1818 2.89917 10.2689 3.02347 10.2803C3.95232 10.3577 3.60429 11.1659 3.60429 11.694C3.62236 25.653 3.61785 39.6098 3.61785 53.5688C3.61785 54.0036 3.61785 54.4407 3.61785 54.9301C4.19188 54.905 4.58964 54.8868 5.0891 54.8663C5.0891 54.4611 5.0891 54.1288 5.0891 53.7964C5.0891 49.9288 5.08458 46.0611 5.0891 42.1912C5.1004 33.1288 5.11848 24.0641 5.12752 15.0016C5.12978 13.6358 5.07554 12.2699 5.11396 10.9063C5.12074 10.6719 5.462 10.4465 5.64958 10.2143C5.80552 10.4328 6.03378 10.6309 6.10158 10.8745C6.18068 11.1545 6.12192 11.4754 6.12192 11.7805C6.12192 25.7008 6.12192 39.6211 6.12192 53.5415C6.12192 53.9831 6.12192 54.4247 6.12192 54.8367C6.705 54.8367 7.1344 54.8367 7.65645 54.8367C7.65645 54.3132 7.65645 53.8624 7.65645 53.414C7.65645 42.5281 7.65645 31.6423 7.65871 20.7587C7.65871 18.4823 7.69487 16.2059 7.64515 13.9317C7.62481 12.9847 7.93669 12.6956 8.88137 12.7275C11.1007 12.8003 13.3245 12.7571 15.5461 12.7616C16.6648 12.7639 17.7857 12.7616 18.9722 12.7616C18.9722 10.8995 18.9722 9.17854 18.9722 7.39382C13.0081 7.39154 7.08016 7.39154 1.08891 7.39154ZM46.9645 54.855C46.9984 54.6615 47.0346 54.5522 47.0346 54.4429C47.0391 47.0081 47.0481 39.5733 47.0165 32.1385C47.0142 31.7652 46.7476 31.2758 46.4515 31.0367C44.013 29.0699 41.5405 27.1463 39.0771 25.2114C37.8816 24.2735 36.6815 23.3402 35.3753 22.3226C35.3753 33.3041 35.3753 44.0852 35.3753 54.8527C35.9019 54.8527 36.338 54.8527 36.8714 54.8527C36.8714 54.4224 36.8714 54.0491 36.8714 53.678C36.8714 46.0156 36.8714 38.3532 36.8714 30.6907C36.8714 30.4244 36.8149 30.1421 36.885 29.8985C36.9573 29.6504 37.1561 29.441 37.2985 29.2156C37.4748 29.4524 37.6759 29.6754 37.8183 29.9304C37.8839 30.0465 37.8387 30.2286 37.8387 30.3789C37.8387 35.9174 37.8409 41.4537 37.8409 46.9922C37.8409 49.5987 37.8409 52.2075 37.8409 54.8527C38.4104 54.8527 38.8421 54.8527 39.3619 54.8527C39.3619 54.3837 39.3619 53.9717 39.3619 53.5619C39.3619 46.6211 39.3619 39.678 39.3619 32.7372C39.3619 32.4345 39.2986 32.1067 39.389 31.8335C39.4659 31.599 39.7235 31.426 39.8998 31.2257C40.0761 31.4283 40.3473 31.6081 40.4083 31.8426C40.5009 32.2 40.4512 32.5961 40.4512 32.974C40.4535 39.8784 40.4512 46.7805 40.4512 53.6849C40.4512 54.081 40.4512 54.4793 40.4512 54.9255C41.0275 54.8982 41.4275 54.88 41.9112 54.8572C41.9112 54.4019 41.9112 54.0286 41.9112 53.6576C41.9112 47.3997 41.9112 41.1418 41.9134 34.8816C41.9134 34.5037 41.8795 34.1099 41.9677 33.7502C42.0151 33.5545 42.2818 33.2881 42.4558 33.2836C42.6186 33.279 42.8717 33.5545 42.9327 33.7548C43.0163 34.0325 42.9621 34.3558 42.9621 34.6585C42.9621 40.9938 42.9621 47.3291 42.9621 53.6621C42.9621 54.065 42.9621 54.4657 42.9621 54.839C43.5564 54.839 43.9904 54.839 44.5237 54.839C44.5237 54.4748 44.5237 54.1789 44.5237 53.8806C44.5215 48.0393 44.5102 42.198 44.5328 36.3567C44.535 35.9743 44.7972 35.5919 44.9396 35.2117C45.1158 35.6032 45.4413 35.9948 45.4458 36.3886C45.4842 39.6507 45.4616 42.9128 45.4594 46.175C45.4571 49.0478 45.4594 51.9206 45.4594 54.8504C46.0198 54.855 46.456 54.855 46.9645 54.855ZM10.8882 3.52618C10.5764 4.25008 10.3436 4.78959 10.1131 5.32683C9.82153 4.77138 9.52999 4.21593 9.17969 3.54894C8.03161 3.54894 6.66432 3.54894 5.26312 3.54894C5.26312 4.48228 5.26312 5.33821 5.26312 6.26244C8.48587 6.26244 11.6589 6.26244 14.8523 6.26244C14.8523 5.30862 14.8523 4.42992 14.8523 3.52618C13.4127 3.52618 12.068 3.52618 10.8882 3.52618Z" fill="black"/>
<path id="Vector_2" d="M14.7214 50.6234C14.7011 53.1776 14.9881 52.8543 12.5066 52.8452C9.93252 52.8338 10.2218 53.2663 10.2128 50.48C10.2037 47.9008 10.0613 48.3515 12.3733 48.3128C12.4117 48.3128 12.4479 48.3128 12.4863 48.3128C15.0401 48.3493 14.6898 47.9509 14.7214 50.6234ZM11.3563 49.4215C11.3563 50.2296 11.3563 50.958 11.3563 51.7206C12.1563 51.7206 12.8818 51.7206 13.6615 51.7206C13.6615 50.9262 13.6615 50.2 13.6615 49.4215C12.8773 49.4215 12.1767 49.4215 11.3563 49.4215Z" fill="black"/>
<path id="Vector_3" d="M26.697 48.3144C26.697 49.6939 26.749 50.8685 26.6608 52.034C26.6382 52.3232 26.1907 52.7807 25.9015 52.8126C24.9726 52.9127 24.0166 52.9287 23.09 52.8103C22.7668 52.7693 22.2968 52.2685 22.2538 51.9339C22.1408 51.0005 22.1612 50.0399 22.2516 49.102C22.2787 48.8197 22.7013 48.369 22.968 48.3508C24.1567 48.2688 25.3545 48.3144 26.697 48.3144ZM23.3409 51.704C24.1816 51.704 24.9116 51.704 25.6235 51.704C25.9738 49.2682 25.6845 48.9973 23.3409 49.5368C23.3409 50.2288 23.3409 50.93 23.3409 51.704Z" fill="black"/>
<path id="Vector_4" d="M16.2943 50.5912C16.2966 48.3125 16.2966 48.3034 18.5363 48.3171C20.8799 48.3307 20.7465 47.9574 20.7511 50.5662C20.7533 53.2205 20.8776 52.8517 18.4504 52.8471C15.9214 52.8426 16.3305 53.1727 16.2943 50.5912ZM17.282 49.4166C17.282 50.2042 17.282 50.9304 17.282 51.7044C18.0956 51.7044 18.8504 51.7044 19.6211 51.7044C19.6211 50.8985 19.6211 50.1701 19.6211 49.4166C18.8165 49.4166 18.0843 49.4166 17.282 49.4166Z" fill="black"/>
<path id="Vector_5" d="M30.5483 48.3124C32.9507 48.3397 32.7563 47.955 32.7676 50.5706C32.7789 53.1726 32.8897 52.8425 30.5506 52.8516C28.2793 52.8584 28.2793 52.8539 28.2793 50.5843C28.2793 48.3124 28.2793 48.3124 30.5483 48.3124ZM31.6083 51.8909C31.6083 50.8711 31.6083 50.1358 31.6083 49.2275C30.7676 49.3755 29.8952 49.3186 29.3325 49.7124C29.0387 49.9173 29.0477 51.2786 29.3415 51.4721C29.911 51.8477 30.7766 51.7703 31.6083 51.8909Z" fill="black"/>
<path id="Vector_6" d="M14.7148 44.1647C14.6651 46.63 15.1736 46.4707 12.4277 46.4593C9.98915 46.4502 10.2038 46.7689 10.2106 44.1965C10.2197 41.5559 9.94621 41.9748 12.4028 41.9383C12.4412 41.9383 12.4774 41.9383 12.5158 41.9383C14.7148 41.9383 14.7148 41.9383 14.7148 44.1647ZM13.6503 45.3074C13.9532 42.7692 13.569 42.4232 11.3406 43.1289C11.3406 43.83 11.3406 44.538 11.3406 45.3074C12.1248 45.3074 12.8593 45.3074 13.6503 45.3074Z" fill="black"/>
<path id="Vector_7" d="M28.2725 44.1744C28.3154 41.5588 27.9244 41.9481 30.4511 41.9458C32.9665 41.9435 32.7472 41.5064 32.7585 44.3178C32.7676 46.4645 32.7608 46.4645 30.6342 46.4668C30.5957 46.4668 30.5596 46.4668 30.5212 46.4668C27.9448 46.4281 28.3086 46.8515 28.2725 44.1744ZM29.303 45.299C30.1324 45.299 30.8624 45.299 31.606 45.299C31.606 44.4954 31.606 43.7669 31.606 43.0134C30.8059 43.0134 30.0805 43.0134 29.303 43.0134C29.303 43.7965 29.303 44.4977 29.303 45.299Z" fill="black"/>
<path id="Vector_8" d="M26.6973 42.0117C26.6973 43.3206 26.7335 44.5567 26.6657 45.7883C26.6521 46.0205 26.2363 46.3983 25.9809 46.4188C25.0113 46.4962 24.0283 46.5213 23.0632 46.4211C22.7604 46.3892 22.5005 45.9089 22.2338 45.6244C22.1954 45.5834 22.2225 45.4787 22.2248 45.4035C22.3513 41.1944 21.2891 41.9457 26.6973 42.0117ZM23.3638 43.0065C23.3638 43.8055 23.3638 44.5408 23.3638 45.3216C24.1571 45.3216 24.8848 45.3216 25.6012 45.3216C26.1007 42.9359 25.8995 42.7242 23.3638 43.0065Z" fill="black"/>
<path id="Vector_9" d="M12.4749 35.5578C14.7213 35.5555 14.7281 35.5555 14.7213 37.8569C14.7123 40.254 15.0332 40.1083 12.4591 40.0833C10.0815 40.0605 10.2058 40.4839 10.2104 37.8478C10.2104 35.56 10.2081 35.56 12.4749 35.5578ZM13.6614 36.5844C12.8455 36.5844 12.1201 36.5844 11.3404 36.5844C11.3404 37.3926 11.3404 38.1301 11.3404 38.9041C12.1449 38.9041 12.8998 38.9041 13.6614 38.9041C13.6614 38.0823 13.6614 37.3493 13.6614 36.5844Z" fill="black"/>
<path id="Vector_10" d="M26.6453 29.3274C26.6453 30.7433 26.6453 32.1001 26.6453 33.6321C25.3594 33.6321 24.1277 33.664 22.9005 33.6025C22.6723 33.5911 22.4485 33.2155 22.2496 32.9856C22.1909 32.9173 22.2316 32.7648 22.2248 32.6532C21.9965 29.0701 22.6903 28.5329 26.6453 29.3274ZM23.3683 30.1742C23.3683 31.0393 23.3683 31.7768 23.3683 32.5462C24.1706 32.5462 24.9006 32.5462 25.6509 32.5462C25.6509 31.7199 25.6509 30.9596 25.6509 30.1742C24.8419 30.1742 24.1413 30.1742 23.3683 30.1742Z" fill="black"/>
<path id="Vector_11" d="M18.5862 41.9365C20.7558 41.9365 20.758 41.9365 20.758 44.1082C20.758 46.9242 20.8077 46.4438 18.3918 46.4643C15.9352 46.4848 16.3058 46.6351 16.2855 44.3677C16.2855 44.329 16.2855 44.2926 16.2855 44.2539C16.2855 41.9365 16.2855 41.9365 18.5862 41.9365ZM19.6484 45.3216C19.6484 44.4838 19.6484 43.7759 19.6484 43.0087C18.837 43.0087 18.0731 43.0087 17.2934 43.0087C17.2934 43.8237 17.2934 44.5567 17.2934 45.3216C18.107 45.3216 18.8415 45.3216 19.6484 45.3216Z" fill="black"/>
<path id="Vector_12" d="M30.5258 35.5483C32.935 35.5893 32.7655 35.1386 32.7655 37.7678C32.7655 40.2696 33.0209 40.1012 30.4648 40.0807C27.9359 40.0579 28.3043 40.4176 28.2862 37.8293C28.2681 35.5529 28.2817 35.5506 30.5258 35.5483ZM31.6016 38.9379C31.6016 38.0638 31.6016 37.3217 31.6016 36.5955C29.0749 36.3178 28.9032 36.5021 29.3778 38.9379C30.1032 38.9379 30.8377 38.9379 31.6016 38.9379Z" fill="black"/>
<path id="Vector_13" d="M26.6971 35.5598C26.6971 36.912 26.7491 38.0844 26.661 39.2454C26.6384 39.5413 26.2044 40.0102 25.9129 40.0489C22.4822 40.511 21.7545 39.7712 22.2472 36.3384C22.2879 36.0493 22.6992 35.6122 22.9591 35.594C24.1478 35.5143 25.3456 35.5598 26.6971 35.5598ZM23.3478 38.9016C24.1546 38.9016 24.9072 38.9016 25.6507 38.9016C25.6507 38.0775 25.6507 37.3468 25.6507 36.5888C24.8349 36.5888 24.1094 36.5888 23.3478 36.5888C23.3478 37.4014 23.3478 38.139 23.3478 38.9016Z" fill="black"/>
<path id="Vector_14" d="M12.466 29.1657C14.7147 29.168 14.7147 29.168 14.7147 31.4331C14.7125 33.6731 14.7125 33.6731 12.4864 33.6662C9.88964 33.6571 10.2083 33.8438 10.2128 31.3466C10.2173 28.8197 9.9258 29.1999 12.466 29.1657ZM13.6344 32.5713C13.6344 31.6971 13.6344 30.9391 13.6344 30.1924C12.8141 30.1924 12.1157 30.1924 11.3767 30.1924C11.3767 31.0165 11.3767 31.7768 11.3767 32.5713C12.1677 32.5713 12.8706 32.5713 13.6344 32.5713Z" fill="black"/>
<path id="Vector_15" d="M30.5842 29.1743C32.9459 29.2267 32.7674 28.7327 32.7538 31.3347C32.7425 33.6885 33.1516 33.7158 30.4667 33.6748C27.8881 33.6361 28.2994 33.9161 28.2768 31.4052C28.2564 29.1766 28.2745 29.1766 30.5842 29.1743ZM29.3073 32.5184C30.1684 32.5184 30.8961 32.5184 31.6103 32.5184C31.6103 31.6943 31.6103 30.9568 31.6103 30.1851C30.8148 30.1851 30.0893 30.1851 29.3073 30.1851C29.3073 30.9955 29.3073 31.7308 29.3073 32.5184Z" fill="black"/>
<path id="Vector_16" d="M16.2966 37.7501C16.2966 35.5488 16.2966 35.5284 18.5046 35.5557C20.8482 35.583 20.751 35.089 20.751 37.7684C20.7533 40.2633 20.9477 40.088 18.4323 40.0858C15.8288 40.0812 16.3418 40.1973 16.2966 37.7501ZM19.6436 36.5846C18.7781 36.5846 18.0503 36.5846 17.3091 36.5846C17.3091 37.4314 17.3091 38.1895 17.3091 38.9202C18.1407 38.9202 18.873 38.9202 19.6436 38.9202C19.6436 38.1166 19.6436 37.3814 19.6436 36.5846Z" fill="black"/>
<path id="Vector_17" d="M16.283 29.177C17.6481 29.177 18.8097 29.1315 19.9623 29.2112C20.2312 29.2294 20.6697 29.6482 20.6945 29.9146C20.7872 30.8889 20.803 31.8837 20.7036 32.8557C20.6742 33.1494 20.1928 33.5887 19.8809 33.6229C18.9543 33.7253 18.0029 33.7162 17.074 33.6297C16.7915 33.6047 16.3373 33.1972 16.3192 32.9422C16.2378 31.7448 16.283 30.5406 16.283 29.177ZM17.2593 32.512C18.1385 32.512 18.9001 32.512 19.621 32.512C19.621 31.6788 19.621 30.939 19.621 30.2128C18.7848 30.2128 18.0255 30.2128 17.2593 30.2128C17.2593 31.0232 17.2593 31.7334 17.2593 32.512Z" fill="black"/>
<path id="Vector_18" d="M26.7016 16.352C26.7016 17.7679 26.7468 18.938 26.6677 20.099C26.6496 20.3539 26.2111 20.7637 25.9377 20.7864C24.9681 20.8707 23.985 20.873 23.0155 20.7842C22.7353 20.7591 22.2946 20.3425 22.2674 20.0716C22.1725 19.0973 22.1793 18.1048 22.2516 17.1282C22.272 16.8551 22.6381 16.3998 22.8686 16.3861C24.0935 16.311 25.323 16.352 26.7016 16.352ZM25.6665 19.7985C25.6665 18.979 25.6665 18.2141 25.6665 17.4356C24.8348 17.4356 24.08 17.4356 23.359 17.4356C23.359 18.2642 23.359 19.004 23.359 19.7985C24.1455 19.7985 24.8732 19.7985 25.6665 19.7985Z" fill="black"/>
<path id="Vector_19" d="M14.719 18.6898C14.6648 21.014 15.11 20.8228 12.633 20.8137C10.2081 20.8046 10.2081 20.7978 10.2081 18.321C10.2081 18.1321 10.2329 17.9386 10.2035 17.7542C10.034 16.6501 10.5177 16.2153 11.5889 16.3428C11.8488 16.3724 12.1155 16.3451 12.3777 16.3428C15.2117 16.336 14.6625 16.1584 14.719 18.6898ZM13.6794 17.4309C12.859 17.4309 12.1042 17.4309 11.3403 17.4309C11.3403 18.255 11.3403 18.9903 11.3403 19.7688C12.1449 19.7688 12.8952 19.7688 13.6794 19.7688C13.6794 18.9425 13.6794 18.2072 13.6794 17.4309Z" fill="black"/>
<path id="Vector_20" d="M30.4374 27.2057C28.2926 27.2057 28.2926 27.2057 28.2768 25.0704C28.2565 22.7667 28.2565 22.7576 30.4961 22.769C33.0544 22.7826 32.7426 22.4594 32.7607 25.0772C32.7765 27.5517 32.9889 27.1738 30.4374 27.2057ZM29.287 26.1699C30.121 26.1699 30.8532 26.1699 31.6013 26.1699C31.6013 25.339 31.6013 24.5719 31.6013 23.8275C30.7899 23.8275 30.0622 23.8275 29.287 23.8275C29.287 24.6288 29.287 25.3368 29.287 26.1699Z" fill="black"/>
<path id="Vector_21" d="M30.5233 16.3627C32.8217 16.4242 32.7832 15.8596 32.7629 18.5868C32.7448 20.9952 33.0657 20.8472 30.5278 20.8268C28.2813 20.8086 28.2565 20.8086 28.2859 18.5435C28.3175 16.1555 27.7796 16.39 30.5233 16.3627ZM29.3074 17.4007C29.3074 18.218 29.3074 18.9783 29.3074 19.7568C30.1323 19.7568 30.8826 19.7568 31.6216 19.7568C31.6216 18.9237 31.6216 18.1884 31.6216 17.4007C30.8374 17.4007 30.1119 17.4007 29.3074 17.4007Z" fill="black"/>
<path id="Vector_22" d="M26.6948 22.7731C26.6948 24.1663 26.7242 25.3682 26.6677 26.5679C26.6564 26.7887 26.3309 27.0459 26.0914 27.1848C25.9196 27.285 25.6507 27.2167 25.4269 27.2189C21.9375 27.2713 21.7883 27.1188 22.2539 23.5903C22.2946 23.2876 22.7579 22.8346 23.0517 22.8095C24.202 22.7185 25.3659 22.7731 26.6948 22.7731ZM25.6801 26.1741C25.6801 25.3136 25.6801 24.5783 25.6801 23.8111C24.8506 23.8111 24.0958 23.8111 23.3477 23.8111C23.3477 24.6375 23.3477 25.3773 23.3477 26.1741C24.1297 26.1741 24.8597 26.1741 25.6801 26.1741Z" fill="black"/>
<path id="Vector_23" d="M12.4164 27.2216C9.88976 27.2033 10.2197 27.4651 10.2129 24.9588C10.2062 22.4001 9.96208 22.819 12.3622 22.7803C14.7013 22.7416 14.7148 22.7575 14.7148 25.0794C14.7148 27.5357 15.0245 27.192 12.4164 27.2216ZM11.3542 23.7864C11.3542 24.6105 11.3542 25.3708 11.3542 26.1698C12.152 26.1698 12.8752 26.1698 13.6685 26.1698C13.6685 25.3458 13.6685 24.5809 13.6685 23.7864C12.8594 23.7864 12.1317 23.7864 11.3542 23.7864Z" fill="black"/>
<path id="Vector_24" d="M16.2942 18.5327C16.3575 16.1493 15.8174 16.3701 18.4525 16.3701C20.8753 16.3701 20.7442 15.9489 20.7555 18.6806C20.7645 20.8296 20.7577 20.8296 18.6469 20.825C18.6085 20.825 18.5723 20.825 18.5339 20.825C16.2942 20.8273 16.2942 20.8273 16.2942 18.5327ZM17.2977 17.4058C17.2977 18.2914 17.2977 19.0312 17.2977 19.787C18.1203 19.787 18.8548 19.787 19.621 19.787C19.621 18.9538 19.621 18.1844 19.621 17.4058C18.8074 17.4058 18.0729 17.4058 17.2977 17.4058Z" fill="black"/>
<path id="Vector_25" d="M16.2876 24.8977C16.3261 22.446 15.9057 22.767 18.4392 22.7761C20.8958 22.7852 20.7692 22.2821 20.7511 25.1231C20.7376 27.3426 21.0653 27.2083 18.6109 27.2037C16.3057 27.2037 16.3057 27.206 16.2876 24.8977ZM19.5963 26.1702C19.5963 25.3097 19.5963 24.5494 19.5963 23.8187C18.7669 23.8187 18.0369 23.8187 17.2753 23.8187C17.2753 24.6405 17.2753 25.3758 17.2753 26.1702C18.0708 26.1702 18.803 26.1702 19.5963 26.1702Z" fill="black"/>
</g>
</g>
<defs>
<clipPath id="clip0_387_4268">
<rect width="48" height="56" fill="white"/>
</clipPath>
</defs>
</svg>
