<svg width="39" height="55" viewBox="0 0 39 55" fill="none" xmlns="http://www.w3.org/2000/svg">
<g id="Frame" clip-path="url(#clip0_387_4256)">
<path id="Vector" d="M36.5567 52.5436C37.027 52.5436 37.4071 52.5323 37.785 52.5459C38.4642 52.5696 38.987 53.0843 38.9984 53.7255C39.0098 54.3362 38.5327 54.8973 37.8774 54.9323C36.8535 54.9876 35.825 54.9977 34.7988 54.9989C24.5639 55.0023 14.329 55.0011 4.09531 54.9977C3.18324 54.9977 2.27002 54.9797 1.35795 54.956C0.549752 54.9345 -0.00502638 54.4265 -0.000460305 53.7368C0.00410577 53.0392 0.565733 52.5504 1.37279 52.5447C1.6947 52.5425 2.01775 52.5447 2.44239 52.5447C2.44239 52.2851 2.44239 52.0526 2.44239 51.8189C2.44239 37.3707 2.44239 16.1494 2.44239 1.70118C2.44239 1.64474 2.44125 1.5883 2.44239 1.53185C2.45038 0.422191 2.87274 0.00338656 3.99942 0.00338656C8.43194 0 12.8645 0 17.297 0C23.1564 0 29.0158 0.00112885 34.8752 0.00225771C36.1868 0.00225771 36.5578 0.377037 36.5578 1.68876C36.5578 16.155 36.5567 37.3955 36.5567 51.8618C36.5567 52.0661 36.5567 52.2693 36.5567 52.5436ZM4.92634 2.43832C4.92634 16.9091 4.92634 38.0965 4.92634 52.4996C8.17053 52.4996 11.3736 52.4996 14.6076 52.4996C14.6076 50.5399 14.6019 48.622 14.6098 46.7052C14.6133 45.784 15.0916 45.3201 16.0173 45.319C18.338 45.3156 20.6588 45.3156 22.9783 45.319C23.9098 45.3201 24.3847 45.7784 24.3892 46.7007C24.3984 48.4312 24.3927 50.1617 24.3927 51.8923C24.3927 52.0932 24.3927 52.293 24.3927 52.5098C27.6608 52.5098 30.8639 52.5098 34.0773 52.5098C34.0773 38.0616 34.0773 16.8741 34.0773 2.43832C24.3493 2.43832 14.6555 2.43832 4.92634 2.43832ZM17.1212 47.7674C17.1212 49.3659 17.1212 50.9305 17.1212 52.5143C18.7216 52.5143 20.2878 52.5143 21.8779 52.5143C21.8779 50.9226 21.8779 49.358 21.8779 47.7674C20.2775 47.7674 18.7113 47.7674 17.1212 47.7674Z" fill="black"/>
<path id="Vector_2" d="M14.6079 28.4916C13.7678 28.4916 13.0281 28.4916 12.1925 28.4916C12.1925 28.679 12.1925 28.8573 12.1925 29.0345C12.1925 30.0505 12.2027 31.0654 12.189 32.0813C12.1799 32.7665 11.6719 33.2632 11.0064 33.2779C10.3615 33.2926 9.79527 32.8523 9.78157 32.1931C9.74618 30.5021 9.74732 28.8088 9.78499 27.1178C9.79869 26.4935 10.309 26.0487 10.9642 26.0386C12.5988 26.0149 14.2358 26.0137 15.8704 26.0397C16.5782 26.051 17.0713 26.5691 17.0816 27.2882C17.1021 28.8675 17.1021 30.4479 17.0816 32.0271C17.0713 32.7756 16.5165 33.2915 15.8179 33.2768C15.149 33.2621 14.6307 32.7473 14.6148 32.0237C14.5942 31.0654 14.6091 30.1058 14.6091 29.1463C14.6079 28.9454 14.6079 28.7433 14.6079 28.4916Z" fill="black"/>
<path id="Vector_3" d="M26.8085 28.5013C25.9809 28.5013 25.2263 28.5013 24.3942 28.5013C24.3942 29.4902 24.3953 30.461 24.3942 31.4307C24.3942 31.6745 24.409 31.9217 24.3805 32.1633C24.3028 32.818 23.7903 33.2741 23.1556 33.2752C22.5209 33.2763 21.9513 32.8248 21.9365 32.1689C21.8977 30.496 21.8977 28.8219 21.9353 27.1489C21.9502 26.5066 22.4901 26.0449 23.159 26.037C24.7754 26.0167 26.3918 26.0156 28.0082 26.0381C28.7365 26.0483 29.2251 26.5281 29.2365 27.2562C29.2639 28.8546 29.2639 30.4531 29.2376 32.0515C29.2251 32.8203 28.6771 33.3057 27.9671 33.2741C27.2776 33.2436 26.8153 32.7447 26.8096 31.9974C26.8028 30.8516 26.8085 29.7069 26.8085 28.5013Z" fill="black"/>
<path id="Vector_4" d="M14.608 18.87C13.7827 18.87 13.0122 18.87 12.1925 18.87C12.1925 20.0282 12.1948 21.1525 12.1914 22.278C12.1891 23.1054 11.7336 23.6247 11.0076 23.6394C10.2679 23.6552 9.76681 23.163 9.75654 22.3378C9.73713 20.7958 9.73599 19.2526 9.75768 17.7106C9.77024 16.8504 10.2508 16.4226 11.1355 16.4215C12.6571 16.4181 14.1788 16.4181 15.7004 16.4215C16.592 16.4237 17.0771 16.8888 17.084 17.7739C17.0954 19.2786 17.0931 20.7834 17.084 22.2881C17.0794 23.1032 16.5931 23.6303 15.8728 23.6405C15.1228 23.6507 14.6183 23.1178 14.6114 22.2791C14.6011 21.1536 14.608 20.0282 14.608 18.87Z" fill="black"/>
<path id="Vector_5" d="M26.8062 18.8618C25.9797 18.8618 25.2263 18.8618 24.3919 18.8618C24.3919 19.8936 24.393 20.9017 24.3907 21.9097C24.3907 22.1355 24.4079 22.3647 24.3725 22.5859C24.2697 23.2361 23.7435 23.6628 23.0997 23.6414C22.4912 23.6211 21.9456 23.1729 21.9319 22.5419C21.8965 20.8689 21.8942 19.1937 21.9342 17.5207C21.949 16.8638 22.4844 16.4291 23.1556 16.4246C24.772 16.4133 26.3895 16.4133 28.0059 16.4235C28.7114 16.428 29.2159 16.8649 29.2285 17.5704C29.2604 19.2061 29.2604 20.843 29.2273 22.4787C29.2125 23.2158 28.6657 23.6662 27.9614 23.6403C27.2856 23.6154 26.8107 23.1007 26.8062 22.3635C26.8016 21.2155 26.8062 20.0697 26.8062 18.8618Z" fill="black"/>
<path id="Vector_6" d="M14.608 8.48423C13.7827 8.48423 13.0122 8.48423 12.1925 8.48423C12.1925 9.64243 12.1948 10.7668 12.1914 11.8922C12.1891 12.7197 11.7336 13.239 11.0076 13.2536C10.2679 13.2694 9.76681 12.7773 9.75654 11.9521C9.73713 10.41 9.73599 8.86691 9.75768 7.32489C9.77024 6.46471 10.2508 6.03687 11.1355 6.03574C12.6571 6.03236 14.1788 6.03236 15.7004 6.03574C16.592 6.038 17.0771 6.50309 17.084 7.38811C17.0954 8.89287 17.0931 10.3976 17.084 11.9024C17.0794 12.7174 16.5931 13.2446 15.8728 13.2548C15.1228 13.2649 14.6183 12.7321 14.6114 11.8934C14.6011 10.7679 14.608 9.64243 14.608 8.48423Z" fill="black"/>
<path id="Vector_7" d="M26.8062 8.47608C25.9797 8.47608 25.2263 8.47608 24.3919 8.47608C24.3919 9.50785 24.393 10.5159 24.3907 11.524C24.3907 11.7498 24.4079 11.9789 24.3725 12.2002C24.2697 12.8504 23.7435 13.2771 23.0997 13.2556C22.4912 13.2353 21.9456 12.7872 21.9319 12.1561C21.8965 10.4832 21.8942 8.80796 21.9342 7.135C21.949 6.47801 22.4844 6.0434 23.1556 6.03889C24.772 6.0276 26.3895 6.0276 28.0059 6.03776C28.7114 6.04227 29.2159 6.47914 29.2285 7.18467C29.2604 8.82038 29.2604 10.4572 29.2273 12.0929C29.2125 12.8301 28.6657 13.2805 27.9614 13.2545C27.2856 13.2297 26.8107 12.7149 26.8062 11.9778C26.8016 10.8297 26.8062 9.68395 26.8062 8.47608Z" fill="black"/>
<path id="Vector_8" d="M14.6078 38.1161C13.7597 38.1161 13.0051 38.1161 12.1924 38.1161C12.1924 39.2641 12.1946 40.3873 12.1912 41.5105C12.1889 42.3594 11.7084 42.9182 10.9846 42.9272C10.2758 42.9363 9.7575 42.3696 9.75065 41.5263C9.7381 40.0216 9.73467 38.5168 9.75294 37.0121C9.76321 36.1383 10.2187 35.6879 11.0976 35.6778C12.6387 35.6619 14.1797 35.6597 15.7197 35.6778C16.6169 35.6879 17.0781 36.1699 17.0838 37.0617C17.0929 38.5473 17.0918 40.034 17.0838 41.5196C17.0792 42.3572 16.5712 42.9239 15.8486 42.9261C15.1272 42.9284 14.6158 42.3617 14.609 41.5252C14.5998 40.4009 14.6078 39.2765 14.6078 38.1161Z" fill="black"/>
<path id="Vector_9" d="M26.8088 38.1194C25.9618 38.1194 25.2072 38.1194 24.3933 38.1194C24.3933 39.1387 24.3933 40.131 24.3933 41.1221C24.3933 41.3287 24.4047 41.5376 24.3853 41.743C24.3237 42.4203 23.7975 42.9227 23.1594 42.9272C22.5212 42.9317 21.9425 42.4327 21.9299 41.7554C21.898 40.1197 21.8991 38.4829 21.9288 36.8472C21.9402 36.1811 22.4219 35.707 23.0989 35.6946C24.7529 35.6653 26.4081 35.6641 28.0622 35.6924C28.7642 35.7036 29.2174 36.1428 29.23 36.8325C29.2619 38.4682 29.2619 40.105 29.2322 41.7408C29.2197 42.4531 28.6249 42.9622 27.9709 42.926C27.2974 42.8888 26.8156 42.3639 26.8099 41.638C26.8031 40.4753 26.8088 39.3137 26.8088 38.1194Z" fill="black"/>
</g>
<defs>
<clipPath id="clip0_387_4256">
<rect width="39" height="55" fill="white"/>
</clipPath>
</defs>
</svg>
