<svg width="41" height="47" viewBox="0 0 41 47" fill="none" xmlns="http://www.w3.org/2000/svg">
<g id="Frame" clip-path="url(#clip0_387_4248)">
<g id="Group">
<path id="Vector" d="M13.8796 19.9039C12.4479 17.44 10.9982 14.9431 9.54655 12.4462C7.63567 9.15992 5.71678 5.8766 3.8189 2.58233C3.6048 2.21054 3.3937 2.01816 2.93349 2.05604C2.3202 2.10588 1.70092 2.07398 1.08363 2.06601C0.488353 2.05804 0.0421465 1.65634 0.00212791 1.11012C-0.0368902 0.571873 0.364296 0.106388 0.953569 0.0196706C1.11764 -0.00425148 1.28572 0.00272581 1.4528 0.00272581C7.97282 0.00172905 14.4918 0.00172905 21.0119 0.00172905C21.195 0.00172905 21.38 -0.00724175 21.5611 0.0156836C22.1894 0.0944273 22.5796 0.546954 22.5336 1.12707C22.4885 1.69322 22.0754 2.06302 21.4481 2.06501C19.7803 2.07099 18.1135 2.068 16.4457 2.068C15.6464 2.068 14.847 2.068 13.9746 2.068C14.0646 2.2853 14.1297 2.46272 14.2097 2.63217C14.6639 3.59204 15.1281 4.54693 15.5783 5.5088C15.9065 6.21052 15.7334 6.8006 15.1391 7.06474C14.5679 7.31891 14.0346 7.06872 13.7035 6.37897C13.0732 5.06226 12.4559 3.73956 11.8116 2.43082C11.7356 2.27632 11.5245 2.08594 11.3734 2.08395C9.62259 2.06003 7.87178 2.07 6.12096 2.07199C6.07694 2.07199 6.03392 2.09691 5.93388 2.12581C9.05532 7.49633 12.1648 12.8439 15.2732 18.1915C15.2452 16.4881 15.7684 15.1345 17.5142 14.4567C17.4552 14.3092 17.4092 14.1756 17.3492 14.048C16.8439 12.9845 16.3327 11.9239 15.8315 10.8584C15.5143 10.1846 15.6824 9.5935 16.2517 9.32837C16.8279 9.05924 17.3702 9.29847 17.6993 9.98224C18.3246 11.283 18.9519 12.5828 19.5572 13.8925C19.7003 14.2025 19.8723 14.3012 20.2225 14.3401C20.9929 14.4238 21.373 14.1507 21.7052 13.428C23.3449 9.85665 25.0587 6.31817 26.7465 2.76772C26.8436 2.56239 26.9366 2.35507 27.0677 2.069C26.5624 2.069 26.1362 2.07398 25.71 2.068C25.0728 2.05804 24.6295 1.66033 24.6075 1.08919C24.5855 0.517052 24.9967 0.0784792 25.626 0.0126934C25.7751 -0.00325472 25.9261 0.00471932 26.0762 0.00471932C30.5613 0.00471932 35.0474 0.00471932 39.5325 0.00471932C39.6825 0.00471932 39.8336 -0.00325472 39.9827 0.0126934C40.6059 0.0814695 41.0291 0.536987 40.9981 1.09617C40.9671 1.66232 40.5159 2.06103 39.8816 2.068C39.2643 2.07498 38.646 2.09292 38.0308 2.06103C37.6496 2.04109 37.4415 2.1617 37.2474 2.50059C35.5106 5.52375 33.7598 8.53994 31.986 11.5422C31.8169 11.8282 31.4977 12.0934 31.1876 12.214C30.7914 12.3685 30.3972 12.1881 30.1441 11.8213C29.881 11.4395 29.905 11.0398 30.1321 10.6481C30.9405 9.2556 31.7518 7.86413 32.5612 6.47167C33.3956 5.03734 34.229 3.60301 35.0904 2.12083C34.9623 2.0999 34.8763 2.07299 34.7893 2.07299C33.1055 2.07 31.4207 2.06202 29.7369 2.08196C29.5678 2.08395 29.3127 2.21353 29.2447 2.35407C27.3208 6.36103 25.4159 10.376 23.485 14.4377C25.1908 15.1066 25.7861 16.4303 25.7311 18.1825C25.8221 18.038 25.9181 17.8975 26.0042 17.75C26.5564 16.803 27.0977 15.8511 27.6599 14.9102C28.0061 14.3311 28.5874 14.1676 29.1076 14.4716C29.6209 14.7707 29.7659 15.3657 29.4348 15.9458C28.6694 17.2865 27.8891 18.6191 27.1357 19.9159C28.0271 20.5488 28.9646 21.105 29.7729 21.8087C33.3616 24.9306 35.0604 28.8797 34.8193 33.6332C34.7832 34.335 34.316 34.7735 33.7218 34.7217C33.1145 34.6689 32.7383 34.1914 32.7783 33.4857C33.1625 26.6679 28.5063 21.9662 22.9858 20.7582C18.1215 19.6936 13.2313 21.6034 10.3689 25.7738C10.3029 25.8695 10.2409 25.9682 10.1738 26.0629C9.78666 26.6141 9.27042 26.7806 8.76019 26.5194C8.26095 26.2632 8.06587 25.721 8.39502 25.101C8.72617 24.4781 9.13336 23.874 9.61058 23.3567C10.2279 22.6869 10.9192 22.0769 11.6305 21.5037C12.3308 20.9406 13.0922 20.4591 13.8796 19.9039ZM23.5681 18.7148C23.5681 18.2144 23.6021 17.749 23.559 17.2904C23.513 16.7971 23.2289 16.4143 22.7077 16.4033C21.243 16.3734 19.7763 16.3754 18.3116 16.4043C17.8464 16.4133 17.5313 16.7303 17.4892 17.1968C17.4452 17.6852 17.4792 18.1806 17.4792 18.7078C19.5022 18.2932 21.5001 18.2982 23.5681 18.7148Z" fill="black"/>
<path id="Vector_2" d="M20.8167 47.0001C13.5764 46.8994 7.89574 42.2795 6.43907 35.5235C6.00687 33.518 6.05889 31.5006 6.5091 29.4981C6.65217 28.8642 7.18842 28.4894 7.74767 28.615C8.34895 28.7505 8.6701 29.2878 8.52103 29.9556C7.04935 36.5661 11.1222 42.7818 17.2171 44.4783C22.9747 46.0811 29.1656 43.2543 31.6748 37.812C31.7368 37.6765 31.7908 37.5369 31.8588 37.4044C32.153 36.8342 32.6962 36.6209 33.2295 36.8591C33.7627 37.0983 34.0299 37.6814 33.7277 38.2346C33.1014 39.3809 32.5192 40.581 31.7088 41.5927C28.8565 45.1581 25.0547 46.8725 20.8167 47.0001Z" fill="black"/>
<path id="Vector_3" d="M16.2573 38.588C17.3308 38.0288 18.3263 37.5344 19.2977 36.9972C20.1161 36.5436 20.9045 36.5516 21.7189 36.9902C22.7083 37.5224 23.7088 38.0368 24.7903 38.6039C24.5802 37.348 24.4021 36.1898 24.189 35.0375C24.0389 34.2272 24.288 33.5663 24.8583 33.0061C25.5706 32.3064 26.292 31.6157 27.0073 30.9189C27.1214 30.8073 27.2244 30.6847 27.3965 30.4963C26.8712 30.4126 26.436 30.3438 25.9998 30.274C25.7867 30.2402 25.5676 30.2222 25.3605 30.1654C24.8483 30.0259 24.5372 29.5354 24.6162 29.0221C24.6922 28.5237 25.1064 28.134 25.6287 28.1828C26.422 28.2576 27.2324 28.3214 27.9928 28.5387C29.4594 28.9583 29.9217 30.8512 28.8562 31.9775C28.1128 32.7619 27.3024 33.4826 26.5521 34.2621C26.398 34.4225 26.287 34.7226 26.314 34.9389C26.433 35.8918 26.6001 36.8397 26.7692 37.7856C27.0353 39.2737 26.343 40.412 24.9644 40.5775C24.5332 40.6293 24.0359 40.4888 23.6287 40.3044C22.7213 39.8917 21.8459 39.4073 20.9725 38.9259C20.6814 38.7654 20.4583 38.7375 20.1501 38.9069C19.2757 39.3864 18.3723 39.813 17.4919 40.2805C16.6335 40.736 15.7971 40.7629 15.0097 40.1609C14.2354 39.5688 14.0713 38.7554 14.2574 37.8384C14.3464 37.3998 14.3965 36.9523 14.5045 36.5197C14.6426 35.9625 15.1128 35.6784 15.6791 35.7662C16.1693 35.8419 16.5345 36.2596 16.4964 36.7928C16.4554 37.363 16.3484 37.9281 16.2573 38.588Z" fill="black"/>
<path id="Vector_4" d="M20.5094 25.4792C20.0171 26.469 19.5249 27.3182 19.1637 28.2193C18.6585 29.4811 17.7301 29.9925 16.4315 30.0892C15.5231 30.157 14.6236 30.3414 13.6642 30.4829C14.1104 30.9504 14.5506 31.3481 14.9098 31.8086C15.1289 32.0897 15.361 32.4724 15.349 32.8003C15.321 33.5818 14.3525 33.9955 13.7442 33.4891C13.1209 32.9698 12.5047 32.4116 12.0124 31.7727C11.007 30.4679 11.8484 28.6638 13.5371 28.4076C14.5236 28.2581 15.5121 28.1206 16.5015 27.995C16.8067 27.9561 17.0047 27.8535 17.1478 27.5524C17.582 26.6394 18.0592 25.7463 18.5124 24.8423C18.9266 24.0149 19.5729 23.5166 20.5164 23.5186C21.4588 23.5206 22.1061 24.0149 22.5093 24.8522C22.8114 25.4792 23.1346 26.0972 23.4337 26.7261C23.7319 27.3531 23.5498 27.9362 22.9935 28.2013C22.4543 28.4575 21.909 28.2462 21.5919 27.6352C21.2407 26.9584 20.9086 26.2756 20.5094 25.4792Z" fill="black"/>
</g>
</g>
<defs>
<clipPath id="clip0_387_4248">
<rect width="41" height="47" fill="white"/>
</clipPath>
</defs>
</svg>
