<svg width="49" height="50" viewBox="0 0 49 50" fill="none" xmlns="http://www.w3.org/2000/svg">
<g id="Frame" clip-path="url(#clip0_387_4297)">
<g id="Group">
<path id="Vector" d="M0 3.65999C0.247871 4.37319 0.553164 5.04506 1.18289 5.51893C2.26434 6.33402 3.70754 6.384 4.79281 5.62754C5.91254 4.84706 6.39488 3.45622 5.99389 2.16246C5.61012 0.924452 4.44732 0.0324688 3.18596 0.00940037C1.76859 -0.016552 0.600059 0.792769 0.150254 2.11056C0.105273 2.24416 0.0507227 2.37392 0 2.50561C0 2.89104 0 3.27552 0 3.65999Z" fill="black"/>
<path id="Vector_2" d="M49.0001 2.5066C48.8652 2.18652 48.7599 1.84915 48.5905 1.54829C47.8813 0.289139 46.3903 -0.289495 45.016 0.140156C43.6225 0.575574 42.745 1.93661 42.8847 3.44472C43.0072 4.76635 44.1393 5.94188 45.4811 6.13989C46.9205 6.35231 48.3091 5.52088 48.8154 4.14446C48.8747 3.98202 48.9379 3.8215 49.0001 3.66002C49.0001 3.27555 49.0001 2.89107 49.0001 2.5066Z" fill="black"/>
<path id="Vector_3" d="M49.0001 46.3337C48.8652 46.0137 48.7599 45.6763 48.5905 45.3754C47.8813 44.1163 46.3903 43.5377 45.016 43.9673C43.6225 44.4027 42.745 45.7638 42.8847 47.2719C43.0072 48.5935 44.1393 49.769 45.4811 49.967C46.9205 50.1795 48.3091 49.348 48.8154 47.9716C48.8747 47.8092 48.9379 47.6486 49.0001 47.4872C49.0001 47.1027 49.0001 46.7182 49.0001 46.3337Z" fill="black"/>
<path id="Vector_4" d="M3.84154 7.66491C3.29221 7.66491 2.83283 7.66491 2.29881 7.66491C2.29881 7.80428 2.29881 7.97057 2.29881 8.13782C2.29881 20.6784 2.29785 33.219 2.29785 45.7587C2.29785 46.7266 2.47969 46.9121 3.43098 46.9121C15.9174 46.9121 28.4038 46.9111 40.8892 46.9111C41.0471 46.9111 41.205 46.9111 41.3754 46.9111C41.3754 46.395 41.3754 45.9106 41.3754 45.3886C28.8909 45.3886 16.394 45.3886 3.84059 45.3886C3.84154 32.7903 3.84154 20.2276 3.84154 7.66491Z" fill="black"/>
<path id="Vector_5" d="M14.898 33.1456C14.8051 32.9485 14.7841 32.8101 14.7056 32.7572C14.4798 32.6054 14.2166 32.3641 13.9945 32.3901C13.7505 32.4189 13.4031 32.664 13.3332 32.888C13.0528 33.7847 12.8356 34.7046 12.6509 35.6273C12.536 36.2002 13.0174 36.652 13.5821 36.5097C14.4759 36.2838 15.3583 36.0109 16.2378 35.734C16.59 35.6235 16.7805 35.3515 16.7594 34.9632C16.7345 34.4989 16.434 34.299 16.1861 34.2423C22.0834 28.23 28.039 22.1573 34.0664 16.0124C34.1324 16.22 34.1487 16.3065 34.186 16.3834C34.342 16.6987 34.6071 16.9284 34.9459 16.8275C35.1995 16.7515 35.5268 16.542 35.6033 16.318C35.9 15.4434 36.1364 14.5447 36.3441 13.644C36.48 13.0539 36.0005 12.5829 35.4091 12.7203C34.5267 12.9251 33.6548 13.1769 32.782 13.422C32.4203 13.5239 32.225 13.7863 32.2116 14.164C32.1982 14.5293 32.3983 14.7561 32.7772 14.9234C26.8523 20.9606 20.8938 27.0334 14.898 33.1456Z" fill="black"/>
<path id="Vector_6" d="M46.7003 39.9914C46.6984 39.5474 46.3548 39.2148 45.9117 39.2273C45.4897 39.2388 45.1748 39.5685 45.1758 39.9953C45.1767 40.4403 45.5194 40.7719 45.9634 40.7594C46.3845 40.746 46.7013 40.4163 46.7003 39.9914Z" fill="black"/>
<path id="Vector_7" d="M45.9328 37.6836C46.374 37.6865 46.7089 37.3433 46.7003 36.8973C46.6917 36.4734 46.3654 36.1524 45.9424 36.1505C45.5184 36.1495 45.1882 36.4667 45.1748 36.8887C45.1595 37.3337 45.4916 37.6817 45.9328 37.6836Z" fill="black"/>
<path id="Vector_8" d="M45.9423 34.6074C46.3854 34.6045 46.7147 34.2595 46.7003 33.8135C46.6859 33.3905 46.3558 33.0733 45.9328 33.0762C45.4897 33.0791 45.1614 33.4242 45.1757 33.8711C45.1891 34.295 45.5174 34.6103 45.9423 34.6074Z" fill="black"/>
<path id="Vector_9" d="M45.9136 31.532C46.3577 31.5426 46.7013 31.209 46.7003 30.7659C46.6994 30.343 46.3788 30.0104 45.9596 29.9998C45.5184 29.9874 45.1748 30.3238 45.1748 30.7688C45.1748 31.1946 45.4897 31.5214 45.9136 31.532Z" fill="black"/>
<path id="Vector_10" d="M45.9223 26.924C45.4954 26.9317 45.1729 27.2633 45.1758 27.693C45.1777 28.1428 45.527 28.4754 45.9768 28.4552C46.3998 28.4369 46.7137 28.0928 46.7004 27.6622C46.686 27.2354 46.3501 26.9163 45.9223 26.924Z" fill="black"/>
<path id="Vector_11" d="M46.7004 24.6056C46.6956 24.1625 46.3482 23.8318 45.9051 23.8481C45.485 23.8635 45.1711 24.1971 45.1758 24.6229C45.1806 25.0669 45.5261 25.3966 45.9702 25.3803C46.3903 25.3639 46.7052 25.0304 46.7004 24.6056Z" fill="black"/>
<path id="Vector_12" d="M46.7003 21.5307C46.6984 21.1059 46.3778 20.7791 45.9548 20.7714C45.5107 20.7637 45.17 21.1001 45.1739 21.5442C45.1777 21.969 45.4983 22.2958 45.9194 22.3045C46.3615 22.3141 46.7022 21.9758 46.7003 21.5307Z" fill="black"/>
<path id="Vector_13" d="M46.6992 18.4855C46.7097 18.0597 46.4006 17.7204 45.9814 17.6973C45.5373 17.6733 45.1851 17.9982 45.1746 18.4413C45.1631 18.8883 45.4952 19.2295 45.9393 19.2285C46.3652 19.2276 46.6886 18.9104 46.6992 18.4855Z" fill="black"/>
<path id="Vector_14" d="M45.9262 14.6201C45.4869 14.6259 45.1586 14.9767 45.1749 15.4227C45.1912 15.8476 45.5204 16.159 45.9472 16.1532C46.3884 16.1465 46.7186 15.7966 46.7004 15.3526C46.6841 14.9316 46.3482 14.6144 45.9262 14.6201Z" fill="black"/>
<path id="Vector_15" d="M46.6995 12.3032C46.6947 11.8745 46.3674 11.5477 45.9396 11.5457C45.5108 11.5438 45.1816 11.8677 45.1749 12.2964C45.1673 12.7482 45.508 13.0875 45.9578 13.0769C46.3856 13.0673 46.7043 12.7347 46.6995 12.3032Z" fill="black"/>
<path id="Vector_16" d="M45.9262 8.46975C45.5041 8.47455 45.1816 8.79847 45.1749 9.22332C45.1682 9.66931 45.5041 10.0076 45.9482 10.0019C46.3712 9.99611 46.6947 9.67316 46.6995 9.24927C46.7062 8.80328 46.3693 8.46398 45.9262 8.46975Z" fill="black"/>
<path id="Vector_17" d="M9.95039 3.06475C9.94082 2.63606 9.60873 2.31406 9.18094 2.31791C8.73592 2.32079 8.40383 2.67643 8.42584 3.12723C8.44689 3.55304 8.78951 3.86542 9.21826 3.85004C9.64318 3.8337 9.95996 3.4944 9.95039 3.06475Z" fill="black"/>
<path id="Vector_18" d="M13.0128 3.08135C13.0128 2.6565 12.6941 2.32682 12.273 2.31721C11.8299 2.30663 11.4863 2.64209 11.4873 3.08519C11.4883 3.51004 11.807 3.83973 12.228 3.8503C12.6683 3.86183 13.0119 3.52542 13.0128 3.08135Z" fill="black"/>
<path id="Vector_19" d="M15.3267 3.84947C15.7698 3.84178 16.0943 3.49191 16.0742 3.04592C16.055 2.62396 15.7201 2.31061 15.2961 2.3183C14.8539 2.32599 14.5295 2.67586 14.5487 3.12281C14.5688 3.54574 14.9008 3.85716 15.3267 3.84947Z" fill="black"/>
<path id="Vector_20" d="M19.1389 3.09636C19.1456 2.65326 18.8049 2.31012 18.3637 2.31684C17.9426 2.32261 17.6201 2.64749 17.6134 3.07234C17.6067 3.50102 17.9168 3.8336 18.3388 3.84994C18.7819 3.86724 19.1322 3.53755 19.1389 3.09636Z" fill="black"/>
<path id="Vector_21" d="M22.1992 3.08542C22.2002 2.65577 21.8757 2.32416 21.4498 2.31743C21.0201 2.3107 20.6861 2.62981 20.6747 3.0585C20.6622 3.51026 20.9981 3.85437 21.4479 3.84956C21.8757 3.84475 22.1992 3.51603 22.1992 3.08542Z" fill="black"/>
<path id="Vector_22" d="M25.2627 3.08346C25.2618 2.65381 24.9383 2.32412 24.5105 2.31835C24.0645 2.31162 23.7248 2.65957 23.7382 3.10941C23.7506 3.5381 24.0837 3.85721 24.5134 3.85048C24.9393 3.84279 25.2637 3.51215 25.2627 3.08346Z" fill="black"/>
<path id="Vector_23" d="M27.5779 2.31834C27.1339 2.31161 26.7951 2.64995 26.7999 3.09402C26.8046 3.51886 27.1262 3.84471 27.5483 3.85143C27.9894 3.85912 28.3301 3.51982 28.3263 3.07576C28.3215 2.64995 28 2.32411 27.5779 2.31834Z" fill="black"/>
<path id="Vector_24" d="M30.623 2.31748C30.1799 2.31844 29.8497 2.66158 29.8622 3.10853C29.8746 3.53338 30.2009 3.84961 30.6259 3.84961C31.0699 3.84865 31.4001 3.5055 31.3877 3.05951C31.3752 2.63563 31.046 2.31652 30.623 2.31748Z" fill="black"/>
<path id="Vector_25" d="M34.4513 3.07955C34.4484 2.63837 34.1001 2.30195 33.6589 2.31733C33.2397 2.33175 32.9239 2.66432 32.9258 3.09012C32.9277 3.51785 33.2445 3.84177 33.6684 3.85042C34.1125 3.85907 34.4532 3.52266 34.4513 3.07955Z" fill="black"/>
<path id="Vector_26" d="M37.512 3.07561C37.5072 2.64692 37.1799 2.32012 36.7521 2.3182C36.3233 2.31628 35.9941 2.6402 35.9874 3.06889C35.9798 3.52064 36.3205 3.85994 36.7703 3.84937C37.1981 3.83976 37.5168 3.50719 37.512 3.07561Z" fill="black"/>
<path id="Vector_27" d="M40.5752 3.06769C40.5666 2.639 40.2364 2.31604 39.8086 2.317C39.3636 2.31796 39.0306 2.67264 39.0507 3.12344C39.0698 3.5502 39.4105 3.86355 39.8402 3.84913C40.2651 3.83567 40.5829 3.49734 40.5752 3.06769Z" fill="black"/>
</g>
</g>
<defs>
<clipPath id="clip0_387_4297">
<rect width="49" height="50" fill="white" transform="matrix(1 0 0 -1 0 50)"/>
</clipPath>
</defs>
</svg>
