<svg width="62" height="53" viewBox="0 0 62 53" fill="none" xmlns="http://www.w3.org/2000/svg">
<g id="Frame" clip-path="url(#clip0_387_4334)">
<g id="Group">
<path id="Vector" d="M61.0439 51.1099C61.6143 51.1238 61.9792 51.4948 61.9984 52.0087C62.0175 52.5443 61.6372 52.9468 61.0528 52.9886C60.7989 53.0063 60.5424 52.9962 60.2871 52.9962C52.7595 52.9975 45.2306 53 37.7029 53C25.5393 53 13.3756 52.9975 1.21194 52.9937C0.402898 52.9937 -0.00927876 52.6557 -0.000346143 52.0265C0.00731038 51.4188 0.395241 51.1112 1.18514 51.1048C1.87805 51.0985 2.57097 51.1036 3.32131 51.1036C3.32131 50.7909 3.32131 50.5833 3.32131 50.3756C3.32131 48.5197 3.32003 46.6625 3.32003 44.8066C3.32003 39.8693 3.31876 34.9333 3.32259 29.996C3.32259 29.1237 3.62502 28.8237 4.50297 28.7996C4.77988 28.792 5.05551 28.7946 5.33242 28.7946C12.541 28.7958 19.7509 28.7971 26.9596 28.7946C27.2454 28.7946 27.5312 28.7629 27.8656 28.7439C27.8656 28.2755 27.8656 27.8767 27.8656 27.4792C27.8656 18.8301 27.8656 10.1797 27.8656 1.53056C27.8656 0.258259 28.1182 0.00126597 29.3854 0.00126597C38.5515 0 47.7164 0 56.8813 0C58.1714 0 58.4189 0.241801 58.4189 1.49891C58.4189 17.7008 58.4189 33.9041 58.4189 50.106C58.4189 50.3997 58.4189 50.6934 58.4189 51.1036C59.353 51.1048 60.1991 51.0884 61.0439 51.1099ZM56.4474 51.015C56.4474 34.6674 56.4474 18.3351 56.4474 1.96859C47.576 1.96859 38.7391 1.96859 29.8576 1.96859C29.8576 3.12316 29.8576 4.24608 29.8576 5.44369C30.1192 5.44369 30.3476 5.44369 30.5747 5.44369C32.9993 5.44369 35.4238 5.43989 37.8484 5.44749C38.1202 5.44875 38.475 5.4133 38.646 5.56016C38.9191 5.79563 39.2266 6.17162 39.224 6.48558C39.2215 6.76157 38.8514 7.08819 38.5694 7.28948C38.392 7.41608 38.0781 7.37303 37.8242 7.3743C35.4417 7.37936 33.0605 7.37683 30.6781 7.37683C30.4254 7.37683 30.1727 7.37683 29.8665 7.37683C29.8665 8.67699 29.8665 9.92903 29.8665 11.2811C30.1089 11.2811 30.354 11.2811 30.599 11.2811C33.0235 11.2811 35.4481 11.2811 37.8727 11.2824C38.0424 11.2824 38.2159 11.2697 38.3818 11.2963C38.905 11.3811 39.2483 11.6761 39.2636 12.2167C39.2789 12.7547 38.9573 13.0775 38.4354 13.1826C38.23 13.2244 38.013 13.2117 37.7999 13.2117C35.397 13.2142 32.9929 13.213 30.59 13.2142C30.3603 13.2142 30.1306 13.2142 29.8563 13.2142C29.8563 14.5245 29.8563 15.7766 29.8563 17.1172C30.123 17.1172 30.3693 17.1172 30.6168 17.1172C33.0197 17.1172 35.4238 17.116 37.8267 17.1198C38.059 17.1198 38.2976 17.1236 38.5222 17.1729C38.9969 17.278 39.2572 17.6021 39.261 18.0756C39.2649 18.5503 39.002 18.8744 38.535 18.9921C38.3333 19.0428 38.1138 19.0415 37.9033 19.0415C35.4787 19.0453 33.0542 19.044 30.6296 19.044C30.3808 19.044 30.1319 19.044 29.8473 19.044C29.8473 20.3721 29.8473 21.6266 29.8473 22.961C30.1562 22.961 30.428 22.961 30.6998 22.961C32.975 22.9597 35.2516 22.9597 37.5268 22.9597C37.7399 22.9597 37.9531 22.9546 38.1649 22.9648C38.8629 22.9989 39.2789 23.3661 39.27 23.9307C39.261 24.4953 38.8323 24.8688 38.1394 24.8713C35.97 24.8802 33.8007 24.8751 31.6313 24.8751C31.0596 24.8751 30.4879 24.8751 29.8639 24.8751C29.8639 26.1702 29.8639 27.4223 29.8639 28.7528C30.0975 28.768 30.3412 28.7958 30.5849 28.7958C32.9878 28.7996 35.3919 28.7984 37.7948 28.8009C38.0066 28.8009 38.2223 28.7971 38.4316 28.825C38.9484 28.8921 39.2381 29.2124 39.2623 29.7111C39.2878 30.2175 38.9943 30.5492 38.5082 30.672C38.2861 30.7277 38.0437 30.71 37.8101 30.71C27.2403 30.7113 16.6705 30.71 6.10063 30.71C5.83138 30.71 5.56212 30.71 5.25714 30.71C5.25714 37.5108 5.25714 44.2331 5.25714 51.0086C15.9303 51.0086 26.5895 51.0086 37.3303 51.0086C37.3303 50.7326 37.3303 50.4858 37.3303 50.2389C37.3316 47.4955 37.3303 44.7534 37.3342 42.0101C37.3354 40.8378 37.5741 40.6061 38.7557 40.6061C42.159 40.6049 45.5611 40.6049 48.9644 40.6061C50.0784 40.6061 50.3413 40.872 50.3413 42C50.3439 44.7421 50.3426 47.4854 50.3426 50.2275C50.3426 50.4769 50.3426 50.725 50.3426 51.0175C52.4073 51.015 54.3967 51.015 56.4474 51.015ZM44.8694 50.977C46.0192 50.977 47.1536 50.977 48.3442 50.977C48.3442 48.1804 48.3442 45.3725 48.3442 42.5266C47.1945 42.5266 46.0575 42.5266 44.8694 42.5266C44.8694 45.3358 44.8694 48.1298 44.8694 50.977ZM42.8532 50.9934C42.8532 48.169 42.8532 45.3637 42.8532 42.5228C41.6716 42.5228 40.5154 42.5228 39.3134 42.5228C39.3134 45.3485 39.3134 48.1513 39.3134 50.9934C40.4963 50.9934 41.6512 50.9934 42.8532 50.9934Z" fill="black"/>
<path id="Vector_2" d="M33.4935 36.7907C35.021 36.7907 36.5485 36.7933 38.0759 36.7882C38.8199 36.7857 39.2589 36.4388 39.2729 35.8602C39.2882 35.2792 38.848 34.9019 38.1142 34.9006C35.081 34.8943 32.0464 34.8943 29.0132 34.8981C28.2424 34.8994 27.8366 35.2273 27.8264 35.8223C27.8149 36.4413 28.2437 36.7895 29.0387 36.7907C30.5228 36.7945 32.0081 36.792 33.4935 36.7907Z" fill="black"/>
<path id="Vector_3" d="M21.6396 36.7905C22.4894 36.7905 23.3406 36.7993 24.1905 36.7879C24.8847 36.7778 25.2841 36.4094 25.2713 35.8195C25.2598 35.2485 24.8859 34.9054 24.2096 34.9016C22.5099 34.8902 20.8088 34.8915 19.1091 34.9016C18.4264 34.9054 18.0014 35.2979 18.0155 35.865C18.0295 36.4297 18.4544 36.7829 19.1537 36.7892C19.9807 36.7955 20.8101 36.7905 21.6396 36.7905Z" fill="black"/>
<path id="Vector_4" d="M21.6895 42.4886C22.5177 42.4886 23.3471 42.4949 24.1753 42.4861C24.8784 42.4797 25.2727 42.129 25.2689 41.534C25.2663 40.939 24.8848 40.6073 24.16 40.6048C22.4806 40.5972 20.8026 40.596 19.1233 40.6048C18.4342 40.6086 18.0054 40.9897 18.0118 41.5505C18.0194 42.1139 18.452 42.481 19.1373 42.4861C19.9884 42.4949 20.8396 42.4886 21.6895 42.4886Z" fill="black"/>
<path id="Vector_5" d="M11.4628 42.4888C12.3127 42.4888 13.1626 42.4964 14.0137 42.4862C14.6722 42.4786 15.0652 42.1305 15.0805 41.5684C15.0971 40.9747 14.7054 40.6101 14.0022 40.6063C12.3025 40.5974 10.6015 40.5974 8.90172 40.6063C8.25219 40.6101 7.83363 40.981 7.81832 41.5178C7.80173 42.0773 8.24454 42.4786 8.91448 42.4862C9.7618 42.4964 10.613 42.4888 11.4628 42.4888Z" fill="black"/>
<path id="Vector_6" d="M11.4908 47.9357C12.319 47.9357 13.1484 47.9421 13.9766 47.9332C14.6733 47.9256 15.0817 47.5673 15.0804 46.9863C15.0804 46.4039 14.681 46.052 13.9728 46.0482C12.2934 46.0406 10.6154 46.0393 8.93605 46.0482C8.24441 46.052 7.81309 46.4292 7.81692 46.9888C7.82075 47.5484 8.25462 47.9243 8.93988 47.9319C9.78975 47.9446 10.6396 47.9357 11.4908 47.9357Z" fill="black"/>
<path id="Vector_7" d="M11.4501 34.8961C10.6003 34.8961 9.74912 34.8873 8.89924 34.8999C8.25099 34.9101 7.83498 35.2772 7.8184 35.8165C7.80053 36.3773 8.24078 36.7837 8.912 36.7862C10.6118 36.7951 12.3128 36.7964 14.0125 36.7862C14.6672 36.7824 15.0691 36.4178 15.0819 35.8659C15.0959 35.2823 14.694 34.9101 13.9998 34.8999C13.1512 34.886 12.3 34.8961 11.4501 34.8961Z" fill="black"/>
<path id="Vector_8" d="M21.6242 46.0487C20.7744 46.0474 19.9245 46.0373 19.0746 46.0512C18.4263 46.0613 18.0167 46.4361 18.0142 46.9817C18.0116 47.5286 18.4238 47.9274 19.0593 47.9312C20.8011 47.9438 22.5443 47.9438 24.2861 47.9299C24.8923 47.9249 25.2649 47.5425 25.2687 46.9969C25.2726 46.4424 24.9127 46.0689 24.3002 46.055C23.4095 46.036 22.5175 46.0499 21.6242 46.0487Z" fill="black"/>
<path id="Vector_9" d="M30.5264 42.4871C31.0573 42.4871 31.5868 42.4998 32.1177 42.4846C32.7302 42.4668 33.1577 42.044 33.1347 41.506C33.113 40.9869 32.7098 40.6147 32.1075 40.6071C31.0254 40.5932 29.9432 40.5932 28.8624 40.6071C28.2116 40.6147 27.8224 40.9856 27.8262 41.5477C27.83 42.1073 28.2243 42.4706 28.8713 42.4846C29.4239 42.4972 29.9751 42.4871 30.5264 42.4871Z" fill="black"/>
<path id="Vector_10" d="M30.4485 46.0484C29.8972 46.0484 29.3447 46.0332 28.7947 46.0535C28.1949 46.075 27.8223 46.4561 27.8287 46.9979C27.8338 47.5334 28.2153 47.9183 28.8164 47.9271C29.9189 47.9449 31.0227 47.9449 32.1253 47.9297C32.7136 47.9221 33.1232 47.5258 33.1372 47.0093C33.1525 46.4675 32.7353 46.0687 32.1049 46.051C31.551 46.0358 30.9998 46.0484 30.4485 46.0484Z" fill="black"/>
<path id="Vector_11" d="M51.7962 17.135C51.4146 17.135 51.0292 17.1008 50.6528 17.1426C50.0862 17.2059 49.7506 17.5996 49.7812 18.1199C49.8131 18.6681 50.1513 18.9896 50.6694 19.0213C51.4516 19.0681 52.2403 19.0681 53.0225 19.02C53.5482 18.9884 53.8647 18.6364 53.9017 18.1035C53.9362 17.611 53.5572 17.1932 53.0046 17.1388C52.6052 17.0996 52.1994 17.1312 51.7974 17.1312C51.7962 17.1325 51.7962 17.1337 51.7962 17.135Z" fill="black"/>
<path id="Vector_12" d="M51.8014 5.44632C51.462 5.44632 51.1212 5.42859 50.7831 5.45011C50.1782 5.48683 49.7928 5.85649 49.7788 6.38314C49.7635 6.92371 50.1157 7.32755 50.7269 7.3592C51.4671 7.39718 52.2136 7.39718 52.9537 7.35794C53.5445 7.32629 53.9299 6.88573 53.9095 6.37681C53.8878 5.86535 53.482 5.48683 52.8848 5.45264C52.5249 5.42986 52.1625 5.44632 51.8014 5.44632Z" fill="black"/>
<path id="Vector_13" d="M51.8755 13.2036C52.2367 13.2036 52.5991 13.2277 52.9577 13.1986C53.5179 13.1517 53.8573 12.834 53.9007 12.2719C53.9403 11.7579 53.5306 11.3224 52.9449 11.2958C52.2035 11.2629 51.4583 11.2578 50.7181 11.2983C50.1707 11.3287 49.8096 11.6389 49.7815 12.22C49.756 12.7517 50.135 13.1391 50.7309 13.2036C50.9198 13.2239 51.1124 13.21 51.3039 13.2112C51.4953 13.2125 51.6854 13.2112 51.8768 13.2112C51.8755 13.2087 51.8755 13.2062 51.8755 13.2036Z" fill="black"/>
<path id="Vector_14" d="M44.501 13.2077C44.8608 13.209 45.2232 13.228 45.5818 13.2039C46.1982 13.1634 46.5606 12.8051 46.5708 12.2646C46.581 11.7177 46.2288 11.3227 45.6214 11.2948C44.8812 11.2606 44.136 11.2581 43.3959 11.2974C42.7987 11.329 42.4388 11.7468 42.4707 12.2899C42.5039 12.876 42.874 13.1507 43.4201 13.2001C43.7774 13.233 44.1398 13.2064 44.501 13.2077Z" fill="black"/>
<path id="Vector_15" d="M44.5251 19.0389C44.885 19.0389 45.2474 19.0591 45.606 19.0338C46.2134 18.9907 46.5783 18.6198 46.5681 18.0754C46.5579 17.4893 46.2121 17.169 45.6596 17.1386C44.899 17.0981 44.1334 17.0981 43.3728 17.1399C42.819 17.1703 42.4693 17.4982 42.4732 18.083C42.477 18.6667 42.833 18.968 43.3817 19.0275C43.7582 19.068 44.1436 19.0351 44.5251 19.0351C44.5251 19.0363 44.5251 19.0376 44.5251 19.0389Z" fill="black"/>
<path id="Vector_16" d="M44.4869 5.44787C44.1475 5.44787 43.808 5.43141 43.4699 5.45167C42.8561 5.48965 42.486 5.84539 42.4707 6.38089C42.4554 6.92906 42.7974 7.32404 43.4112 7.35696C44.1513 7.3962 44.8953 7.39747 45.6354 7.35696C46.2479 7.32404 46.5899 6.92146 46.5721 6.3771C46.5542 5.84665 46.1777 5.48585 45.5678 5.44914C45.2092 5.42761 44.8468 5.44534 44.4869 5.44534C44.4869 5.4466 44.4869 5.4466 44.4869 5.44787Z" fill="black"/>
<path id="Vector_17" d="M51.8969 24.8679C52.2581 24.8679 52.6205 24.892 52.9778 24.8629C53.5188 24.8186 53.903 24.4084 53.9081 23.9172C53.9132 23.4235 53.5393 23.0057 52.9854 22.9804C52.2236 22.9462 51.458 22.9449 50.6961 22.9791C50.1219 23.0044 49.7799 23.3918 49.7774 23.9109C49.7748 24.4185 50.1347 24.8046 50.6872 24.8641C50.8965 24.8869 51.1109 24.8717 51.3227 24.8717C51.5141 24.873 51.7043 24.8717 51.8957 24.8717C51.8969 24.8705 51.8969 24.8692 51.8969 24.8679Z" fill="black"/>
<path id="Vector_18" d="M51.8458 36.7841C52.2274 36.7841 52.6102 36.8056 52.9905 36.779C53.5341 36.741 53.9105 36.3309 53.9067 35.8308C53.9016 35.3257 53.5303 34.9282 52.9739 34.9104C52.2108 34.8851 51.4464 34.8851 50.6846 34.9117C50.132 34.9307 49.7747 35.3307 49.7798 35.8485C49.7849 36.3562 50.155 36.7334 50.7024 36.7853C50.7446 36.7891 50.7867 36.7891 50.8301 36.7891C51.1695 36.7891 51.5089 36.7891 51.8484 36.7891C51.8458 36.7879 51.8458 36.7866 51.8458 36.7841Z" fill="black"/>
<path id="Vector_19" d="M51.8459 30.7037C52.2071 30.7037 52.5682 30.7214 52.9281 30.6999C53.51 30.6644 53.9094 30.258 53.9068 29.739C53.9043 29.2364 53.538 28.8402 52.9727 28.8174C52.2109 28.787 51.4452 28.7844 50.6834 28.8199C50.1156 28.8465 49.7723 29.2415 49.7774 29.7593C49.7825 30.2618 50.1526 30.6581 50.7013 30.6986C51.0803 30.7252 51.4644 30.7037 51.8459 30.7037Z" fill="black"/>
<path id="Vector_20" d="M44.5302 24.8704C44.89 24.8704 45.2512 24.8894 45.6098 24.8666C46.2095 24.8273 46.5834 24.4475 46.5694 23.907C46.5541 23.3246 46.2133 23.0056 45.6544 22.9803C44.8939 22.9474 44.1282 22.9474 43.3677 22.9841C42.7909 23.0119 42.4642 23.3955 42.4693 23.9247C42.4744 24.4412 42.8266 24.8096 43.3855 24.8666C43.5744 24.8856 43.7671 24.8729 43.9572 24.8729C44.1474 24.8742 44.3388 24.8729 44.5289 24.8729C44.5302 24.8717 44.5302 24.8704 44.5302 24.8704Z" fill="black"/>
<path id="Vector_21" d="M44.5137 30.7038C44.8953 30.7038 45.2781 30.7266 45.6571 30.6974C46.2109 30.6544 46.5657 30.2695 46.5708 29.7543C46.5772 29.2213 46.2505 28.844 45.6724 28.8175C44.9119 28.7833 44.1462 28.782 43.3857 28.8149C42.8051 28.8403 42.4746 29.2124 42.4707 29.7416C42.4669 30.2809 42.8382 30.6633 43.4342 30.6987C43.7915 30.7215 44.1526 30.7038 44.5137 30.7038Z" fill="black"/>
<path id="Vector_22" d="M44.4535 34.9105C44.0719 34.9105 43.6891 34.8865 43.3101 34.9169C42.7933 34.9586 42.5049 35.2713 42.4755 35.7803C42.4436 36.3221 42.7308 36.7171 43.2552 36.7576C44.0975 36.8222 44.9512 36.8234 45.7934 36.7563C46.3153 36.7145 46.6024 36.3183 46.5654 35.7739C46.531 35.2637 46.2362 34.9561 45.7232 34.9169C45.3021 34.8839 44.8771 34.9105 44.4535 34.9105Z" fill="black"/>
</g>
</g>
<defs>
<clipPath id="clip0_387_4334">
<rect width="62" height="53" fill="white"/>
</clipPath>
</defs>
</svg>
