<?xml version="1.0" encoding="utf-8"?>
<!-- Generator: Adobe Illustrator 23.0.5, SVG Export Plug-In . SVG Version: 6.00 Build 0)  -->
<svg version="1.1" id="Layer_1" xmlns="http://www.w3.org/2000/svg" xmlns:xlink="http://www.w3.org/1999/xlink" x="0px" y="0px"
	 viewBox="0 0 20 20" style="enable-background:new 0 0 20 20;" xml:space="preserve">
<style type="text/css">
	.st0{fill:#B0BEEA;}
	.st1{clip-path:url(#SVGID_2_);fill:#5766B0;}
	.st2{clip-path:url(#SVGID_4_);fill:#5766B0;}
	.st3{clip-path:url(#SVGID_6_);fill:#5766B0;}
	.st4{clip-path:url(#SVGID_8_);fill:#5766B0;}
	.st5{clip-path:url(#SVGID_10_);fill:#5766B0;}
	.st6{clip-path:url(#SVGID_12_);fill:#5766B0;}
	.st7{clip-path:url(#SVGID_14_);fill:#5766B0;}
	.st8{clip-path:url(#SVGID_16_);fill:#5766B0;}
</style>
<g>
	<g>
		<circle class="st0" cx="15" cy="17.5" r="1.7"/>
		<circle class="st0" cx="6" cy="17.5" r="1.7"/>
		<polygon class="st0" points="2.7,2.5 18.1,2.5 15.9,10.4 5.2,10.4 		"/>
	</g>
	<g>
		<g>
			<defs>
				<rect id="SVGID_1_" y="0" width="19.5" height="20"/>
			</defs>
			<clipPath id="SVGID_2_">
				<use xlink:href="#SVGID_1_"  style="overflow:visible;"/>
			</clipPath>
			<path class="st1" d="M1.6,1C1.3,1,0.9,1,0.5,1C0.2,1,0,0.8,0,0.5S0.2,0,0.5,0C1,0,1.5,0,2,0c0.3,0,0.4,0.1,0.5,0.4
				c0.1,0.4,0.3,0.9,0.4,1.3C2.9,1.9,3,2,3.2,2c3.3,0,6.6,0,9.9,0c1.9,0,3.8,0,5.7,0c0.1,0,0.3,0,0.4,0.1c0.2,0.1,0.2,0.3,0.2,0.5
				C19.4,2.9,19.3,3,19,3c-0.2,0-0.4,0-0.6,0c-0.1,0.6-0.3,1.2-0.4,1.7c-0.5,2-1,3.9-1.5,5.9C16.4,10.9,16.2,11,16,11
				c-2.6,0-5.2,0-7.9,0c-0.8,0-1.7,0-2.5,0c-0.5,0-0.9,0.3-1,0.7c-0.2,0.7,0.3,1.3,1,1.3c1.7,0,3.4,0,5,0c1.8,0,3.6,0,5.3,0
				c0.4,0,0.6,0.2,0.6,0.5s-0.2,0.4-0.6,0.4c-0.8,0-1.6,0-2.4,0c-2.6,0-5.3,0-7.9,0c-0.7,0-1.3-0.3-1.8-0.9c-0.6-0.9-0.4-2,0.4-2.7
				c0.1-0.1,0.2-0.1,0.1-0.3C3.4,7,2.5,4,1.6,1C1.7,1.1,1.6,1.1,1.6,1z M15.6,10c0.6-2.3,1.2-4.7,1.7-7C12.7,3,8,3,3.3,3
				c0,0.1,0,0.1,0,0.2c0.7,2.2,1.3,4.4,2,6.6C5.4,10,5.5,10,5.6,10c3.2,0,6.5,0,9.7,0C15.4,10,15.5,10,15.6,10z"/>
		</g>
		<g>
			<defs>
				<rect id="SVGID_3_" y="0" width="19.5" height="20"/>
			</defs>
			<clipPath id="SVGID_4_">
				<use xlink:href="#SVGID_3_"  style="overflow:visible;"/>
			</clipPath>
			<path class="st2" d="M6,15c1.4,0,2.5,1.1,2.5,2.5S7.4,20,6,20s-2.5-1.1-2.5-2.5S4.6,15,6,15z M4.5,17.5C4.5,18.3,5.2,19,6,19
				s1.5-0.7,1.5-1.5S6.8,16,6,16S4.5,16.7,4.5,17.5z"/>
		</g>
		<g>
			<defs>
				<rect id="SVGID_5_" y="0" width="19.5" height="20"/>
			</defs>
			<clipPath id="SVGID_6_">
				<use xlink:href="#SVGID_5_"  style="overflow:visible;"/>
			</clipPath>
			<path class="st3" d="M15,20c-1.4,0-2.5-1.1-2.5-2.5S13.6,15,15,15s2.5,1.1,2.5,2.5S16.4,20,15,20z M16.5,17.5
				c0-0.8-0.7-1.5-1.5-1.5s-1.5,0.7-1.5,1.5S14.2,19,15,19S16.5,18.3,16.5,17.5z"/>
		</g>
		<g>
			<defs>
				<rect id="SVGID_7_" y="0" width="19.5" height="20"/>
			</defs>
			<clipPath id="SVGID_8_">
				<use xlink:href="#SVGID_7_"  style="overflow:visible;"/>
			</clipPath>
			<path class="st4" d="M10,4c0.3,0,0.6,0,1,0c0,1.7,0,3.3,0,5c-0.3,0-0.6,0-1,0C10,7.3,10,5.7,10,4z"/>
		</g>
		<g>
			<defs>
				<rect id="SVGID_9_" y="0" width="19.5" height="20"/>
			</defs>
			<clipPath id="SVGID_10_">
				<use xlink:href="#SVGID_9_"  style="overflow:visible;"/>
			</clipPath>
			<path class="st5" d="M7,4c0,1.7,0,3.3,0,5C6.7,9,6.3,9,6,9c0-1.7,0-3.3,0-5C6.3,4,6.6,4,7,4z"/>
		</g>
		<g>
			<defs>
				<rect id="SVGID_11_" y="0" width="19.5" height="20"/>
			</defs>
			<clipPath id="SVGID_12_">
				<use xlink:href="#SVGID_11_"  style="overflow:visible;"/>
			</clipPath>
			<path class="st6" d="M9,9C8.7,9,8.3,9,8,9c0-1.7,0-3.3,0-5c0.3,0,0.6,0,1,0C9,5.7,9,7.3,9,9z"/>
		</g>
		<g>
			<defs>
				<rect id="SVGID_13_" y="0" width="19.5" height="20"/>
			</defs>
			<clipPath id="SVGID_14_">
				<use xlink:href="#SVGID_13_"  style="overflow:visible;"/>
			</clipPath>
			<path class="st7" d="M13,9c-0.3,0-0.6,0-1,0c0-1.7,0-3.3,0-5c0.3,0,0.6,0,1,0C13,5.7,13,7.3,13,9z"/>
		</g>
		<g>
			<defs>
				<rect id="SVGID_15_" y="0" width="19.5" height="20"/>
			</defs>
			<clipPath id="SVGID_16_">
				<use xlink:href="#SVGID_15_"  style="overflow:visible;"/>
			</clipPath>
			<path class="st8" d="M15,9c-0.3,0-0.6,0-1,0c0-1.7,0-3.3,0-5c0.3,0,0.6,0,1,0C15,5.7,15,7.3,15,9z"/>
		</g>
	</g>
</g>
</svg>
