<svg width="20" height="20" viewBox="0 0 20 20" fill="none" xmlns="http://www.w3.org/2000/svg">
<g clip-path="url(#clip0_46_4947)">
<path d="M1.61677 0.992791C1.25049 0.992791 0.899689 0.995136 0.548417 0.992322C0.223878 0.989508 0.00767401 0.795816 0.000170196 0.508796C-0.00686463 0.208174 0.204649 0.00744728 0.547948 0.00369537C1.01694 -0.0014635 1.48592 -0.000994509 1.95491 0.00369537C2.25084 0.0065093 2.39482 0.115315 2.48534 0.402335C2.62557 0.848812 2.76767 1.29482 2.88914 1.74646C2.93979 1.93546 3.01952 2.00018 3.22118 1.99971C6.53505 1.99267 9.84892 1.99455 13.1628 1.99455C15.0697 1.99455 16.9766 1.99221 18.8835 1.99877C19.0247 1.99924 19.1837 2.03676 19.3018 2.10945C19.4843 2.22107 19.541 2.41758 19.4843 2.62487C19.4224 2.8528 19.2554 2.97943 19.0233 2.99537C18.8216 3.00944 18.6185 2.99818 18.3958 2.99818C18.248 3.58254 18.1017 4.15424 17.9591 4.72688C17.4709 6.68725 16.9846 8.64762 16.4968 10.608C16.434 10.8608 16.2314 11.0113 15.9631 11.0108C13.3452 11.0057 10.7269 11.001 8.10898 10.9968C7.2648 10.9954 6.42062 10.993 5.57644 10.9977C5.06571 11.0005 4.68255 11.2646 4.54467 11.6918C4.32893 12.3611 4.81715 13.004 5.55299 13.0055C7.23337 13.0092 8.91376 13.0064 10.5941 13.0064C12.3763 13.0064 14.158 13.0059 15.9401 13.0073C16.2956 13.0078 16.525 13.2353 16.4968 13.5504C16.4724 13.8262 16.268 13.9946 15.9378 13.996C15.1485 13.9992 14.3592 13.9974 13.5694 13.9974C10.9196 13.9974 8.27031 13.9931 5.62099 13.9997C4.87905 14.0016 4.27594 13.7413 3.8515 13.1283C3.25213 12.2635 3.4341 11.0906 4.25811 10.4368C4.35473 10.3599 4.42226 10.3083 4.37583 10.1545C3.46787 7.14685 2.56694 4.13548 1.66414 1.12458C1.65288 1.08753 1.63788 1.05141 1.61677 0.992791ZM15.6133 10.0058C16.1962 7.674 16.7763 5.35391 17.3598 3.0207C12.6568 3.0207 7.97531 3.0207 3.28403 3.0207C3.2995 3.08682 3.30747 3.13278 3.32061 3.17687C3.98376 5.38815 4.64972 7.59849 5.30536 9.81211C5.35883 9.99267 5.4545 10.0086 5.6088 10.0082C8.85232 10.0049 12.0963 10.0058 15.3398 10.0058C15.4257 10.0058 15.511 10.0058 15.6133 10.0058Z" fill="#5766B0"/>
<path d="M5.98118 15.0118C7.37314 15.0033 8.48746 16.1073 8.49215 17.4993C8.49684 18.8795 7.40128 19.9863 6.01683 19.9995C4.63097 20.0131 3.51337 18.9058 3.50493 17.5115C3.49695 16.1355 4.60189 15.0197 5.98118 15.0118ZM4.49496 17.5026C4.49215 18.3266 5.1764 19.0108 6.00182 19.0094C6.81692 19.008 7.49508 18.335 7.50258 17.5194C7.51008 16.6931 6.83193 16.0046 6.00698 16.0013C5.17874 15.9985 4.49777 16.6739 4.49496 17.5026Z" fill="#5766B0"/>
<path d="M14.9856 19.9995C13.6053 19.9897 12.5046 18.8772 12.5098 17.4989C12.5149 16.1069 13.633 14.9996 15.0217 15.0118C16.4047 15.0235 17.5064 16.136 17.4975 17.5115C17.4886 18.9063 16.3747 20.0094 14.9856 19.9995ZM16.5065 17.4989C16.5046 16.6725 15.8204 15.9967 14.9912 16.0009C14.1766 16.0051 13.5003 16.6842 13.4993 17.4989C13.4984 18.3276 14.177 19.009 15.0034 19.0085C15.8312 19.0081 16.5088 18.3276 16.5065 17.4989Z" fill="#5766B0"/>
<path d="M10.0146 4.01562C10.3387 4.01562 10.6553 4.01562 10.9883 4.01562C10.9883 5.67115 10.9883 7.32152 10.9883 8.98831C10.6628 8.98831 10.3476 8.98831 10.0146 8.98831C10.0146 7.32996 10.0146 5.67959 10.0146 4.01562Z" fill="#5766B0"/>
<path d="M6.98103 4.01953C6.98103 5.68256 6.98103 7.32824 6.98103 8.98893C6.65884 8.98893 6.34978 8.98893 6.02148 8.98893C6.02148 7.33809 6.02148 5.68725 6.02148 4.01953C6.33008 4.01953 6.64524 4.01953 6.98103 4.01953Z" fill="#5766B0"/>
<path d="M8.97732 8.99253C8.65841 8.99253 8.34981 8.99253 8.02246 8.99253C8.02246 7.3309 8.02246 5.68006 8.02246 4.01562C8.33856 4.01562 8.64809 4.01562 8.97732 4.01562C8.97732 5.66318 8.97732 7.31449 8.97732 8.99253Z" fill="#5766B0"/>
<path d="M12.9847 8.99253C12.6522 8.99253 12.3431 8.99253 12.0195 8.99253C12.0195 7.3309 12.0195 5.67959 12.0195 4.01562C12.3413 4.01562 12.6569 4.01562 12.9847 4.01562C12.9847 5.67444 12.9847 7.31965 12.9847 8.99253Z" fill="#5766B0"/>
<path d="M14.9802 8.99253C14.6599 8.99253 14.3513 8.99253 14.0244 8.99253C14.0244 7.32996 14.0244 5.67959 14.0244 4.01562C14.3419 4.01562 14.6515 4.01562 14.9802 4.01562C14.9802 5.66412 14.9802 7.31543 14.9802 8.99253Z" fill="#5766B0"/>
</g>
<defs>
<clipPath id="clip0_46_4947">
<rect width="19.5052" height="20" fill="white"/>
</clipPath>
</defs>
</svg>
